STARTFONT 2.1
COMMENT ========================================================== 
COMMENT                Wen Quan Yi Bitmap Song 
COMMENT ----------------------------------------------------------
COMMENT Summary:
COMMENT 
COMMENT     Developer: The WenQuanYi Project
COMMENT     Webpage  : http://wqy.sourceforge.net/en/
COMMENT     Font Name: WenQuanYi Bitmap Song
COMMENT     Version  : 0.6 (half-teal)
COMMENT     Release  : 2
COMMENT     Date     : 2005/8/8
COMMENT     Copyright: 2004,2005, The WenQuanYi Project Board of Trustees
COMMENT     License  : GPL
COMMENT 
COMMENT           May the Font be with you, forever!
COMMENT ----------------------------------------------------------
COMMENT The bitmap font in this package includes complete CJK Unified 
COMMENT Ideographics (U4E00~U9FA5) glyphs at four different sizes 
COMMENT (9pt-12X12 pixel, 10pt-13X13 pixel, 11pt-15X15 pixel,
COMMENT and 12pt-16X16pt) and two weights (medium and bold). 
COMMENT This font can be used for displaying Chinese on various 
COMMENT computer operating systems, especially on all distributions 
COMMENT of Linux. Using bitmap Chinese font can overcome the 
COMMENT blurring problem for many True-Type Chinese font due to 
COMMENT anti-aliasing and insufficiency in hinting methods for 
COMMENT Chinese characters.
COMMENT ----------------------------------------------------------
COMMENT Project start date          2004/10/26
COMMENT GBK char finish date        2005/4/10
COMMENT Sourceforge registration    2005/1/7
COMMENT CJK char. total             20902
COMMENT Total glyphs from firefly   15832X3
COMMENT Total glyphs from Redflag   20902(12pt)
COMMENT New glyphs number           15210
COMMENT Improved glyph number       > 35,000
COMMENT Group number(101 char each) 207
COMMENT Online editing group        53
COMMENT Offline editing group       154
COMMENT Webspace provider           sitaphi.com,Dartmouth CSSA,sourceforge
COMMENT 
COMMENT New wiki page number        3663+34

STARTCHAR .notdef
ENCODING 0
SWIDTH 600 0
DWIDTH 7 0
BBX 7 12 0 -3
BITMAP
FE
82
82
82
82
82
82
82
82
82
82
FE
ENDCHAR
STARTCHAR zero
ENCODING 48
SWIDTH 636 0
DWIDTH 8 0
BBX 6 9 1 0
BITMAP
78
84
84
84
84
84
84
84
78
ENDCHAR
STARTCHAR one
ENCODING 49
SWIDTH 636 0
DWIDTH 8 0
BBX 5 9 2 0
BITMAP
E0
20
20
20
20
20
20
20
F8
ENDCHAR
STARTCHAR two
ENCODING 50
SWIDTH 636 0
DWIDTH 8 0
BBX 5 9 1 0
BITMAP
70
88
88
08
10
20
40
80
F8
ENDCHAR
STARTCHAR three
ENCODING 51
SWIDTH 636 0
DWIDTH 8 0
BBX 6 9 0 0
BITMAP
78
84
04
04
38
04
04
84
78
ENDCHAR
STARTCHAR four
ENCODING 52
SWIDTH 636 0
DWIDTH 8 0
BBX 6 9 1 0
BITMAP
18
28
48
88
88
88
FC
08
08
ENDCHAR
STARTCHAR five
ENCODING 53
SWIDTH 636 0
DWIDTH 8 0
BBX 5 9 1 0
BITMAP
F8
80
80
F0
08
08
08
88
70
ENDCHAR
STARTCHAR six
ENCODING 54
SWIDTH 636 0
DWIDTH 8 0
BBX 6 9 1 0
BITMAP
78
80
80
B8
C4
84
84
84
78
ENDCHAR
STARTCHAR seven
ENCODING 55
SWIDTH 636 0
DWIDTH 8 0
BBX 6 9 1 0
BITMAP
FC
08
08
10
10
10
20
20
20
ENDCHAR
STARTCHAR eight
ENCODING 56
SWIDTH 636 0
DWIDTH 8 0
BBX 6 9 1 0
BITMAP
78
84
84
84
78
84
84
84
78
ENDCHAR
STARTCHAR nine
ENCODING 57
SWIDTH 636 0
DWIDTH 8 0
BBX 6 9 1 0
BITMAP
78
84
84
84
8C
74
04
88
70
ENDCHAR
STARTCHAR A
ENCODING 65
SWIDTH 684 0
DWIDTH 8 0
BBX 8 9 0 0
BITMAP
18
18
24
24
42
42
7E
81
81
ENDCHAR
STARTCHAR B
ENCODING 66
SWIDTH 686 0
DWIDTH 8 0
BBX 6 9 1 0
BITMAP
F8
84
84
84
F8
84
84
84
F8
ENDCHAR
STARTCHAR C
ENCODING 67
SWIDTH 698 0
DWIDTH 8 0
BBX 6 9 1 0
BITMAP
3C
40
80
80
80
80
80
40
3C
ENDCHAR
STARTCHAR D
ENCODING 68
SWIDTH 770 0
DWIDTH 9 0
BBX 7 9 1 0
BITMAP
F8
84
82
82
82
82
82
84
F8
ENDCHAR
STARTCHAR E
ENCODING 69
SWIDTH 631 0
DWIDTH 8 0
BBX 6 9 1 0
BITMAP
FC
80
80
80
F8
80
80
80
FC
ENDCHAR
STARTCHAR F
ENCODING 70
SWIDTH 575 0
DWIDTH 7 0
BBX 6 9 1 0
BITMAP
FC
80
80
80
F8
80
80
80
80
ENDCHAR
STARTCHAR G
ENCODING 71
SWIDTH 774 0
DWIDTH 9 0
BBX 7 9 1 0
BITMAP
3C
42
80
80
8E
82
82
42
3E
ENDCHAR
STARTCHAR H
ENCODING 72
SWIDTH 751 0
DWIDTH 9 0
BBX 7 9 1 0
BITMAP
82
82
82
82
FE
82
82
82
82
ENDCHAR
STARTCHAR I
ENCODING 73
SWIDTH 294 0
DWIDTH 4 0
BBX 1 9 1 0
BITMAP
80
80
80
80
80
80
80
80
80
ENDCHAR
STARTCHAR J
ENCODING 74
SWIDTH 294 0
DWIDTH 4 0
BBX 3 12 -1 -3
BITMAP
20
20
20
20
20
20
20
20
20
20
20
C0
ENDCHAR
STARTCHAR K
ENCODING 75
SWIDTH 655 0
DWIDTH 8 0
BBX 6 9 1 0
BITMAP
84
88
90
A0
C0
A0
90
88
84
ENDCHAR
STARTCHAR L
ENCODING 76
SWIDTH 557 0
DWIDTH 7 0
BBX 6 9 1 0
BITMAP
80
80
80
80
80
80
80
80
FC
ENDCHAR
STARTCHAR M
ENCODING 77
SWIDTH 862 0
DWIDTH 10 0
BBX 8 9 1 0
BITMAP
C3
C3
A5
A5
99
99
81
81
81
ENDCHAR
STARTCHAR N
ENCODING 78
SWIDTH 748 0
DWIDTH 9 0
BBX 7 9 1 0
BITMAP
C2
C2
A2
A2
92
92
8A
8A
86
ENDCHAR
STARTCHAR O
ENCODING 79
SWIDTH 787 0
DWIDTH 9 0
BBX 7 9 1 0
BITMAP
38
44
82
82
82
82
82
44
38
ENDCHAR
STARTCHAR P
ENCODING 80
SWIDTH 603 0
DWIDTH 7 0
BBX 6 9 1 0
BITMAP
F8
84
84
84
84
F8
80
80
80
ENDCHAR
STARTCHAR Q
ENCODING 81
SWIDTH 787 0
DWIDTH 9 0
BBX 7 10 1 -1
BITMAP
38
44
82
82
82
82
82
44
38
06
ENDCHAR
STARTCHAR R
ENCODING 82
SWIDTH 694 0
DWIDTH 8 0
BBX 7 9 1 0
BITMAP
F8
84
84
84
F8
88
84
84
82
ENDCHAR
STARTCHAR S
ENCODING 83
SWIDTH 634 0
DWIDTH 8 0
BBX 6 9 1 0
BITMAP
78
84
80
80
78
04
04
84
78
ENDCHAR
STARTCHAR T
ENCODING 84
SWIDTH 610 0
DWIDTH 7 0
BBX 7 9 0 0
BITMAP
FE
10
10
10
10
10
10
10
10
ENDCHAR
STARTCHAR U
ENCODING 85
SWIDTH 731 0
DWIDTH 9 0
BBX 7 9 1 0
BITMAP
82
82
82
82
82
82
82
44
38
ENDCHAR
STARTCHAR V
ENCODING 86
SWIDTH 684 0
DWIDTH 8 0
BBX 7 9 0 0
BITMAP
82
82
82
44
44
28
28
10
10
ENDCHAR
STARTCHAR W
ENCODING 87
SWIDTH 988 0
DWIDTH 12 0
BBX 11 9 0 0
BITMAP
8420
8420
8A20
4A40
5140
5140
5140
2080
2080
ENDCHAR
STARTCHAR X
ENCODING 88
SWIDTH 685 0
DWIDTH 8 0
BBX 7 9 0 0
BITMAP
82
82
44
28
10
28
44
82
82
ENDCHAR
STARTCHAR Y
ENCODING 89
SWIDTH 610 0
DWIDTH 7 0
BBX 7 9 0 0
BITMAP
82
44
28
10
10
10
10
10
10
ENDCHAR
STARTCHAR Z
ENCODING 90
SWIDTH 685 0
DWIDTH 8 0
BBX 7 9 1 0
BITMAP
FE
02
04
08
10
20
40
80
FE
ENDCHAR
STARTCHAR a
ENCODING 97
SWIDTH 612 0
DWIDTH 7 0
BBX 5 7 1 0
BITMAP
F0
08
78
88
88
88
78
ENDCHAR
STARTCHAR b
ENCODING 98
SWIDTH 634 0
DWIDTH 8 0
BBX 6 10 1 0
BITMAP
80
80
80
B8
C4
84
84
84
C4
B8
ENDCHAR
STARTCHAR c
ENCODING 99
SWIDTH 549 0
DWIDTH 7 0
BBX 5 7 1 0
BITMAP
78
80
80
80
80
80
78
ENDCHAR
STARTCHAR d
ENCODING 100
SWIDTH 634 0
DWIDTH 8 0
BBX 6 10 1 0
BITMAP
04
04
04
74
8C
84
84
84
8C
74
ENDCHAR
STARTCHAR e
ENCODING 101
SWIDTH 615 0
DWIDTH 7 0
BBX 6 7 1 0
BITMAP
78
84
84
FC
80
84
78
ENDCHAR
STARTCHAR f
ENCODING 102
SWIDTH 352 0
DWIDTH 4 0
BBX 4 10 0 0
BITMAP
30
40
40
F0
40
40
40
40
40
40
ENDCHAR
STARTCHAR g
ENCODING 103
SWIDTH 634 0
DWIDTH 8 0
BBX 6 10 1 -3
BITMAP
78
84
84
84
84
84
7C
04
84
78
ENDCHAR
STARTCHAR h
ENCODING 104
SWIDTH 633 0
DWIDTH 8 0
BBX 5 10 1 0
BITMAP
80
80
80
B0
C8
88
88
88
88
88
ENDCHAR
STARTCHAR i
ENCODING 105
SWIDTH 277 0
DWIDTH 3 0
BBX 1 9 1 0
BITMAP
80
00
80
80
80
80
80
80
80
ENDCHAR
STARTCHAR j
ENCODING 106
SWIDTH 277 0
DWIDTH 3 0
BBX 2 12 0 -3
BITMAP
40
00
40
40
40
40
40
40
40
40
40
80
ENDCHAR
STARTCHAR k
ENCODING 107
SWIDTH 579 0
DWIDTH 7 0
BBX 5 10 1 0
BITMAP
80
80
80
88
90
A0
C0
A0
90
88
ENDCHAR
STARTCHAR l
ENCODING 108
SWIDTH 277 0
DWIDTH 3 0
BBX 1 10 1 0
BITMAP
80
80
80
80
80
80
80
80
80
80
ENDCHAR
STARTCHAR m
ENCODING 109
SWIDTH 974 0
DWIDTH 12 0
BBX 10 7 1 0
BITMAP
B380
CC40
8440
8440
8440
8440
8440
ENDCHAR
STARTCHAR n
ENCODING 110
SWIDTH 633 0
DWIDTH 8 0
BBX 6 7 1 0
BITMAP
B8
C4
84
84
84
84
84
ENDCHAR
STARTCHAR o
ENCODING 111
SWIDTH 611 0
DWIDTH 7 0
BBX 7 7 0 0
BITMAP
38
44
82
82
82
44
38
ENDCHAR
STARTCHAR p
ENCODING 112
SWIDTH 634 0
DWIDTH 8 0
BBX 6 10 1 -3
BITMAP
B8
C4
84
84
84
C4
B8
80
80
80
ENDCHAR
STARTCHAR q
ENCODING 113
SWIDTH 634 0
DWIDTH 8 0
BBX 6 10 1 -3
BITMAP
74
8C
84
84
84
8C
74
04
04
04
ENDCHAR
STARTCHAR r
ENCODING 114
SWIDTH 411 0
DWIDTH 5 0
BBX 4 7 1 0
BITMAP
B0
C0
80
80
80
80
80
ENDCHAR
STARTCHAR s
ENCODING 115
SWIDTH 520 0
DWIDTH 6 0
BBX 5 7 0 0
BITMAP
70
88
80
70
08
88
70
ENDCHAR
STARTCHAR t
ENCODING 116
SWIDTH 392 0
DWIDTH 5 0
BBX 4 9 0 0
BITMAP
40
40
F0
40
40
40
40
40
30
ENDCHAR
STARTCHAR u
ENCODING 117
SWIDTH 633 0
DWIDTH 8 0
BBX 5 7 1 0
BITMAP
88
88
88
88
88
98
68
ENDCHAR
STARTCHAR v
ENCODING 118
SWIDTH 591 0
DWIDTH 7 0
BBX 7 7 0 0
BITMAP
82
44
44
28
28
10
10
ENDCHAR
STARTCHAR w
ENCODING 119
SWIDTH 817 0
DWIDTH 10 0
BBX 9 7 0 0
BITMAP
8880
8880
5500
5500
5500
2200
2200
ENDCHAR
STARTCHAR x
ENCODING 120
SWIDTH 591 0
DWIDTH 7 0
BBX 5 7 1 0
BITMAP
88
88
50
20
50
88
88
ENDCHAR
STARTCHAR y
ENCODING 121
SWIDTH 591 0
DWIDTH 7 0
BBX 7 10 0 -3
BITMAP
82
82
44
44
28
28
10
10
20
20
ENDCHAR
STARTCHAR z
ENCODING 122
SWIDTH 524 0
DWIDTH 6 0
BBX 5 7 1 0
BITMAP
F8
08
10
20
40
80
F8
ENDCHAR
STARTCHAR nonbreakingspace
ENCODING 160
SWIDTH 636 0
DWIDTH 8 0
BBX 1 1 0 0
BITMAP
00
ENDCHAR
STARTCHAR U_4E00
ENCODING 19968
SWIDTH 1000 0
DWIDTH 13 0
BBX 13 12 0 -1
BITMAP
0000
0000
0000
0000
0030
FFF8
0000
0000
0000
0000
0000
0000
ENDCHAR
STARTCHAR U_4E01
ENCODING 19969
SWIDTH 1000 0
DWIDTH 13 0
BBX 13 12 0 -1
BITMAP
0000
FFF8
0300
0300
0300
0300
0300
0300
0300
0300
0F00
0600
ENDCHAR
STARTCHAR U_4E02
ENCODING 19970
SWIDTH 1000 0
DWIDTH 13 0
BBX 13 12 0 -1
BITMAP
FFF8
0C00
0C00
1800
3FE0
0060
0060
0060
00C0
00C0
0780
0300
ENDCHAR
STARTCHAR U_4E03
ENCODING 19971
SWIDTH 1000 0
DWIDTH 13 0
BBX 13 12 0 -1
BITMAP
0C00
0C00
0C00
0C78
0FC0
FC00
0C00
0C00
0C00
0C18
0C18
07F8
ENDCHAR
STARTCHAR U_4E04
ENCODING 19972
SWIDTH 1000 0
DWIDTH 13 0
BBX 13 12 0 -1
BITMAP
0600
0600
0600
0600
0600
0600
0600
0600
0600
0630
FFF8
0000
ENDCHAR
STARTCHAR U_4E05
ENCODING 19973
SWIDTH 1000 0
DWIDTH 13 0
BBX 13 12 0 -1
BITMAP
0030
FFF8
0600
0600
0600
0600
0600
0600
0600
0600
0600
0600
ENDCHAR
STARTCHAR U_4E06
ENCODING 19974
SWIDTH 1000 0
DWIDTH 13 0
BBX 13 12 0 -1
BITMAP
0000
0060
7FF0
0600
0600
0C00
0C00
1800
7000
0000
0000
0000
ENDCHAR
STARTCHAR U_4E07
ENCODING 19975
SWIDTH 1000 0
DWIDTH 13 0
BBX 13 12 0 -1
BITMAP
0000
FFF8
0C00
0C00
0FE0
0C60
0C60
0C60
1860
1860
33C0
6180
ENDCHAR
STARTCHAR U_4E08
ENCODING 19976
SWIDTH 1000 0
DWIDTH 13 0
BBX 13 12 0 -1
BITMAP
0600
0600
0600
FFF0
0600
3600
3600
1E00
0C00
1E00
3300
E1F0
ENDCHAR
STARTCHAR U_4E09
ENCODING 19977
SWIDTH 1000 0
DWIDTH 13 0
BBX 13 12 0 -1
BITMAP
0060
7FF0
0000
0000
0000
0000
3FE0
0000
0000
0000
0030
FFF8
ENDCHAR
STARTCHAR U_4E0A
ENCODING 19978
SWIDTH 1000 0
DWIDTH 13 0
BBX 13 12 0 -1
BITMAP
0600
0600
0600
0600
07F0
0600
0600
0600
0600
0600
0600
FFF8
ENDCHAR
STARTCHAR U_4E0B
ENCODING 19979
SWIDTH 1000 0
DWIDTH 13 0
BBX 13 12 0 -1
BITMAP
FFF8
0600
0600
0700
0780
06E0
0660
0600
0600
0600
0600
0600
ENDCHAR
STARTCHAR U_4E0C
ENCODING 19980
SWIDTH 1000 0
DWIDTH 13 0
BBX 13 12 0 -1
BITMAP
0030
FFF8
0CC0
0CC0
0CC0
0CC0
0CC0
0CC0
18C0
18C0
30C0
60C0
ENDCHAR
STARTCHAR U_4E0D
ENCODING 19981
SWIDTH 1000 0
DWIDTH 13 0
BBX 13 12 0 -1
BITMAP
FFF8
0300
0300
0600
0F80
1EC0
3660
6638
C618
0600
0600
0600
ENDCHAR
STARTCHAR U_4E0E
ENCODING 19982
SWIDTH 1000 0
DWIDTH 13 0
BBX 13 12 0 -1
BITMAP
1800
1800
1FF0
1800
1800
1FE0
0060
0060
FF60
0060
03C0
0180
ENDCHAR
STARTCHAR U_4E0F
ENCODING 19983
SWIDTH 1000 0
DWIDTH 13 0
BBX 13 12 0 -1
BITMAP
FFF8
0600
0600
37E0
3660
6660
7FE0
0060
0060
0060
03C0
0180
ENDCHAR
STARTCHAR U_4E10
ENCODING 19984
SWIDTH 1000 0
DWIDTH 13 0
BBX 13 12 0 -1
BITMAP
FFF8
0300
1B00
1BF0
1B00
3300
3FF0
0030
0030
0030
01E0
00C0
ENDCHAR
STARTCHAR U_4E11
ENCODING 19985
SWIDTH 1000 0
DWIDTH 13 0
BBX 13 12 0 -1
BITMAP
0060
3FF0
0660
0660
0660
0660
7FE0
0C60
0C60
0C60
0C60
FFF8
ENDCHAR
STARTCHAR U_4E12
ENCODING 19986
SWIDTH 1000 0
DWIDTH 13 0
BBX 13 12 0 -1
BITMAP
7FE0
0C60
0C60
3C60
1C60
0E60
1E60
3060
63C0
C180
0000
FFF8
ENDCHAR
STARTCHAR U_4E13
ENCODING 19987
SWIDTH 1000 0
DWIDTH 13 0
BBX 13 12 0 -1
BITMAP
0660
7FF0
0600
0630
FFF8
0C00
1FE0
00C0
0F80
0300
01C0
00C0
ENDCHAR
STARTCHAR U_4E14
ENCODING 19988
SWIDTH 1000 0
DWIDTH 13 0
BBX 13 12 0 -1
BITMAP
3FC0
30C0
30C0
30C0
3FC0
30C0
30C0
3FC0
30C0
30C0
30C0
FFF8
ENDCHAR
STARTCHAR U_4E15
ENCODING 19989
SWIDTH 1000 0
DWIDTH 13 0
BBX 13 12 0 -1
BITMAP
0030
FFF8
0300
0600
0EC0
1E60
3630
6630
0600
0600
0630
FFF8
ENDCHAR
STARTCHAR U_4E16
ENCODING 19990
SWIDTH 1000 0
DWIDTH 13 0
BBX 13 12 0 -1
BITMAP
0660
3660
3660
FFF8
3660
3660
3660
37E0
3660
3000
3000
3FF8
ENDCHAR
STARTCHAR U_4E17
ENCODING 19991
SWIDTH 1000 0
DWIDTH 13 0
BBX 13 12 0 -1
BITMAP
0600
3660
3660
3660
FFF8
3660
3660
3660
3660
3660
3FE0
3060
ENDCHAR
STARTCHAR U_4E18
ENCODING 19992
SWIDTH 1000 0
DWIDTH 13 0
BBX 13 12 0 -1
BITMAP
03E0
3E00
3000
3000
3000
3FF0
3180
3180
3180
3180
3180
FFF8
ENDCHAR
STARTCHAR U_4E19
ENCODING 19993
SWIDTH 1000 0
DWIDTH 13 0
BBX 13 12 0 -1
BITMAP
0030
FFF8
0600
0600
7FF0
6630
6730
6DB0
79B0
6030
60F0
6060
ENDCHAR
STARTCHAR U_4E1A
ENCODING 19994
SWIDTH 1000 0
DWIDTH 13 0
BBX 13 12 0 -1
BITMAP
0D80
0D80
0D80
CDB0
CDB0
6DE0
6DE0
3DC0
3D80
0D80
0D80
FFF8
ENDCHAR
STARTCHAR U_4E1B
ENCODING 19995
SWIDTH 1000 0
DWIDTH 13 0
BBX 13 12 0 -1
BITMAP
18C0
18C0
18C0
18C0
18C0
3CC0
37E0
67E0
6330
CE18
0000
FFF8
ENDCHAR
STARTCHAR U_4E1C
ENCODING 19996
SWIDTH 1000 0
DWIDTH 13 0
BBX 13 12 0 -1
BITMAP
0600
0600
FFF8
1B00
1B00
3300
3FF0
0300
1B60
3338
6F18
0600
ENDCHAR
STARTCHAR U_4E1D
ENCODING 19997
SWIDTH 1000 0
DWIDTH 13 0
BBX 13 12 0 -1
BITMAP
30C0
30C0
30C0
61B0
79E0
FBE0
30C0
6180
FFF0
0000
0000
FFF8
ENDCHAR
STARTCHAR U_4E1E
ENCODING 19998
SWIDTH 1000 0
DWIDTH 13 0
BBX 13 12 0 -1
BITMAP
3FC0
0180
0330
FE60
1FC0
3780
36C0
6660
DE38
0C00
0000
FFF8
ENDCHAR
STARTCHAR U_4E1F
ENCODING 19999
SWIDTH 1000 0
DWIDTH 13 0
BBX 13 12 0 -1
BITMAP
0060
7FF0
0600
3FE0
0600
0600
FFF8
0600
0D80
18C0
3FE0
1860
ENDCHAR
STARTCHAR U_4E20
ENCODING 20000
SWIDTH 1000 0
DWIDTH 13 0
BBX 13 12 0 -1
BITMAP
0D80
0D80
0D98
FDB0
0DE0
0D80
0D80
3D98
ED98
0CF8
0000
FFF8
ENDCHAR
STARTCHAR U_4E21
ENCODING 20001
SWIDTH 1000 0
DWIDTH 13 0
BBX 13 12 0 -1
BITMAP
0000
FFF8
0300
7FF8
6318
7B78
7B78
7B78
7FF8
7878
6018
6038
ENDCHAR
STARTCHAR U_4E22
ENCODING 20002
SWIDTH 1000 0
DWIDTH 13 0
BBX 13 12 0 -1
BITMAP
00E0
7F80
0600
7FE0
0600
0600
FFF0
0600
0D80
18C0
3FE0
1860
ENDCHAR
STARTCHAR U_4E23
ENCODING 20003
SWIDTH 1000 0
DWIDTH 13 0
BBX 13 12 0 -1
BITMAP
0030
FFF8
0D80
0D80
7DF0
6DB0
6DB0
7DF0
0D80
1980
1980
3180
ENDCHAR
STARTCHAR U_4E24
ENCODING 20004
SWIDTH 1000 0
DWIDTH 13 0
BBX 13 12 0 -1
BITMAP
FFF8
0D80
0D80
7FF0
6DB0
6DB0
6DB0
7FF0
7B70
7630
60F0
6060
ENDCHAR
STARTCHAR U_4E25
ENCODING 20005
SWIDTH 1000 0
DWIDTH 13 0
BBX 13 12 0 -1
BITMAP
7FF8
06C0
36F0
1EE0
3FF8
3000
3000
3000
3000
3000
6000
C000
ENDCHAR
STARTCHAR U_4E26
ENCODING 20006
SWIDTH 1000 0
DWIDTH 13 0
BBX 13 12 0 -1
BITMAP
3060
18C0
1980
FFF8
1980
D9B0
79B0
79E0
19C0
1980
1980
FFF8
ENDCHAR
STARTCHAR U_4E27
ENCODING 20007
SWIDTH 1000 0
DWIDTH 13 0
BBX 13 12 0 -1
BITMAP
0600
FFF8
0600
36C0
1F80
FFF0
3600
3660
33C0
3180
3CE0
3838
ENDCHAR
STARTCHAR U_4E28
ENCODING 20008
SWIDTH 1000 0
DWIDTH 13 0
BBX 13 12 0 -1
BITMAP
0300
0380
0300
0300
0300
0300
0300
0300
0300
0300
0300
0300
ENDCHAR
STARTCHAR U_4E29
ENCODING 20009
SWIDTH 1000 0
DWIDTH 13 0
BBX 13 12 0 -1
BITMAP
00C0
18C0
18C0
18C0
18C0
19C0
1FC0
1CC0
18C0
00C0
00C0
00C0
ENDCHAR
STARTCHAR U_4E2A
ENCODING 20010
SWIDTH 1000 0
DWIDTH 13 0
BBX 13 12 0 -1
BITMAP
0600
0600
0F00
1980
36C0
6660
C638
0600
0600
0600
0600
0600
ENDCHAR
STARTCHAR U_4E2B
ENCODING 20011
SWIDTH 1000 0
DWIDTH 13 0
BBX 13 12 0 -1
BITMAP
3030
1830
0E60
06C0
0300
0300
0300
0300
0300
0300
0300
0300
ENDCHAR
STARTCHAR U_4E2C
ENCODING 20012
SWIDTH 1000 0
DWIDTH 13 0
BBX 13 12 0 -1
BITMAP
0180
1980
0D80
0D80
0180
0780
0D80
3980
1980
0180
0180
0180
ENDCHAR
STARTCHAR U_4E2D
ENCODING 20013
SWIDTH 1000 0
DWIDTH 13 0
BBX 13 12 0 -1
BITMAP
0600
0600
0600
7FF0
6630
6630
6630
7FF0
6630
0600
0600
0600
ENDCHAR
STARTCHAR U_4E2E
ENCODING 20014
SWIDTH 1000 0
DWIDTH 13 0
BBX 13 12 0 -1
BITMAP
0000
FFC0
18C0
18C0
FFC0
18C0
18C0
FFC0
18D8
1878
1838
1818
ENDCHAR
STARTCHAR U_4E2F
ENCODING 20015
SWIDTH 1000 0
DWIDTH 13 0
BBX 13 12 0 -1
BITMAP
0300
0370
0FC0
7B00
0370
0FC0
7B18
0370
0FC0
FB00
0300
0300
ENDCHAR
STARTCHAR U_4E30
ENCODING 20016
SWIDTH 1000 0
DWIDTH 13 0
BBX 13 12 0 -1
BITMAP
0600
0600
FFF0
0600
0600
7FE0
0600
0600
FFF0
0600
0600
0600
ENDCHAR
STARTCHAR U_4E31
ENCODING 20017
SWIDTH 1000 0
DWIDTH 13 0
BBX 13 12 0 -1
BITMAP
0D80
0D80
6DB0
6DB0
6DB0
6DB0
7DF0
7DB0
0D80
1980
3180
6180
ENDCHAR
STARTCHAR U_4E32
ENCODING 20018
SWIDTH 1000 0
DWIDTH 13 0
BBX 13 12 0 -1
BITMAP
0600
0600
7FE0
6660
7FE0
0600
FFF0
C630
FFF0
C630
0600
0600
ENDCHAR
STARTCHAR U_4E33
ENCODING 20019
SWIDTH 1000 0
DWIDTH 13 0
BBX 13 12 0 -1
BITMAP
0D80
0D80
3FE0
3DE0
3FE0
0D80
7FF0
6DB0
7FF0
0D80
1980
7180
ENDCHAR
STARTCHAR U_4E34
ENCODING 20020
SWIDTH 1000 0
DWIDTH 13 0
BBX 13 12 0 -1
BITMAP
3600
3630
F7F8
FC00
F980
F0C0
FFF0
FDB0
FDB0
3DB0
3FF0
3C30
ENDCHAR
STARTCHAR U_4E35
ENCODING 20021
SWIDTH 1000 0
DWIDTH 13 0
BBX 13 12 0 -1
BITMAP
0780
67B0
3FB0
1FE0
FFF8
0CC0
0780
7FF8
0300
FFF8
0300
0300
ENDCHAR
STARTCHAR U_4E36
ENCODING 20022
SWIDTH 1000 0
DWIDTH 13 0
BBX 13 12 0 -1
BITMAP
0000
0000
0C00
0600
0300
0380
0180
0000
0000
0000
0000
0000
ENDCHAR
STARTCHAR U_4E37
ENCODING 20023
SWIDTH 1000 0
DWIDTH 13 0
BBX 13 12 0 -1
BITMAP
0000
0000
0000
6070
3060
1CC0
0D80
0300
0000
0000
0000
0000
ENDCHAR
STARTCHAR U_4E38
ENCODING 20024
SWIDTH 1000 0
DWIDTH 13 0
BBX 13 12 0 -1
BITMAP
0C00
0C00
0D80
7FC0
0D80
3D80
1D80
0D80
1F80
3798
6198
C0F8
ENDCHAR
STARTCHAR U_4E39
ENCODING 20025
SWIDTH 1000 0
DWIDTH 13 0
BBX 13 12 0 -1
BITMAP
1FE0
1860
1E60
1B60
1B60
1860
FFF8
1860
1860
3060
31E0
60C0
ENDCHAR
STARTCHAR U_4E3A
ENCODING 20026
SWIDTH 1000 0
DWIDTH 13 0
BBX 13 12 0 -1
BITMAP
0600
3600
1E00
0600
7FF0
0630
07B0
0CF0
0CF0
1830
31E0
60C0
ENDCHAR
STARTCHAR U_4E3B
ENCODING 20027
SWIDTH 1000 0
DWIDTH 13 0
BBX 13 12 0 -1
BITMAP
0C00
0600
FFF0
0600
0600
0600
7FE0
0600
0600
0600
0600
FFF0
ENDCHAR
STARTCHAR U_4E3C
ENCODING 20028
SWIDTH 1000 0
DWIDTH 13 0
BBX 13 12 0 -1
BITMAP
0CC0
0CC0
0CC0
7FF0
0CC0
0EC0
0FC0
FFF8
0CC0
0CC0
18C0
30C0
ENDCHAR
STARTCHAR U_4E3D
ENCODING 20029
SWIDTH 1000 0
DWIDTH 13 0
BBX 13 12 0 -1
BITMAP
0060
FFF0
0000
7FE0
6F60
6F60
7FE0
7FE0
6F60
6F60
6F60
7FE0
ENDCHAR
STARTCHAR U_4E3E
ENCODING 20030
SWIDTH 1000 0
DWIDTH 13 0
BBX 13 12 0 -1
BITMAP
6CC0
36C0
3780
FFF0
1980
36C0
7FF8
C630
0600
FFF0
0600
0600
ENDCHAR
STARTCHAR U_4E3F
ENCODING 20031
SWIDTH 1000 0
DWIDTH 13 0
BBX 13 12 0 -1
BITMAP
0180
0180
0180
0180
0180
0180
0180
0180
0300
0300
0600
0C00
ENDCHAR
STARTCHAR U_4E40
ENCODING 20032
SWIDTH 1000 0
DWIDTH 13 0
BBX 13 12 0 -1
BITMAP
0000
3000
3000
7800
D800
0C00
0600
0300
01C0
0078
0030
0000
ENDCHAR
STARTCHAR U_4E41
ENCODING 20033
SWIDTH 1000 0
DWIDTH 13 0
BBX 13 12 0 -1
BITMAP
0000
FFC0
00C0
00C0
00C0
00C0
00C0
0060
0060
0030
0030
0018
ENDCHAR
STARTCHAR U_4E42
ENCODING 20034
SWIDTH 1000 0
DWIDTH 13 0
BBX 13 12 0 -1
BITMAP
0060
1870
1860
18C0
0CC0
0CC0
0780
0300
0780
0CC0
1878
7030
ENDCHAR
STARTCHAR U_4E43
ENCODING 20035
SWIDTH 1000 0
DWIDTH 13 0
BBX 13 12 0 -1
BITMAP
7FE0
0C60
0CC0
0CC0
0D80
19F0
1830
1830
3030
3030
6360
C1C0
ENDCHAR
STARTCHAR U_4E44
ENCODING 20036
SWIDTH 1000 0
DWIDTH 13 0
BBX 13 12 0 -1
BITMAP
0030
0030
0030
0C60
0660
03C0
01C0
01E0
0370
C630
DC00
F000
ENDCHAR
STARTCHAR U_4E45
ENCODING 20037
SWIDTH 1000 0
DWIDTH 13 0
BBX 13 12 0 -1
BITMAP
0C00
0D80
1FC0
1980
3180
6300
0300
0780
0780
0CC0
3878
E030
ENDCHAR
STARTCHAR U_4E46
ENCODING 20038
SWIDTH 1000 0
DWIDTH 13 0
BBX 13 12 0 -1
BITMAP
1800
1980
1980
3180
3F00
0300
0300
0780
0CC0
1860
3038
E030
ENDCHAR
STARTCHAR U_4E47
ENCODING 20039
SWIDTH 1000 0
DWIDTH 13 0
BBX 13 12 0 -1
BITMAP
00E0
0380
7E00
0600
0600
07F0
FE00
0600
0600
0618
0618
03F8
ENDCHAR
STARTCHAR U_4E48
ENCODING 20040
SWIDTH 1000 0
DWIDTH 13 0
BBX 13 12 0 -1
BITMAP
0600
0600
0C00
0D80
1980
3300
6300
0600
0CC0
1860
3FF0
0030
ENDCHAR
STARTCHAR U_4E49
ENCODING 20041
SWIDTH 1000 0
DWIDTH 13 0
BBX 13 12 0 -1
BITMAP
0660
3360
3360
1860
18C0
0CC0
0D80
0780
0300
0780
1CE0
7038
ENDCHAR
STARTCHAR U_4E4A
ENCODING 20042
SWIDTH 1000 0
DWIDTH 13 0
BBX 13 12 0 -1
BITMAP
0000
00F0
0780
7C60
0070
6060
30C0
18C0
1980
0300
0000
0000
ENDCHAR
STARTCHAR U_4E4B
ENCODING 20043
SWIDTH 1000 0
DWIDTH 13 0
BBX 13 12 0 -1
BITMAP
0C00
0600
06C0
7FE0
0180
0300
0600
0C00
1800
7000
D800
CFF8
ENDCHAR
STARTCHAR U_4E4C
ENCODING 20044
SWIDTH 1000 0
DWIDTH 13 0
BBX 13 12 0 -1
BITMAP
0600
3FC0
30C0
30C0
33C0
3180
3FF0
0030
FFB0
0030
01B0
00E0
ENDCHAR
STARTCHAR U_4E4D
ENCODING 20045
SWIDTH 1000 0
DWIDTH 13 0
BBX 13 12 0 -1
BITMAP
1800
1830
1FF8
3600
6600
C7F0
0600
0600
07F0
0600
0600
0600
ENDCHAR
STARTCHAR U_4E4E
ENCODING 20046
SWIDTH 1000 0
DWIDTH 13 0
BBX 13 12 0 -1
BITMAP
01E0
7F00
06C0
36C0
1F80
0600
FFF8
0600
0600
0600
1E00
0C00
ENDCHAR
STARTCHAR U_4E4F
ENCODING 20047
SWIDTH 1000 0
DWIDTH 13 0
BBX 13 12 0 -1
BITMAP
07E0
FC00
0C00
0600
7FC0
0180
0300
0600
0C00
3800
7800
CFF0
ENDCHAR
STARTCHAR U_4E50
ENCODING 20048
SWIDTH 1000 0
DWIDTH 13 0
BBX 13 12 0 -1
BITMAP
07C0
7C00
6600
6600
6600
7FF0
0600
1F80
36C0
6670
DE30
0C00
ENDCHAR
STARTCHAR U_4E51
ENCODING 20049
SWIDTH 1000 0
DWIDTH 13 0
BBX 13 12 0 -1
BITMAP
01F0
7F00
0300
1B60
1BC0
3380
6F00
CF80
1BC0
3378
E330
0300
ENDCHAR
STARTCHAR U_4E52
ENCODING 20050
SWIDTH 1000 0
DWIDTH 13 0
BBX 13 12 0 -1
BITMAP
01C0
1F00
1800
1800
1FF0
18C0
18C0
FFF8
0000
1800
3000
E000
ENDCHAR
STARTCHAR U_4E53
ENCODING 20051
SWIDTH 1000 0
DWIDTH 13 0
BBX 13 12 0 -1
BITMAP
01C0
3F00
3000
3000
3FF0
3300
3300
FFF8
0000
0180
00C0
0070
ENDCHAR
STARTCHAR U_4E54
ENCODING 20052
SWIDTH 1000 0
DWIDTH 13 0
BBX 13 12 0 -1
BITMAP
01E0
7F00
0C30
FFF8
1980
30C0
79F8
D980
1980
1980
3180
6180
ENDCHAR
STARTCHAR U_4E55
ENCODING 20053
SWIDTH 1000 0
DWIDTH 13 0
BBX 13 12 0 -1
BITMAP
00F0
7F80
6300
7FF0
6300
7FF8
6300
7FF0
7B30
7B30
DB70
C300
ENDCHAR
STARTCHAR U_4E56
ENCODING 20054
SWIDTH 1000 0
DWIDTH 13 0
BBX 13 12 0 -1
BITMAP
01E0
7F00
0630
FFF8
1F80
FFB0
1FE0
1F80
3FB0
FEF0
0600
0600
ENDCHAR
STARTCHAR U_4E57
ENCODING 20055
SWIDTH 1000 0
DWIDTH 13 0
BBX 13 12 0 -1
BITMAP
00F0
7F80
0600
7FF0
1EC0
FFF8
1EC0
7FF0
0F80
1EC0
3660
E638
ENDCHAR
STARTCHAR U_4E58
ENCODING 20056
SWIDTH 1000 0
DWIDTH 13 0
BBX 13 12 0 -1
BITMAP
03C0
7E00
0600
FFF8
1FB0
FFE0
1FB0
FFF0
1F80
36C0
E678
0630
ENDCHAR
STARTCHAR U_4E59
ENCODING 20057
SWIDTH 1000 0
DWIDTH 13 0
BBX 13 12 0 -1
BITMAP
0000
3FE0
00C0
0180
0300
0600
0C00
1800
3000
6018
6018
3FF8
ENDCHAR
STARTCHAR U_4E5A
ENCODING 20058
SWIDTH 1000 0
DWIDTH 13 0
BBX 13 12 0 -1
BITMAP
3000
3000
3000
3000
3000
3000
3000
3000
3060
3060
3060
1FE0
ENDCHAR
STARTCHAR U_4E5B
ENCODING 20059
SWIDTH 1000 0
DWIDTH 13 0
BBX 13 12 0 -1
BITMAP
0000
0030
FFF8
0030
0060
0000
0000
0000
0000
0000
0000
0000
ENDCHAR
STARTCHAR U_4E5C
ENCODING 20060
SWIDTH 1000 0
DWIDTH 13 0
BBX 13 12 0 -1
BITMAP
1800
1800
1860
19F0
1F60
FC60
1860
19E0
18C0
1818
1818
0FF8
ENDCHAR
STARTCHAR U_4E5D
ENCODING 20061
SWIDTH 1000 0
DWIDTH 13 0
BBX 13 12 0 -1
BITMAP
0C00
0C00
0CC0
FFE0
0CC0
0CC0
0CC0
0CC0
18C0
18D8
30D8
E078
ENDCHAR
STARTCHAR U_4E5E
ENCODING 20062
SWIDTH 1000 0
DWIDTH 13 0
BBX 13 12 0 -1
BITMAP
3000
3000
3FE0
6000
C000
3F80
0600
0C00
1800
3030
3030
1FF0
ENDCHAR
STARTCHAR U_4E5F
ENCODING 20063
SWIDTH 1000 0
DWIDTH 13 0
BBX 13 12 0 -1
BITMAP
0300
0300
1B30
1BF0
1FB0
7B30
1BF0
1B60
1B00
1818
1818
0FF8
ENDCHAR
STARTCHAR U_4E60
ENCODING 20064
SWIDTH 1000 0
DWIDTH 13 0
BBX 13 12 0 -1
BITMAP
0060
FFF0
0060
3060
1860
1860
0360
0660
1C60
F060
6060
01C0
ENDCHAR
STARTCHAR U_4E61
ENCODING 20065
SWIDTH 1000 0
DWIDTH 13 0
BBX 13 12 0 -1
BITMAP
0300
0300
0660
0CC0
1F80
0600
0C30
1FE0
00C0
0180
0F00
7800
ENDCHAR
STARTCHAR U_4E62
ENCODING 20066
SWIDTH 1000 0
DWIDTH 13 0
BBX 13 12 0 -1
BITMAP
0000
1980
1980
7F80
7F80
7F80
7F80
7F80
7F80
7F98
7F98
60F8
ENDCHAR
STARTCHAR U_4E63
ENCODING 20067
SWIDTH 1000 0
DWIDTH 13 0
BBX 13 12 0 -1
BITMAP
1980
1980
3180
6780
7F80
0D80
1980
1980
3198
6D98
7F98
06F8
ENDCHAR
STARTCHAR U_4E64
ENCODING 20068
SWIDTH 1000 0
DWIDTH 13 0
BBX 13 12 0 -1
BITMAP
FFF8
0600
06C0
0670
0630
FFE0
00C0
0380
0E00
3818
6018
3FF8
ENDCHAR
STARTCHAR U_4E65
ENCODING 20069
SWIDTH 1000 0
DWIDTH 13 0
BBX 13 12 0 -1
BITMAP
01F0
FF60
60C0
3180
0000
FFE0
00C0
0380
1E00
7030
C030
7FF0
ENDCHAR
STARTCHAR U_4E66
ENCODING 20070
SWIDTH 1000 0
DWIDTH 13 0
BBX 13 12 0 -1
BITMAP
0660
0638
7FF8
0660
0660
0660
FFF8
0618
0618
06F0
0660
0600
ENDCHAR
STARTCHAR U_4E67
ENCODING 20071
SWIDTH 1000 0
DWIDTH 13 0
BBX 13 12 0 -1
BITMAP
0180
0D80
3780
19F8
FF80
0180
7FF0
00E0
0780
1C18
3018
3FF8
ENDCHAR
STARTCHAR U_4E68
ENCODING 20072
SWIDTH 1000 0
DWIDTH 13 0
BBX 13 12 0 -1
BITMAP
18C0
18C0
30C0
66C0
FFC0
03C0
7EC0
66C0
66C0
66D8
7ED8
6678
ENDCHAR
STARTCHAR U_4E69
ENCODING 20073
SWIDTH 1000 0
DWIDTH 13 0
BBX 13 12 0 -1
BITMAP
30C0
30C0
36C0
3FC0
30C0
30C0
FEC0
C6C0
C6C0
C6D8
FED8
C678
ENDCHAR
STARTCHAR U_4E6A
ENCODING 20074
SWIDTH 1000 0
DWIDTH 13 0
BBX 13 12 0 -1
BITMAP
F800
1FE0
1FE0
37E0
37E0
37E0
67E0
67E0
67E0
C7F8
C018
7FF8
ENDCHAR
STARTCHAR U_4E6B
ENCODING 20075
SWIDTH 1000 0
DWIDTH 13 0
BBX 13 12 0 -1
BITMAP
3000
FFF8
3798
3798
7FF8
CC00
7FF0
01C0
0F00
3818
6018
3FF8
ENDCHAR
STARTCHAR U_4E6C
ENCODING 20076
SWIDTH 1000 0
DWIDTH 13 0
BBX 13 12 0 -1
BITMAP
7FF0
6000
7FE0
6060
7FE0
6000
FFF8
01C0
0F00
3800
6018
3FF8
ENDCHAR
STARTCHAR U_4E6D
ENCODING 20077
SWIDTH 1000 0
DWIDTH 13 0
BBX 13 12 0 -1
BITMAP
FFF8
0C00
1FF0
3C30
EFF0
0000
FFF0
00E0
0780
3C18
6018
3FF8
ENDCHAR
STARTCHAR U_4E6E
ENCODING 20078
SWIDTH 1000 0
DWIDTH 13 0
BBX 13 12 0 -1
BITMAP
0FF0
79B0
67B0
7FB0
77F0
0D80
7800
FFE0
0380
3E00
6018
3FF8
ENDCHAR
STARTCHAR U_4E6F
ENCODING 20079
SWIDTH 1000 0
DWIDTH 13 0
BBX 13 12 0 -1
BITMAP
01F0
7F60
1BC0
FFF0
0300
0F00
0600
7FE0
01C0
1F18
3018
3FF8
ENDCHAR
STARTCHAR U_4E70
ENCODING 20080
SWIDTH 1000 0
DWIDTH 13 0
BBX 13 12 0 -1
BITMAP
7FF8
0030
1B60
0F00
3300
1B00
FFF8
0300
0780
0CC0
3878
E030
ENDCHAR
STARTCHAR U_4E71
ENCODING 20081
SWIDTH 1000 0
DWIDTH 13 0
BBX 13 12 0 -1
BITMAP
0EC0
78C0
18C0
18C0
FFC0
18C0
18C0
7EC0
66C0
66D8
7ED8
6678
ENDCHAR
STARTCHAR U_4E72
ENCODING 20082
SWIDTH 1000 0
DWIDTH 13 0
BBX 13 12 0 -1
BITMAP
6600
37F0
0DB0
3380
66C0
0C60
7FF0
0060
07C0
3C00
6030
7FF0
ENDCHAR
STARTCHAR U_4E73
ENCODING 20083
SWIDTH 1000 0
DWIDTH 13 0
BBX 13 12 0 -1
BITMAP
0F80
FF80
DF80
6D80
FF80
0D80
1980
1F80
F980
1998
7998
30F8
ENDCHAR
STARTCHAR U_4E74
ENCODING 20084
SWIDTH 1000 0
DWIDTH 13 0
BBX 13 12 0 -1
BITMAP
1870
FFC0
1B00
FFF8
1B60
3660
FFE0
00C0
0780
3C30
6030
7FF0
ENDCHAR
STARTCHAR U_4E75
ENCODING 20085
SWIDTH 1000 0
DWIDTH 13 0
BBX 13 12 0 -1
BITMAP
30C0
18C0
FFC0
66C0
3CC0
FFC0
18C0
18C0
7EC0
18D8
18D8
1878
ENDCHAR
STARTCHAR U_4E76
ENCODING 20086
SWIDTH 1000 0
DWIDTH 13 0
BBX 13 12 0 -1
BITMAP
03C0
FFF8
3360
3FE0
3360
3FE0
3360
FFF0
01C0
1F18
3018
3FF8
ENDCHAR
STARTCHAR U_4E77
ENCODING 20087
SWIDTH 1000 0
DWIDTH 13 0
BBX 13 12 0 -1
BITMAP
60C0
33F0
C3D8
7EF0
31E0
EF00
0000
FFF0
01C0
3F00
6018
3FF8
ENDCHAR
STARTCHAR U_4E78
ENCODING 20088
SWIDTH 1000 0
DWIDTH 13 0
BBX 13 12 0 -1
BITMAP
3000
33F0
3F30
FFF0
FFF0
FFF8
FF30
FFF0
CFF0
DBF8
C078
7FF8
ENDCHAR
STARTCHAR U_4E79
ENCODING 20089
SWIDTH 1000 0
DWIDTH 13 0
BBX 13 12 0 -1
BITMAP
1980
7F80
1980
7F80
6780
7F80
6780
7F98
1998
FF98
1998
18F8
ENDCHAR
STARTCHAR U_4E7A
ENCODING 20090
SWIDTH 1000 0
DWIDTH 13 0
BBX 13 12 0 -1
BITMAP
3CF0
6380
7F00
6FF8
7F60
6660
CC60
7FE0
0380
1E00
3018
1FF8
ENDCHAR
STARTCHAR U_4E7B
ENCODING 20091
SWIDTH 1000 0
DWIDTH 13 0
BBX 13 12 0 -1
BITMAP
1860
FF60
30F0
3F98
3770
66C0
CC70
7FC0
0180
0F18
1818
0FF8
ENDCHAR
STARTCHAR U_4E7C
ENCODING 20092
SWIDTH 1000 0
DWIDTH 13 0
BBX 13 12 0 -1
BITMAP
60C0
37F8
C0C0
7BF0
30C0
EFF8
6000
FFF0
00C0
0F98
1818
0FF8
ENDCHAR
STARTCHAR U_4E7D
ENCODING 20093
SWIDTH 1000 0
DWIDTH 13 0
BBX 13 12 0 -1
BITMAP
0600
3FF0
06C0
FFF8
07B0
3EF0
E7F0
0000
7FC0
0E18
1818
1FF8
ENDCHAR
STARTCHAR U_4E7E
ENCODING 20094
SWIDTH 1000 0
DWIDTH 13 0
BBX 13 12 0 -1
BITMAP
18C0
FFC0
18F8
7F80
66F0
7E30
6660
7E60
18C0
FF98
1998
18F8
ENDCHAR
STARTCHAR U_4E7F
ENCODING 20095
SWIDTH 1000 0
DWIDTH 13 0
BBX 13 12 0 -1
BITMAP
0F80
F980
3780
DF80
3D80
6780
FD80
6780
FF80
1998
7F98
FBF8
ENDCHAR
STARTCHAR U_4E80
ENCODING 20096
SWIDTH 1000 0
DWIDTH 13 0
BBX 13 12 0 -1
BITMAP
1FC0
3180
FFE0
6660
7FE0
6660
FFF0
C630
C630
FFF0
0618
07F8
ENDCHAR
STARTCHAR U_4E81
ENCODING 20097
SWIDTH 1000 0
DWIDTH 13 0
BBX 13 12 0 -1
BITMAP
18C0
FFC0
19F8
7F80
6700
7FF0
6630
7E60
18C0
FF98
1998
18F8
ENDCHAR
STARTCHAR U_4E82
ENCODING 20098
SWIDTH 1000 0
DWIDTH 13 0
BBX 13 12 0 -1
BITMAP
07C0
FCC0
7BC0
3EC0
FFC0
36C0
FFC0
FFC0
FFD8
FFD8
DBD8
FF78
ENDCHAR
STARTCHAR U_4E83
ENCODING 20099
SWIDTH 1000 0
DWIDTH 13 0
BBX 13 12 0 -1
BITMAP
DBC0
7EC0
FFC0
3CC0
7EC0
DBC0
63C0
7FC0
FFD8
7FD8
63D8
C378
ENDCHAR
STARTCHAR U_4E84
ENCODING 20100
SWIDTH 1000 0
DWIDTH 13 0
BBX 13 12 0 -1
BITMAP
18C0
FFC0
18C0
7EC0
00C0
FFC0
C3C0
7EC0
66D8
7ED8
3CD8
FF78
ENDCHAR
STARTCHAR U_4E85
ENCODING 20101
SWIDTH 1000 0
DWIDTH 13 0
BBX 13 12 0 -1
BITMAP
0300
0300
0300
0300
0300
0300
0300
0300
0300
0300
0F00
0600
ENDCHAR
STARTCHAR U_4E86
ENCODING 20102
SWIDTH 1000 0
DWIDTH 13 0
BBX 13 12 0 -1
BITMAP
7FF0
0060
00C0
0380
0300
0300
0300
0300
0300
0300
0F00
0600
ENDCHAR
STARTCHAR U_4E87
ENCODING 20103
SWIDTH 1000 0
DWIDTH 13 0
BBX 13 12 0 -1
BITMAP
1800
1800
1FF8
3330
6360
C300
0300
0300
0300
0300
0F00
0600
ENDCHAR
STARTCHAR U_4E88
ENCODING 20104
SWIDTH 1000 0
DWIDTH 13 0
BBX 13 12 0 -1
BITMAP
7FC0
0180
1F00
0600
FFF0
0660
06C0
0600
0600
0600
1E00
0C00
ENDCHAR
STARTCHAR U_4E89
ENCODING 20105
SWIDTH 1000 0
DWIDTH 13 0
BBX 13 12 0 -1
BITMAP
1800
1F80
3300
7FE0
0660
FFF8
0660
7FE0
0600
0600
1E00
0C00
ENDCHAR
STARTCHAR U_4E8A
ENCODING 20106
SWIDTH 1000 0
DWIDTH 13 0
BBX 13 12 0 -1
BITMAP
0600
FFF8
36C0
1F80
7FE0
0660
FFF8
0660
7FE0
0600
1E00
0C00
ENDCHAR
STARTCHAR U_4E8B
ENCODING 20107
SWIDTH 1000 0
DWIDTH 13 0
BBX 13 12 0 -1
BITMAP
0600
FFF8
0600
3FC0
36C0
7FE0
0660
FFF8
0660
7FE0
0600
0E00
ENDCHAR
STARTCHAR U_4E8C
ENCODING 20108
SWIDTH 1000 0
DWIDTH 13 0
BBX 13 12 0 -1
BITMAP
0000
0060
7FF0
0000
0000
0000
0000
0000
0000
0030
FFF8
0000
ENDCHAR
STARTCHAR U_4E8D
ENCODING 20109
SWIDTH 1000 0
DWIDTH 13 0
BBX 13 12 0 -1
BITMAP
3FE0
0000
0000
0000
FFF8
0300
0300
0300
0300
0300
0F00
0600
ENDCHAR
STARTCHAR U_4E8E
ENCODING 20110
SWIDTH 1000 0
DWIDTH 13 0
BBX 13 12 0 -1
BITMAP
7FE0
0600
0600
0600
0600
FFF0
0600
0600
0600
0600
1E00
0C00
ENDCHAR
STARTCHAR U_4E8F
ENCODING 20111
SWIDTH 1000 0
DWIDTH 13 0
BBX 13 12 0 -1
BITMAP
3FC0
0000
0000
FFF8
0C00
1800
3FE0
0060
0060
0060
06C0
0380
ENDCHAR
STARTCHAR U_4E90
ENCODING 20112
SWIDTH 1000 0
DWIDTH 13 0
BBX 13 12 0 -1
BITMAP
3FF0
0C00
0C00
FFF8
1800
1800
1FE0
0060
0060
0060
06C0
0380
ENDCHAR
STARTCHAR U_4E91
ENCODING 20113
SWIDTH 1000 0
DWIDTH 13 0
BBX 13 12 0 -1
BITMAP
3FE0
0000
0000
0000
FFF8
0C00
1800
1980
30C0
7FE0
3060
0000
ENDCHAR
STARTCHAR U_4E92
ENCODING 20114
SWIDTH 1000 0
DWIDTH 13 0
BBX 13 12 0 -1
BITMAP
FFF0
1800
1800
1FE0
18C0
30C0
30C0
7F80
0180
0180
0180
FFF0
ENDCHAR
STARTCHAR U_4E93
ENCODING 20115
SWIDTH 1000 0
DWIDTH 13 0
BBX 13 12 0 -1
BITMAP
3FE0
0000
0000
0000
FFF8
18C0
18C0
18C0
18C0
30C0
30C0
60C0
ENDCHAR
STARTCHAR U_4E94
ENCODING 20116
SWIDTH 1000 0
DWIDTH 13 0
BBX 13 12 0 -1
BITMAP
7FF0
0C00
0C00
0C00
0C00
7FC0
0CC0
0CC0
18C0
18C0
18C0
FFF8
ENDCHAR
STARTCHAR U_4E95
ENCODING 20117
SWIDTH 1000 0
DWIDTH 13 0
BBX 13 12 0 -1
BITMAP
1980
1980
1980
FFF0
1980
1980
1980
FFF0
1980
3180
3180
6180
ENDCHAR
STARTCHAR U_4E96
ENCODING 20118
SWIDTH 1000 0
DWIDTH 13 0
BBX 13 12 0 -1
BITMAP
0000
3FF0
0000
0000
FFF8
0000
0000
3FF0
0000
0000
0000
FFF8
ENDCHAR
STARTCHAR U_4E97
ENCODING 20119
SWIDTH 1000 0
DWIDTH 13 0
BBX 13 12 0 -1
BITMAP
0300
0300
3360
3360
3FE0
0000
0000
3FE0
0000
0000
0000
FFF8
ENDCHAR
STARTCHAR U_4E98
ENCODING 20120
SWIDTH 1000 0
DWIDTH 13 0
BBX 13 12 0 -1
BITMAP
FFF0
0000
3FC0
30C0
30C0
3FC0
30C0
30C0
3FC0
30C0
0000
FFF0
ENDCHAR
STARTCHAR U_4E99
ENCODING 20121
SWIDTH 1000 0
DWIDTH 13 0
BBX 13 12 0 -1
BITMAP
0000
7FF8
0C00
0C00
0FC0
18C0
1EC0
33C0
3D80
0780
0180
7FF8
ENDCHAR
STARTCHAR U_4E9A
ENCODING 20122
SWIDTH 1000 0
DWIDTH 13 0
BBX 13 12 0 -1
BITMAP
FFF0
1B00
1B00
1B00
DB60
7B60
7BC0
1B00
1B00
1B00
FFF0
0000
ENDCHAR
STARTCHAR U_4E9B
ENCODING 20123
SWIDTH 1000 0
DWIDTH 13 0
BBX 13 12 0 -1
BITMAP
1B00
1B30
7F60
7BC0
7B30
7F30
F1F0
0000
3FC0
0000
0000
FFF0
ENDCHAR
STARTCHAR U_4E9C
ENCODING 20124
SWIDTH 1000 0
DWIDTH 13 0
BBX 13 12 0 -1
BITMAP
FFF8
0D80
0D80
7FF0
6DB0
6DB0
7FF0
0D80
0D80
0D80
0D80
FFF8
ENDCHAR
STARTCHAR U_4E9D
ENCODING 20125
SWIDTH 1000 0
DWIDTH 13 0
BBX 13 12 0 -1
BITMAP
0600
0CC0
1FE0
0000
3060
6CD8
FFF8
0018
3FE0
0000
0000
FFF8
ENDCHAR
STARTCHAR U_4E9E
ENCODING 20126
SWIDTH 1000 0
DWIDTH 13 0
BBX 13 12 0 -1
BITMAP
0000
FFF8
0D80
0D80
7DF0
6030
6030
6030
7DF0
0D80
0D80
FFF8
ENDCHAR
STARTCHAR U_4E9F
ENCODING 20127
SWIDTH 1000 0
DWIDTH 13 0
BBX 13 12 0 -1
BITMAP
7FE0
0180
0300
7FF0
7FB0
7FE0
7EC0
7EC0
07F0
1F30
0C00
FFF8
ENDCHAR
STARTCHAR U_4EA0
ENCODING 20128
SWIDTH 1000 0
DWIDTH 13 0
BBX 13 12 0 -1
BITMAP
0600
0300
0300
FFF8
0000
0000
0000
0000
0000
0000
0000
0000
ENDCHAR
STARTCHAR U_4EA1
ENCODING 20129
SWIDTH 1000 0
DWIDTH 13 0
BBX 13 12 0 -1
BITMAP
0C00
0700
0300
FFF8
1800
1800
1800
1800
1800
1800
1800
1FF0
ENDCHAR
STARTCHAR U_4EA2
ENCODING 20130
SWIDTH 1000 0
DWIDTH 13 0
BBX 13 12 0 -1
BITMAP
0C00
0600
FFF8
0000
1F80
1980
1980
1980
1980
31B0
61B0
C0F0
ENDCHAR
STARTCHAR U_4EA3
ENCODING 20131
SWIDTH 1000 0
DWIDTH 13 0
BBX 13 12 0 -1
BITMAP
0C00
0600
0600
FFF8
1980
1980
1980
1980
3180
3180
6180
C180
ENDCHAR
STARTCHAR U_4EA4
ENCODING 20132
SWIDTH 1000 0
DWIDTH 13 0
BBX 13 12 0 -1
BITMAP
0C00
0600
FFF0
1980
30C0
61E0
DB00
0F00
0600
0F00
19C0
F078
ENDCHAR
STARTCHAR U_4EA5
ENCODING 20133
SWIDTH 1000 0
DWIDTH 13 0
BBX 13 12 0 -1
BITMAP
0C00
0660
FFF0
0C00
1980
3F00
06C0
0D80
1B00
F780
0CE0
7830
ENDCHAR
STARTCHAR U_4EA6
ENCODING 20134
SWIDTH 1000 0
DWIDTH 13 0
BBX 13 12 0 -1
BITMAP
0C00
0600
FFF8
0D80
0D80
3DE0
6DB0
CDB0
1980
1980
3780
6300
ENDCHAR
STARTCHAR U_4EA7
ENCODING 20135
SWIDTH 1000 0
DWIDTH 13 0
BBX 13 12 0 -1
BITMAP
0600
0300
7FF8
0CC0
0780
3FF8
3000
3000
3000
6000
6000
C000
ENDCHAR
STARTCHAR U_4EA8
ENCODING 20136
SWIDTH 1000 0
DWIDTH 13 0
BBX 13 12 0 -1
BITMAP
0600
FFF0
0000
3FC0
30C0
3FC0
0000
7FC0
0300
0600
1E00
0C00
ENDCHAR
STARTCHAR U_4EA9
ENCODING 20137
SWIDTH 1000 0
DWIDTH 13 0
BBX 13 12 0 -1
BITMAP
0600
0300
FFF8
0000
3FE0
3360
3360
3FE0
3360
3360
3FE0
3060
ENDCHAR
STARTCHAR U_4EAA
ENCODING 20138
SWIDTH 1000 0
DWIDTH 13 0
BBX 13 12 0 -1
BITMAP
0600
FFF8
18C0
78F0
D8D8
33D8
E180
0000
7FC0
00C0
0060
0038
ENDCHAR
STARTCHAR U_4EAB
ENCODING 20139
SWIDTH 1000 0
DWIDTH 13 0
BBX 13 12 0 -1
BITMAP
0600
FFF0
0000
3FC0
30C0
3FC0
0000
7FC0
0300
FFF0
0600
1E00
ENDCHAR
STARTCHAR U_4EAC
ENCODING 20140
SWIDTH 1000 0
DWIDTH 13 0
BBX 13 12 0 -1
BITMAP
0600
FFF0
0000
3FC0
30C0
30C0
3FC0
0600
3780
66C0
DE60
0C00
ENDCHAR
STARTCHAR U_4EAD
ENCODING 20141
SWIDTH 1000 0
DWIDTH 13 0
BBX 13 12 0 -1
BITMAP
0600
FFF8
18C0
1FC0
0000
7FF8
6018
FFF0
0300
0300
0F00
0600
ENDCHAR
STARTCHAR U_4EAE
ENCODING 20142
SWIDTH 1000 0
DWIDTH 13 0
BBX 13 12 0 -1
BITMAP
0600
FFF8
1860
1FE0
0000
7FF8
6018
6FD8
0CC0
0CD8
18D8
7078
ENDCHAR
STARTCHAR U_4EAF
ENCODING 20143
SWIDTH 1000 0
DWIDTH 13 0
BBX 13 12 0 -1
BITMAP
0300
FFF8
0000
1FE0
1860
1FE0
0000
3FF0
3030
3FF0
3030
3FF0
ENDCHAR
STARTCHAR U_4EB0
ENCODING 20144
SWIDTH 1000 0
DWIDTH 13 0
BBX 13 12 0 -1
BITMAP
0300
FFF8
0000
3FE0
3060
3FE0
3060
3FE0
0300
3360
6F30
C618
ENDCHAR
STARTCHAR U_4EB1
ENCODING 20145
SWIDTH 1000 0
DWIDTH 13 0
BBX 13 12 0 -1
BITMAP
0C00
0600
FFF8
0000
1FF0
1E30
37F0
7630
F7F0
3630
3000
3FF8
ENDCHAR
STARTCHAR U_4EB2
ENCODING 20146
SWIDTH 1000 0
DWIDTH 13 0
BBX 13 12 0 -1
BITMAP
0300
7FF0
18C0
0D80
FFF8
0300
0300
7FF0
1BC0
3360
6F38
0600
ENDCHAR
STARTCHAR U_4EB3
ENCODING 20147
SWIDTH 1000 0
DWIDTH 13 0
BBX 13 12 0 -1
BITMAP
0300
FFF8
0000
1FC0
18C0
FFF8
C018
3FC0
0600
7FE0
0600
03F8
ENDCHAR
STARTCHAR U_4EB4
ENCODING 20148
SWIDTH 1000 0
DWIDTH 13 0
BBX 13 12 0 -1
BITMAP
0600
FFF8
1980
1F80
0000
FFF8
C618
3FE0
0600
7FE0
0C78
F878
ENDCHAR
STARTCHAR U_4EB5
ENCODING 20149
SWIDTH 1000 0
DWIDTH 13 0
BBX 13 12 0 -1
BITMAP
0600
FFF0
3180
FFE0
37E0
FBF8
36F8
7E18
1B60
F9C0
1EC0
3C78
ENDCHAR
STARTCHAR U_4EB6
ENCODING 20150
SWIDTH 1000 0
DWIDTH 13 0
BBX 13 12 0 -1
BITMAP
0600
FFF8
3060
3FE0
3DE0
3FE0
0000
1FC0
18C0
1FC0
18C0
FFF8
ENDCHAR
STARTCHAR U_4EB7
ENCODING 20151
SWIDTH 1000 0
DWIDTH 13 0
BBX 13 12 0 -1
BITMAP
0180
7FF8
0660
3FF8
33C0
3FF0
33F0
3FF8
33F0
3FF0
67E0
7FF8
ENDCHAR
STARTCHAR U_4EB8
ENCODING 20152
SWIDTH 1000 0
DWIDTH 13 0
BBX 13 12 0 -1
BITMAP
3330
FDE0
7FF8
7ED8
07F8
FED8
1FF8
30C0
3FF8
F0C0
30C0
70C0
ENDCHAR
STARTCHAR U_4EB9
ENCODING 20153
SWIDTH 1000 0
DWIDTH 13 0
BBX 13 12 0 -1
BITMAP
0300
FFF8
0000
3FF0
37B0
3FF0
37B0
FFF8
D860
1FE0
1860
FFF8
ENDCHAR
STARTCHAR U_4EBA
ENCODING 20154
SWIDTH 1000 0
DWIDTH 13 0
BBX 13 12 0 -1
BITMAP
0600
0600
0600
0600
0600
0600
0F00
0F00
1980
30C0
6078
C030
ENDCHAR
STARTCHAR U_4EBB
ENCODING 20155
SWIDTH 1000 0
DWIDTH 13 0
BBX 13 12 0 -1
BITMAP
1800
1800
3000
3000
7000
F000
3000
3000
3000
3000
3000
3000
ENDCHAR
STARTCHAR U_4EBC
ENCODING 20156
SWIDTH 1000 0
DWIDTH 13 0
BBX 13 12 0 -1
BITMAP
0300
0300
0300
0780
0780
0CC0
0CC0
1860
3038
0000
7FF8
0000
ENDCHAR
STARTCHAR U_4EBD
ENCODING 20157
SWIDTH 1000 0
DWIDTH 13 0
BBX 13 12 0 -1
BITMAP
0600
0600
0F00
0D80
18C0
3060
EC38
0630
0380
0180
0000
0000
ENDCHAR
STARTCHAR U_4EBE
ENCODING 20158
SWIDTH 1000 0
DWIDTH 13 0
BBX 13 12 0 -1
BITMAP
0300
C300
C300
C300
C780
C780
CCC0
CCC0
D860
F038
C000
FFF8
ENDCHAR
STARTCHAR U_4EBF
ENCODING 20159
SWIDTH 1000 0
DWIDTH 13 0
BBX 13 12 0 -1
BITMAP
1800
1FF0
3060
30C0
7180
F300
3300
3600
3600
3C18
3C18
37F8
ENDCHAR
STARTCHAR U_4EC0
ENCODING 20160
SWIDTH 1000 0
DWIDTH 13 0
BBX 13 12 0 -1
BITMAP
1980
1980
3180
3180
7FF8
F180
3180
3180
3180
3180
3180
3180
ENDCHAR
STARTCHAR U_4EC1
ENCODING 20161
SWIDTH 1000 0
DWIDTH 13 0
BBX 13 12 0 -1
BITMAP
1800
1800
37F0
3000
7000
F000
3000
3000
3000
3030
3FF8
3000
ENDCHAR
STARTCHAR U_4EC2
ENCODING 20162
SWIDTH 1000 0
DWIDTH 13 0
BBX 13 12 0 -1
BITMAP
1980
1980
3180
3FF8
3198
7198
F198
3198
3318
3318
36F0
3C60
ENDCHAR
STARTCHAR U_4EC3
ENCODING 20163
SWIDTH 1000 0
DWIDTH 13 0
BBX 13 12 0 -1
BITMAP
1800
1FF8
30C0
30C0
70C0
F0C0
30C0
30C0
30C0
30C0
33C0
3180
ENDCHAR
STARTCHAR U_4EC4
ENCODING 20164
SWIDTH 1000 0
DWIDTH 13 0
BBX 13 12 0 -1
BITMAP
3FF8
3300
3300
3300
3300
3300
3300
3780
3780
76C0
6C78
D830
ENDCHAR
STARTCHAR U_4EC5
ENCODING 20165
SWIDTH 1000 0
DWIDTH 13 0
BBX 13 12 0 -1
BITMAP
1800
1FF0
1E30
3660
3660
7660
F3C0
33C0
3180
33C0
3660
3C38
ENDCHAR
STARTCHAR U_4EC6
ENCODING 20166
SWIDTH 1000 0
DWIDTH 13 0
BBX 13 12 0 -1
BITMAP
0D80
0D80
0D80
1980
19C0
39E0
79B8
D998
1980
1980
1980
1980
ENDCHAR
STARTCHAR U_4EC7
ENCODING 20167
SWIDTH 1000 0
DWIDTH 13 0
BBX 13 12 0 -1
BITMAP
1B00
1B00
3300
3FE0
7360
F360
3360
3360
3660
3678
3C78
3838
ENDCHAR
STARTCHAR U_4EC8
ENCODING 20168
SWIDTH 1000 0
DWIDTH 13 0
BBX 13 12 0 -1
BITMAP
1800
18C0
33C0
33C0
73C0
F3C0
3360
3360
3660
3630
3C30
3818
ENDCHAR
STARTCHAR U_4EC9
ENCODING 20169
SWIDTH 1000 0
DWIDTH 13 0
BBX 13 12 0 -1
BITMAP
1800
1BE0
3360
3360
7360
F360
3360
3360
3660
3678
3C78
3838
ENDCHAR
STARTCHAR U_4ECA
ENCODING 20170
SWIDTH 1000 0
DWIDTH 13 0
BBX 13 12 0 -1
BITMAP
0600
0600
0F00
1980
3CC0
E670
0000
7FC0
0180
0300
0300
0600
ENDCHAR
STARTCHAR U_4ECB
ENCODING 20171
SWIDTH 1000 0
DWIDTH 13 0
BBX 13 12 0 -1
BITMAP
0600
0F00
1980
30C0
6060
D9B8
1980
1980
1980
3180
3180
6180
ENDCHAR
STARTCHAR U_4ECC
ENCODING 20172
SWIDTH 1000 0
DWIDTH 13 0
BBX 13 12 0 -1
BITMAP
0300
0300
0780
06C0
0C60
1B30
3330
6780
06C0
0C60
1830
7018
ENDCHAR
STARTCHAR U_4ECD
ENCODING 20173
SWIDTH 1000 0
DWIDTH 13 0
BBX 13 12 0 -1
BITMAP
1FF0
1B30
3330
3360
7360
F3F8
3318
3318
3618
3618
36F0
3C60
ENDCHAR
STARTCHAR U_4ECE
ENCODING 20174
SWIDTH 1000 0
DWIDTH 13 0
BBX 13 12 0 -1
BITMAP
1980
1980
1980
1980
1980
1980
3D80
37C0
33C0
6660
CC30
1818
ENDCHAR
STARTCHAR U_4ECF
ENCODING 20175
SWIDTH 1000 0
DWIDTH 13 0
BBX 13 12 0 -1
BITMAP
18C0
18C0
30C0
7180
F180
3300
3300
3660
3630
3C18
3FF8
3018
ENDCHAR
STARTCHAR U_4ED0
ENCODING 20176
SWIDTH 1000 0
DWIDTH 13 0
BBX 13 12 0 -1
BITMAP
0300
0300
0780
0CC0
1B60
3330
E318
0300
3FF0
0300
0300
0300
ENDCHAR
STARTCHAR U_4ED1
ENCODING 20177
SWIDTH 1000 0
DWIDTH 13 0
BBX 13 12 0 -1
BITMAP
0600
0700
0D80
18C0
3060
F838
19C0
1F00
1C00
1860
1860
0FE0
ENDCHAR
STARTCHAR U_4ED2
ENCODING 20178
SWIDTH 1000 0
DWIDTH 13 0
BBX 13 12 0 -1
BITMAP
0600
0600
0F00
0D80
18C0
3060
EE38
0380
0180
1C00
0700
0180
ENDCHAR
STARTCHAR U_4ED3
ENCODING 20179
SWIDTH 1000 0
DWIDTH 13 0
BBX 13 12 0 -1
BITMAP
0600
0700
0D80
18C0
3060
FFF8
18C0
1EC0
1B80
1830
1830
0FF0
ENDCHAR
STARTCHAR U_4ED4
ENCODING 20180
SWIDTH 1000 0
DWIDTH 13 0
BBX 13 12 0 -1
BITMAP
1FF8
1830
3060
30C0
70C0
FFF8
30C0
30C0
30C0
30C0
33C0
3180
ENDCHAR
STARTCHAR U_4ED5
ENCODING 20181
SWIDTH 1000 0
DWIDTH 13 0
BBX 13 12 0 -1
BITMAP
1980
1980
3180
3180
7FF8
F180
3180
3180
3180
3180
3180
37F0
ENDCHAR
STARTCHAR U_4ED6
ENCODING 20182
SWIDTH 1000 0
DWIDTH 13 0
BBX 13 12 0 -1
BITMAP
1980
1980
37B0
37F8
77B0
FFB0
37B0
37F0
3780
3798
3618
33F8
ENDCHAR
STARTCHAR U_4ED7
ENCODING 20183
SWIDTH 1000 0
DWIDTH 13 0
BBX 13 12 0 -1
BITMAP
18C0
18C0
30C0
3FF8
70C0
F6C0
33C0
33C0
3180
31C0
3360
3E38
ENDCHAR
STARTCHAR U_4ED8
ENCODING 20184
SWIDTH 1000 0
DWIDTH 13 0
BBX 13 12 0 -1
BITMAP
1860
1860
3060
3FF8
7060
F660
3360
3360
3060
3060
31E0
30C0
ENDCHAR
STARTCHAR U_4ED9
ENCODING 20185
SWIDTH 1000 0
DWIDTH 13 0
BBX 13 12 0 -1
BITMAP
18C0
18C0
30C0
36D8
76D8
F6D8
36D8
36D8
36D8
36D8
37F8
3618
ENDCHAR
STARTCHAR U_4EDA
ENCODING 20186
SWIDTH 1000 0
DWIDTH 13 0
BBX 13 12 0 -1
BITMAP
0600
0600
1F80
30E0
E638
0600
6660
6660
6660
6660
7FE0
6060
ENDCHAR
STARTCHAR U_4EDB
ENCODING 20187
SWIDTH 1000 0
DWIDTH 13 0
BBX 13 12 0 -1
BITMAP
1860
18F0
3380
7F80
F180
31F8
3F80
3180
3180
3198
3198
30F8
ENDCHAR
STARTCHAR U_4EDC
ENCODING 20188
SWIDTH 1000 0
DWIDTH 13 0
BBX 13 12 0 -1
BITMAP
1800
1800
37F0
7180
F180
3180
3180
3180
3180
3180
3FF8
3000
ENDCHAR
STARTCHAR U_4EDD
ENCODING 20189
SWIDTH 1000 0
DWIDTH 13 0
BBX 13 12 0 -1
BITMAP
0600
0700
0D80
18C0
3060
E038
3FC0
0600
0600
0600
0600
7FF0
ENDCHAR
STARTCHAR U_4EDE
ENCODING 20190
SWIDTH 1000 0
DWIDTH 13 0
BBX 13 12 0 -1
BITMAP
1800
1FF8
30D8
30D8
76D8
F6D8
36D8
3D98
3198
3318
3618
3C70
ENDCHAR
STARTCHAR U_4EDF
ENCODING 20191
SWIDTH 1000 0
DWIDTH 13 0
BBX 13 12 0 -1
BITMAP
1870
1FC0
30C0
30C0
70C0
FFF8
30C0
30C0
30C0
30C0
30C0
30C0
ENDCHAR
STARTCHAR U_4EE0
ENCODING 20192
SWIDTH 1000 0
DWIDTH 13 0
BBX 13 12 0 -1
BITMAP
1800
1FF0
1980
7180
F180
3FF8
3180
3180
3180
3180
3180
3180
ENDCHAR
STARTCHAR U_4EE1
ENCODING 20193
SWIDTH 1000 0
DWIDTH 13 0
BBX 13 12 0 -1
BITMAP
1B00
1B30
33F8
3600
7C00
F7F0
3060
31C0
3300
3618
3618
33F8
ENDCHAR
STARTCHAR U_4EE2
ENCODING 20194
SWIDTH 1000 0
DWIDTH 13 0
BBX 13 12 0 -1
BITMAP
1E00
1E00
37F0
7C30
F030
3330
31B0
31B0
3030
3030
30F0
3060
ENDCHAR
STARTCHAR U_4EE3
ENCODING 20195
SWIDTH 1000 0
DWIDTH 13 0
BBX 13 12 0 -1
BITMAP
1BC0
1B60
3300
33F0
7F00
F300
3300
3300
3180
3198
30D8
3078
ENDCHAR
STARTCHAR U_4EE4
ENCODING 20196
SWIDTH 1000 0
DWIDTH 13 0
BBX 13 12 0 -1
BITMAP
0600
0700
0D80
1EC0
3360
E038
3FC0
0180
1B00
0E00
0300
0180
ENDCHAR
STARTCHAR U_4EE5
ENCODING 20197
SWIDTH 1000 0
DWIDTH 13 0
BBX 13 12 0 -1
BITMAP
0060
3060
3660
3360
3360
3060
3060
36C0
3CE0
39B0
7318
0E18
ENDCHAR
STARTCHAR U_4EE6
ENCODING 20198
SWIDTH 1000 0
DWIDTH 13 0
BBX 13 12 0 -1
BITMAP
1800
1980
3180
7180
F7E0
37E0
37B0
3DB0
3D80
3180
3780
3300
ENDCHAR
STARTCHAR U_4EE7
ENCODING 20199
SWIDTH 1000 0
DWIDTH 13 0
BBX 13 12 0 -1
BITMAP
0600
0600
07E0
0600
0600
FFF8
0600
0700
0D80
18C0
3060
E038
ENDCHAR
STARTCHAR U_4EE8
ENCODING 20200
SWIDTH 1000 0
DWIDTH 13 0
BBX 13 12 0 -1
BITMAP
1800
1830
3FF8
3000
7000
F060
37F0
3000
3000
3000
3030
3FF8
ENDCHAR
STARTCHAR U_4EE9
ENCODING 20201
SWIDTH 1000 0
DWIDTH 13 0
BBX 13 12 0 -1
BITMAP
1980
1980
3180
7180
F1F0
3180
3180
3180
3180
3180
3180
3FF8
ENDCHAR
STARTCHAR U_4EEA
ENCODING 20202
SWIDTH 1000 0
DWIDTH 13 0
BBX 13 12 0 -1
BITMAP
1B00
19B0
37B0
3630
7660
F660
33C0
33C0
3180
33C0
3660
3C38
ENDCHAR
STARTCHAR U_4EEB
ENCODING 20203
SWIDTH 1000 0
DWIDTH 13 0
BBX 13 12 0 -1
BITMAP
1980
1980
3300
3300
76C0
FCC0
3180
3180
3360
3630
3FF0
3618
ENDCHAR
STARTCHAR U_4EEC
ENCODING 20204
SWIDTH 1000 0
DWIDTH 13 0
BBX 13 12 0 -1
BITMAP
1E00
1BF8
3618
3618
7618
F618
3618
3618
3618
3618
3678
3630
ENDCHAR
STARTCHAR U_4EED
ENCODING 20205
SWIDTH 1000 0
DWIDTH 13 0
BBX 13 12 0 -1
BITMAP
1800
1FF0
31B0
31B0
7DB0
F7B0
33B0
31F0
3378
3330
36F0
3C60
ENDCHAR
STARTCHAR U_4EEE
ENCODING 20206
SWIDTH 1000 0
DWIDTH 13 0
BBX 13 12 0 -1
BITMAP
1878
1FC0
3600
3600
77F8
F798
3798
36F0
36F0
3C60
3CF0
3B98
ENDCHAR
STARTCHAR U_4EEF
ENCODING 20207
SWIDTH 1000 0
DWIDTH 13 0
BBX 13 12 0 -1
BITMAP
1980
1980
3180
37E0
77B0
F798
3D98
3DB0
3830
3060
31C0
3F00
ENDCHAR
STARTCHAR U_4EF0
ENCODING 20208
SWIDTH 1000 0
DWIDTH 13 0
BBX 13 12 0 -1
BITMAP
1980
1FF8
36D8
36D8
76D8
F6D8
36D8
37D8
37D8
3CF8
30C0
30C0
ENDCHAR
STARTCHAR U_4EF1
ENCODING 20209
SWIDTH 1000 0
DWIDTH 13 0
BBX 13 12 0 -1
BITMAP
1980
1980
33C0
3660
7F30
F998
3180
3FF0
3060
30C0
30C0
3180
ENDCHAR
STARTCHAR U_4EF2
ENCODING 20210
SWIDTH 1000 0
DWIDTH 13 0
BBX 13 12 0 -1
BITMAP
18C0
18C0
30C0
37F8
76D8
F6D8
37F8
36D8
30C0
30C0
30C0
30C0
ENDCHAR
STARTCHAR U_4EF3
ENCODING 20211
SWIDTH 1000 0
DWIDTH 13 0
BBX 13 12 0 -1
BITMAP
1EC0
1EC0
36C0
36F8
77E0
F6C0
36C0
36C0
36C0
37C0
37D8
3678
ENDCHAR
STARTCHAR U_4EF4
ENCODING 20212
SWIDTH 1000 0
DWIDTH 13 0
BBX 13 12 0 -1
BITMAP
1800
1BF8
3318
3318
73F8
F318
3318
33F8
3318
3318
3678
3C30
ENDCHAR
STARTCHAR U_4EF5
ENCODING 20213
SWIDTH 1000 0
DWIDTH 13 0
BBX 13 12 0 -1
BITMAP
1B00
1B00
33F0
36C0
70C0
F0C0
3FF8
30C0
30C0
30C0
30C0
30C0
ENDCHAR
STARTCHAR U_4EF6
ENCODING 20214
SWIDTH 1000 0
DWIDTH 13 0
BBX 13 12 0 -1
BITMAP
18C0
1EC0
36C0
37F0
7CC0
F0C0
30C0
3FF8
30C0
30C0
30C0
30C0
ENDCHAR
STARTCHAR U_4EF7
ENCODING 20215
SWIDTH 1000 0
DWIDTH 13 0
BBX 13 12 0 -1
BITMAP
1980
1980
33C0
3660
7C38
F360
3360
3360
3360
3360
3660
3C60
ENDCHAR
STARTCHAR U_4EF8
ENCODING 20216
SWIDTH 1000 0
DWIDTH 13 0
BBX 13 12 0 -1
BITMAP
1870
1FC0
1980
3180
3180
7FF8
F180
33C0
33C0
3660
3C30
3818
ENDCHAR
STARTCHAR U_4EF9
ENCODING 20217
SWIDTH 1000 0
DWIDTH 13 0
BBX 13 12 0 -1
BITMAP
1980
1980
3FF8
3180
7180
F7F0
3180
3180
3FF8
3180
3180
3180
ENDCHAR
STARTCHAR U_4EFA
ENCODING 20218
SWIDTH 1000 0
DWIDTH 13 0
BBX 13 12 0 -1
BITMAP
0600
0600
0F00
1980
30E0
E038
1FE0
1800
1FC0
1800
1800
1FE0
ENDCHAR
STARTCHAR U_4EFB
ENCODING 20219
SWIDTH 1000 0
DWIDTH 13 0
BBX 13 12 0 -1
BITMAP
1800
18F0
3780
3180
7180
F180
3FF8
3180
3180
3180
3180
3FF8
ENDCHAR
STARTCHAR U_4EFC
ENCODING 20220
SWIDTH 1000 0
DWIDTH 13 0
BBX 13 12 0 -1
BITMAP
1800
1800
3FF8
3180
7180
F180
37F0
3180
3180
3180
3180
3FF8
ENDCHAR
STARTCHAR U_4EFD
ENCODING 20221
SWIDTH 1000 0
DWIDTH 13 0
BBX 13 12 0 -1
BITMAP
18C0
1BC0
3360
3630
7C18
F7F0
31B0
31B0
3330
3330
36F0
3C60
ENDCHAR
STARTCHAR U_4EFE
ENCODING 20222
SWIDTH 1000 0
DWIDTH 13 0
BBX 13 12 0 -1
BITMAP
1800
1FF8
3300
3300
7300
F7F0
3630
3630
37F0
3060
3060
3FF8
ENDCHAR
STARTCHAR U_4EFF
ENCODING 20223
SWIDTH 1000 0
DWIDTH 13 0
BBX 13 12 0 -1
BITMAP
1980
18C0
30C0
3FF8
7300
F3F0
3330
3330
3330
3630
36F0
3C60
ENDCHAR
STARTCHAR U_4F00
ENCODING 20224
SWIDTH 1000 0
DWIDTH 13 0
BBX 13 12 0 -1
BITMAP
18C0
1BC0
3360
3660
7630
FDB8
39B0
3300
3360
3630
3FF8
3618
ENDCHAR
STARTCHAR U_4F01
ENCODING 20225
SWIDTH 1000 0
DWIDTH 13 0
BBX 13 12 0 -1
BITMAP
0600
0700
0D80
18C0
3660
E638
0600
37C0
3600
3600
3600
FFF8
ENDCHAR
STARTCHAR U_4F02
ENCODING 20226
SWIDTH 1000 0
DWIDTH 13 0
BBX 13 12 0 -1
BITMAP
18C0
18C0
3FF8
30C0
77F8
F6D8
36D8
36D8
36D8
36F8
30F0
30C0
ENDCHAR
STARTCHAR U_4F03
ENCODING 20227
SWIDTH 1000 0
DWIDTH 13 0
BBX 13 12 0 -1
BITMAP
1800
1FF0
3060
33C0
7180
FFF8
31B0
31E0
3180
3180
3780
3300
ENDCHAR
STARTCHAR U_4F04
ENCODING 20228
SWIDTH 1000 0
DWIDTH 13 0
BBX 13 12 0 -1
BITMAP
1800
1FF0
19B0
31B0
37F0
7780
FD80
3FF8
3198
31F8
31B0
3180
ENDCHAR
STARTCHAR U_4F05
ENCODING 20229
SWIDTH 1000 0
DWIDTH 13 0
BBX 13 12 0 -1
BITMAP
1980
1980
3FF0
3180
7DB0
FDB0
3DB0
3FF0
3180
3198
3198
30F8
ENDCHAR
STARTCHAR U_4F06
ENCODING 20230
SWIDTH 1000 0
DWIDTH 13 0
BBX 13 12 0 -1
BITMAP
1E00
1E00
37F8
3DF8
7DF8
FBD8
33D8
36D8
3798
3D98
3378
3630
ENDCHAR
STARTCHAR U_4F07
ENCODING 20231
SWIDTH 1000 0
DWIDTH 13 0
BBX 13 12 0 -1
BITMAP
1800
1BE0
1B60
3360
3638
7C00
F7F0
3330
31E0
30C0
31E0
3738
ENDCHAR
STARTCHAR U_4F08
ENCODING 20232
SWIDTH 1000 0
DWIDTH 13 0
BBX 13 12 0 -1
BITMAP
1980
18C0
1860
3300
3300
7F30
FF18
3B18
3300
3330
3330
31F0
ENDCHAR
STARTCHAR U_4F09
ENCODING 20233
SWIDTH 1000 0
DWIDTH 13 0
BBX 13 12 0 -1
BITMAP
1980
18C0
3FF8
3000
73E0
F360
3360
3360
3360
3378
3678
3C38
ENDCHAR
STARTCHAR U_4F0A
ENCODING 20234
SWIDTH 1000 0
DWIDTH 13 0
BBX 13 12 0 -1
BITMAP
1800
1FF0
3330
3330
7FF8
F330
3330
3FF0
3300
3600
3600
3C00
ENDCHAR
STARTCHAR U_4F0B
ENCODING 20235
SWIDTH 1000 0
DWIDTH 13 0
BBX 13 12 0 -1
BITMAP
1800
1FF0
1B30
3360
33C0
73F8
F398
33D8
36F0
3660
3DF0
3F18
ENDCHAR
STARTCHAR U_4F0C
ENCODING 20236
SWIDTH 1000 0
DWIDTH 13 0
BBX 13 12 0 -1
BITMAP
1800
1FF8
1E00
37F0
37B0
77B0
F7F0
37E0
3780
3D98
3D98
38F8
ENDCHAR
STARTCHAR U_4F0D
ENCODING 20237
SWIDTH 1000 0
DWIDTH 13 0
BBX 13 12 0 -1
BITMAP
1800
1FF8
3180
3180
71B0
FFF8
31B0
31B0
3330
3330
3330
3FF8
ENDCHAR
STARTCHAR U_4F0E
ENCODING 20238
SWIDTH 1000 0
DWIDTH 13 0
BBX 13 12 0 -1
BITMAP
1980
1980
3FF8
3180
7180
FFF0
3660
3660
33C0
3180
33E0
3E38
ENDCHAR
STARTCHAR U_4F0F
ENCODING 20239
SWIDTH 1000 0
DWIDTH 13 0
BBX 13 12 0 -1
BITMAP
1980
19E0
31B0
3180
7FF8
F180
3180
33C0
33C0
3660
3C60
3838
ENDCHAR
STARTCHAR U_4F10
ENCODING 20240
SWIDTH 1000 0
DWIDTH 13 0
BBX 13 12 0 -1
BITMAP
1BC0
1B60
3300
33F8
7F80
F360
3360
33C0
3180
33D8
3678
3C38
ENDCHAR
STARTCHAR U_4F11
ENCODING 20241
SWIDTH 1000 0
DWIDTH 13 0
BBX 13 12 0 -1
BITMAP
1980
1980
3180
3FF0
7180
F3C0
33C0
37E0
37E0
3DB0
3998
3180
ENDCHAR
STARTCHAR U_4F12
ENCODING 20242
SWIDTH 1000 0
DWIDTH 13 0
BBX 13 12 0 -1
BITMAP
1870
1FC0
3600
3600
77F8
F6C0
36C0
36C0
36C0
3CC0
3CC0
38C0
ENDCHAR
STARTCHAR U_4F13
ENCODING 20243
SWIDTH 1000 0
DWIDTH 13 0
BBX 13 12 0 -1
BITMAP
1800
1FF8
18C0
30C0
3180
73E0
F3B0
37B0
3D98
3198
3180
3180
ENDCHAR
STARTCHAR U_4F14
ENCODING 20244
SWIDTH 1000 0
DWIDTH 13 0
BBX 13 12 0 -1
BITMAP
1800
1FF8
1E18
3C30
33E0
7360
F360
3360
3360
3678
3678
3C38
ENDCHAR
STARTCHAR U_4F15
ENCODING 20245
SWIDTH 1000 0
DWIDTH 13 0
BBX 13 12 0 -1
BITMAP
1980
1980
1980
3FF0
3180
7180
FFF8
33C0
33C0
3660
3660
3C38
ENDCHAR
STARTCHAR U_4F16
ENCODING 20246
SWIDTH 1000 0
DWIDTH 13 0
BBX 13 12 0 -1
BITMAP
1B00
1B00
3FF8
3300
7300
F3F0
37B0
37B0
36E0
3CC0
3DE0
3F38
ENDCHAR
STARTCHAR U_4F17
ENCODING 20247
SWIDTH 1000 0
DWIDTH 13 0
BBX 13 12 0 -1
BITMAP
0300
0300
0780
0CC0
3860
F8F8
18C0
18C0
3DE0
37B0
6318
C618
ENDCHAR
STARTCHAR U_4F18
ENCODING 20248
SWIDTH 1000 0
DWIDTH 13 0
BBX 13 12 0 -1
BITMAP
19E0
19B0
3180
3FF8
7180
F1C0
31C0
33C0
33C0
36D8
36D8
3C78
ENDCHAR
STARTCHAR U_4F19
ENCODING 20249
SWIDTH 1000 0
DWIDTH 13 0
BBX 13 12 0 -1
BITMAP
1980
1980
3180
31B0
77E0
F7C0
3D80
31C0
33C0
3360
3630
3C18
ENDCHAR
STARTCHAR U_4F1A
ENCODING 20250
SWIDTH 1000 0
DWIDTH 13 0
BBX 13 12 0 -1
BITMAP
0600
0600
0F00
1980
30E0
FFB8
0000
7FF0
0C00
18C0
3060
3FE0
ENDCHAR
STARTCHAR U_4F1B
ENCODING 20251
SWIDTH 1000 0
DWIDTH 13 0
BBX 13 12 0 -1
BITMAP
1830
1FF8
3C00
3C60
3F60
7DC0
FCC0
3DE0
3F30
3C00
3C30
3FF8
ENDCHAR
STARTCHAR U_4F1C
ENCODING 20252
SWIDTH 1000 0
DWIDTH 13 0
BBX 13 12 0 -1
BITMAP
1B00
1B00
3FE0
7360
F678
3DF8
3180
3FF8
3180
3180
3180
3180
ENDCHAR
STARTCHAR U_4F1D
ENCODING 20253
SWIDTH 1000 0
DWIDTH 13 0
BBX 13 12 0 -1
BITMAP
1800
1FF0
3000
3000
7FF8
F180
3180
3300
3300
3630
3FF8
3618
ENDCHAR
STARTCHAR U_4F1E
ENCODING 20254
SWIDTH 1000 0
DWIDTH 13 0
BBX 13 12 0 -1
BITMAP
0600
0600
0F00
39C0
E678
36C0
1F80
0600
FFF0
0600
0600
0600
ENDCHAR
STARTCHAR U_4F1F
ENCODING 20255
SWIDTH 1000 0
DWIDTH 13 0
BBX 13 12 0 -1
BITMAP
1980
1980
3FF8
3180
77F0
F180
3FF8
3198
31F8
31B0
3180
3180
ENDCHAR
STARTCHAR U_4F20
ENCODING 20256
SWIDTH 1000 0
DWIDTH 13 0
BBX 13 12 0 -1
BITMAP
1980
1980
37F0
3180
7FF8
F300
3300
37F0
3060
33C0
30C0
3060
ENDCHAR
STARTCHAR U_4F21
ENCODING 20257
SWIDTH 1000 0
DWIDTH 13 0
BBX 13 12 0 -1
BITMAP
1B00
1B00
3FF8
3600
7780
FD80
3FF0
3180
3180
3FF8
3180
3180
ENDCHAR
STARTCHAR U_4F22
ENCODING 20258
SWIDTH 1000 0
DWIDTH 13 0
BBX 13 12 0 -1
BITMAP
1800
1FF8
3360
3360
7660
F7F8
30E0
31E0
3360
3660
3DE0
30C0
ENDCHAR
STARTCHAR U_4F23
ENCODING 20259
SWIDTH 1000 0
DWIDTH 13 0
BBX 13 12 0 -1
BITMAP
1800
1FF0
3C30
3DB0
7DB0
FDB0
3DF0
33C0
33C0
36D8
3CD8
3878
ENDCHAR
STARTCHAR U_4F24
ENCODING 20260
SWIDTH 1000 0
DWIDTH 13 0
BBX 13 12 0 -1
BITMAP
1E00
1E00
37F8
3D80
7980
F7F0
31B0
31B0
31B0
3330
36F0
3C60
ENDCHAR
STARTCHAR U_4F25
ENCODING 20261
SWIDTH 1000 0
DWIDTH 13 0
BBX 13 12 0 -1
BITMAP
1E00
1E60
36C0
3780
7600
FFF8
3780
36C0
36C0
3660
37B8
3330
ENDCHAR
STARTCHAR U_4F26
ENCODING 20262
SWIDTH 1000 0
DWIDTH 13 0
BBX 13 12 0 -1
BITMAP
1980
1980
33C0
3660
7C38
FB00
3360
33C0
3380
3318
3318
31F8
ENDCHAR
STARTCHAR U_4F27
ENCODING 20263
SWIDTH 1000 0
DWIDTH 13 0
BBX 13 12 0 -1
BITMAP
1980
1980
33C0
3660
7C30
F7F8
3660
3660
37E0
3618
3618
33F8
ENDCHAR
STARTCHAR U_4F28
ENCODING 20264
SWIDTH 1000 0
DWIDTH 13 0
BBX 13 12 0 -1
BITMAP
1B00
1B00
37F8
3C18
7B98
F0D8
3018
3078
31D8
3F18
36F0
3060
ENDCHAR
STARTCHAR U_4F29
ENCODING 20265
SWIDTH 1000 0
DWIDTH 13 0
BBX 13 12 0 -1
BITMAP
1B00
1980
3000
3FF8
7660
F660
3660
33C0
33C0
3180
33C0
3E70
ENDCHAR
STARTCHAR U_4F2A
ENCODING 20266
SWIDTH 1000 0
DWIDTH 13 0
BBX 13 12 0 -1
BITMAP
18C0
1EC0
33C0
30C0
7FF8
F198
31D8
31F8
3378
3318
3678
3C30
ENDCHAR
STARTCHAR U_4F2B
ENCODING 20267
SWIDTH 1000 0
DWIDTH 13 0
BBX 13 12 0 -1
BITMAP
1980
18C0
37F8
3618
7C30
F000
3000
3000
3000
3030
37F8
3000
ENDCHAR
STARTCHAR U_4F2C
ENCODING 20268
SWIDTH 1000 0
DWIDTH 13 0
BBX 13 12 0 -1
BITMAP
1830
1FF8
3630
3630
7630
F7F0
36C0
36C0
3660
3C60
3C38
3830
ENDCHAR
STARTCHAR U_4F2D
ENCODING 20269
SWIDTH 1000 0
DWIDTH 13 0
BBX 13 12 0 -1
BITMAP
1B00
1980
3FF8
3300
7300
F660
3FC0
3180
3300
3660
3FF0
3630
ENDCHAR
STARTCHAR U_4F2E
ENCODING 20270
SWIDTH 1000 0
DWIDTH 13 0
BBX 13 12 0 -1
BITMAP
1E00
1E00
36F8
7FF8
F7F8
37F8
3DF8
3DF8
37B0
3330
37F8
3CD8
ENDCHAR
STARTCHAR U_4F2F
ENCODING 20271
SWIDTH 1000 0
DWIDTH 13 0
BBX 13 12 0 -1
BITMAP
18C0
1980
37F8
3618
7618
F618
37F8
3618
3618
3618
37F8
3618
ENDCHAR
STARTCHAR U_4F30
ENCODING 20272
SWIDTH 1000 0
DWIDTH 13 0
BBX 13 12 0 -1
BITMAP
1980
1980
3180
3FF8
7180
F180
37F0
3630
3630
3630
37F0
3630
ENDCHAR
STARTCHAR U_4F31
ENCODING 20273
SWIDTH 1000 0
DWIDTH 13 0
BBX 13 12 0 -1
BITMAP
1980
1980
33C0
7660
FC30
3998
3180
37E0
37B0
3DB0
3FB0
3300
ENDCHAR
STARTCHAR U_4F32
ENCODING 20274
SWIDTH 1000 0
DWIDTH 13 0
BBX 13 12 0 -1
BITMAP
1FF8
1E18
3618
37F8
7600
F780
37B0
37E0
3DC0
3D80
3D98
38F8
ENDCHAR
STARTCHAR U_4F33
ENCODING 20275
SWIDTH 1000 0
DWIDTH 13 0
BBX 13 12 0 -1
BITMAP
19B0
19B0
37B0
77B0
FFF8
37B0
37B0
37B0
37F0
37B0
3600
37F8
ENDCHAR
STARTCHAR U_4F34
ENCODING 20276
SWIDTH 1000 0
DWIDTH 13 0
BBX 13 12 0 -1
BITMAP
1980
1DB0
37B0
37E0
7180
FFF0
3180
3180
3FF8
3180
3180
3180
ENDCHAR
STARTCHAR U_4F35
ENCODING 20277
SWIDTH 1000 0
DWIDTH 13 0
BBX 13 12 0 -1
BITMAP
3000
3FF8
6FD8
EFD8
6FD8
6FD8
6FD8
6E78
6C18
6C18
6FF8
6C18
ENDCHAR
STARTCHAR U_4F36
ENCODING 20278
SWIDTH 1000 0
DWIDTH 13 0
BBX 13 12 0 -1
BITMAP
1980
1980
33C0
3660
7DB0
F8D8
3000
37F0
3060
33C0
30C0
3060
ENDCHAR
STARTCHAR U_4F37
ENCODING 20279
SWIDTH 1000 0
DWIDTH 13 0
BBX 13 12 0 -1
BITMAP
18C0
18C0
30C0
77F8
F6D8
36D8
37F8
36D8
36D8
36D8
37F8
3618
ENDCHAR
STARTCHAR U_4F38
ENCODING 20280
SWIDTH 1000 0
DWIDTH 13 0
BBX 13 12 0 -1
BITMAP
18C0
18C0
37F8
36D8
76D8
F7F8
36D8
36D8
37F8
36D8
30C0
30C0
ENDCHAR
STARTCHAR U_4F39
ENCODING 20281
SWIDTH 1000 0
DWIDTH 13 0
BBX 13 12 0 -1
BITMAP
1800
1FF0
3630
7630
F7F0
3630
3630
37F0
3630
3630
3630
3FF8
ENDCHAR
STARTCHAR U_4F3A
ENCODING 20282
SWIDTH 1000 0
DWIDTH 13 0
BBX 13 12 0 -1
BITMAP
1800
1FF0
3030
3FF0
7030
FFB0
3DB0
3DB0
3FB0
3030
30F0
3060
ENDCHAR
STARTCHAR U_4F3B
ENCODING 20283
SWIDTH 1000 0
DWIDTH 13 0
BBX 13 12 0 -1
BITMAP
3000
3FF0
6180
EDB0
67B0
67E0
6180
7FF8
6180
6180
6180
6180
ENDCHAR
STARTCHAR U_4F3C
ENCODING 20284
SWIDTH 1000 0
DWIDTH 13 0
BBX 13 12 0 -1
BITMAP
1800
1830
37B0
36F0
76F0
F630
3630
37B0
3760
3E70
30D8
3398
ENDCHAR
STARTCHAR U_4F3D
ENCODING 20285
SWIDTH 1000 0
DWIDTH 13 0
BBX 13 12 0 -1
BITMAP
1E00
1E00
3FF8
37F8
77F8
F7F8
37F8
37F8
37F8
3DF8
3DF8
3BF8
ENDCHAR
STARTCHAR U_4F3E
ENCODING 20286
SWIDTH 1000 0
DWIDTH 13 0
BBX 13 12 0 -1
BITMAP
3030
3FF8
60C0
E180
63E0
67B0
6D98
7998
6180
6180
7FF8
6000
ENDCHAR
STARTCHAR U_4F3F
ENCODING 20287
SWIDTH 1000 0
DWIDTH 13 0
BBX 13 12 0 -1
BITMAP
1800
1FF0
3630
7630
F630
3630
37F0
3000
3360
3330
3618
3C18
ENDCHAR
STARTCHAR U_4F40
ENCODING 20288
SWIDTH 1000 0
DWIDTH 13 0
BBX 13 12 0 -1
BITMAP
1800
1FF0
3630
7630
F7F0
3600
3600
37F8
3618
3618
3618
37F8
ENDCHAR
STARTCHAR U_4F41
ENCODING 20289
SWIDTH 1000 0
DWIDTH 13 0
BBX 13 12 0 -1
BITMAP
1980
1980
3300
7360
F630
3FF8
3018
37F0
3630
3630
37F0
3630
ENDCHAR
STARTCHAR U_4F42
ENCODING 20290
SWIDTH 1000 0
DWIDTH 13 0
BBX 13 12 0 -1
BITMAP
1800
1FF8
30C0
70C0
F0C0
36F0
36C0
36C0
36C0
36C0
36C0
3FF8
ENDCHAR
STARTCHAR U_4F43
ENCODING 20291
SWIDTH 1000 0
DWIDTH 13 0
BBX 13 12 0 -1
BITMAP
1800
1FF8
36D8
36D8
76D8
F6D8
37F8
36D8
36D8
36D8
37F8
3618
ENDCHAR
STARTCHAR U_4F44
ENCODING 20292
SWIDTH 1000 0
DWIDTH 13 0
BBX 13 12 0 -1
BITMAP
1B30
1B30
3330
7FF8
F330
3330
33F0
3330
3330
3330
33F0
3330
ENDCHAR
STARTCHAR U_4F45
ENCODING 20293
SWIDTH 1000 0
DWIDTH 13 0
BBX 13 12 0 -1
BITMAP
1980
1980
37F0
7180
F180
3FF8
33E0
33E0
37B0
3DB0
3998
3198
ENDCHAR
STARTCHAR U_4F46
ENCODING 20294
SWIDTH 1000 0
DWIDTH 13 0
BBX 13 12 0 -1
BITMAP
1800
1FF0
3630
3630
77F0
F630
3630
37F0
3630
3000
3000
3FF8
ENDCHAR
STARTCHAR U_4F47
ENCODING 20295
SWIDTH 1000 0
DWIDTH 13 0
BBX 13 12 0 -1
BITMAP
3180
3FF8
6C18
F830
6000
6FF8
60C0
60C0
60C0
60C0
63C0
6180
ENDCHAR
STARTCHAR U_4F48
ENCODING 20296
SWIDTH 1000 0
DWIDTH 13 0
BBX 13 12 0 -1
BITMAP
1980
19B0
3FF8
7180
F3C0
37F8
3ED8
3ED8
36D8
36F8
36F0
30C0
ENDCHAR
STARTCHAR U_4F49
ENCODING 20297
SWIDTH 1000 0
DWIDTH 13 0
BBX 13 12 0 -1
BITMAP
1980
1980
37F0
7180
F180
3FF8
3300
3300
3660
3630
3FF8
3618
ENDCHAR
STARTCHAR U_4F4A
ENCODING 20298
SWIDTH 1000 0
DWIDTH 13 0
BBX 13 12 0 -1
BITMAP
18C0
18C0
37F8
76D8
F6F0
36C0
37F0
37B0
3CF0
3C60
3CF0
3B98
ENDCHAR
STARTCHAR U_4F4B
ENCODING 20299
SWIDTH 1000 0
DWIDTH 13 0
BBX 13 12 0 -1
BITMAP
1800
1FF8
3198
7198
F318
36F0
3C60
33F8
3318
3318
33F8
3318
ENDCHAR
STARTCHAR U_4F4C
ENCODING 20300
SWIDTH 1000 0
DWIDTH 13 0
BBX 13 12 0 -1
BITMAP
1860
1B60
3360
7360
F378
3FE0
3F60
3F60
3F60
3FF8
3F78
3C38
ENDCHAR
STARTCHAR U_4F4D
ENCODING 20301
SWIDTH 1000 0
DWIDTH 13 0
BBX 13 12 0 -1
BITMAP
1980
18C0
3000
3FF8
7000
F660
3660
3360
33C0
30C0
3180
3FF8
ENDCHAR
STARTCHAR U_4F4E
ENCODING 20302
SWIDTH 1000 0
DWIDTH 13 0
BBX 13 12 0 -1
BITMAP
1838
1FE0
36C0
36C0
76C0
F7F8
36C0
36C0
36D8
37F8
3738
37D8
ENDCHAR
STARTCHAR U_4F4F
ENCODING 20303
SWIDTH 1000 0
DWIDTH 13 0
BBX 13 12 0 -1
BITMAP
1B00
1980
3180
3FF8
7180
F180
3180
37F0
3180
3180
3180
3FF8
ENDCHAR
STARTCHAR U_4F50
ENCODING 20304
SWIDTH 1000 0
DWIDTH 13 0
BBX 13 12 0 -1
BITMAP
1980
19B0
3FF8
3180
7300
F300
37F0
3CC0
30C0
30C0
30C0
3FF8
ENDCHAR
STARTCHAR U_4F51
ENCODING 20305
SWIDTH 1000 0
DWIDTH 13 0
BBX 13 12 0 -1
BITMAP
1980
19B0
3FF8
3180
7180
F300
37F0
3F30
3B30
3330
33F0
3330
ENDCHAR
STARTCHAR U_4F52
ENCODING 20306
SWIDTH 1000 0
DWIDTH 13 0
BBX 13 12 0 -1
BITMAP
1980
1980
37F0
77B0
F7B0
37B0
3FF8
33C0
33C0
3660
3660
3C38
ENDCHAR
STARTCHAR U_4F53
ENCODING 20307
SWIDTH 1000 0
DWIDTH 13 0
BBX 13 12 0 -1
BITMAP
1980
1980
3FF8
3180
73C0
F3E0
37B0
3D98
3FE0
3180
3180
3180
ENDCHAR
STARTCHAR U_4F54
ENCODING 20308
SWIDTH 1000 0
DWIDTH 13 0
BBX 13 12 0 -1
BITMAP
1980
1980
3180
71F0
F180
3180
37F0
3630
3630
3630
37F0
3630
ENDCHAR
STARTCHAR U_4F55
ENCODING 20309
SWIDTH 1000 0
DWIDTH 13 0
BBX 13 12 0 -1
BITMAP
1800
1FF8
3030
3030
77F0
F6F0
36F0
37F0
36F0
3030
30F0
3060
ENDCHAR
STARTCHAR U_4F56
ENCODING 20310
SWIDTH 1000 0
DWIDTH 13 0
BBX 13 12 0 -1
BITMAP
1980
18F0
33F0
7330
FF60
3F60
3BF0
33D8
3398
3730
3F30
31F0
ENDCHAR
STARTCHAR U_4F57
ENCODING 20311
SWIDTH 1000 0
DWIDTH 13 0
BBX 13 12 0 -1
BITMAP
1980
18C0
3FF8
3C18
7B30
F300
3370
33C0
3300
3318
3318
31F8
ENDCHAR
STARTCHAR U_4F58
ENCODING 20312
SWIDTH 1000 0
DWIDTH 13 0
BBX 13 12 0 -1
BITMAP
0600
0F00
1980
30C0
FFF0
0000
7FE0
0600
36C0
6660
DE30
0C00
ENDCHAR
STARTCHAR U_4F59
ENCODING 20313
SWIDTH 1000 0
DWIDTH 13 0
BBX 13 12 0 -1
BITMAP
0600
0F00
1980
30E0
FFB8
0600
7FE0
0600
1F80
36C0
7E60
0C00
ENDCHAR
STARTCHAR U_4F5A
ENCODING 20314
SWIDTH 1000 0
DWIDTH 13 0
BBX 13 12 0 -1
BITMAP
1980
1F80
3780
3FF0
7D80
F180
3FF8
3180
33C0
3360
3638
3C30
ENDCHAR
STARTCHAR U_4F5B
ENCODING 20315
SWIDTH 1000 0
DWIDTH 13 0
BBX 13 12 0 -1
BITMAP
1BC0
1BC0
3FF0
33F0
7FF0
FFC0
3FF8
33D8
33F8
36F0
36C0
3CC0
ENDCHAR
STARTCHAR U_4F5C
ENCODING 20316
SWIDTH 1000 0
DWIDTH 13 0
BBX 13 12 0 -1
BITMAP
1E00
1E00
37F8
3F00
7B00
F3F0
3300
3300
33F8
3300
3300
3300
ENDCHAR
STARTCHAR U_4F5D
ENCODING 20317
SWIDTH 1000 0
DWIDTH 13 0
BBX 13 12 0 -1
BITMAP
1E00
1E00
37F0
3C30
7C30
F7F0
36F0
36F0
37F0
3030
30F0
3060
ENDCHAR
STARTCHAR U_4F5E
ENCODING 20318
SWIDTH 1000 0
DWIDTH 13 0
BBX 13 12 0 -1
BITMAP
1860
1FF0
3000
3FF8
7300
F300
3FF8
3360
3660
33C0
31E0
3F38
ENDCHAR
STARTCHAR U_4F5F
ENCODING 20319
SWIDTH 1000 0
DWIDTH 13 0
BBX 13 12 0 -1
BITMAP
1B00
1FF0
3630
3C60
73C0
F180
37E0
3DB8
30C0
3000
31C0
3060
ENDCHAR
STARTCHAR U_4F60
ENCODING 20320
SWIDTH 1000 0
DWIDTH 13 0
BBX 13 12 0 -1
BITMAP
1E00
1E00
37F8
3630
7DE0
F180
37E0
37B0
3D98
3998
3180
3380
ENDCHAR
STARTCHAR U_4F61
ENCODING 20321
SWIDTH 1000 0
DWIDTH 13 0
BBX 13 12 0 -1
BITMAP
1980
1980
33C0
73C0
F660
3DB0
3998
3DB0
3DB0
3DB0
3FF0
3C30
ENDCHAR
STARTCHAR U_4F62
ENCODING 20322
SWIDTH 1000 0
DWIDTH 13 0
BBX 13 12 0 -1
BITMAP
1800
1FF0
3600
7600
F7F0
3630
3630
37F0
3600
3600
3600
37F8
ENDCHAR
STARTCHAR U_4F63
ENCODING 20323
SWIDTH 1000 0
DWIDTH 13 0
BBX 13 12 0 -1
BITMAP
1800
1FF8
36D8
36D8
77F8
F6D8
36D8
37F8
36D8
36D8
3CD8
38F8
ENDCHAR
STARTCHAR U_4F64
ENCODING 20324
SWIDTH 1000 0
DWIDTH 13 0
BBX 13 12 0 -1
BITMAP
1830
1FF8
3300
3360
73F0
F360
37E0
36E0
3660
37F8
3778
3638
ENDCHAR
STARTCHAR U_4F65
ENCODING 20325
SWIDTH 1000 0
DWIDTH 13 0
BBX 13 12 0 -1
BITMAP
0600
0F00
1980
30C0
E070
3FC0
0060
6C60
36C0
1EC0
1980
FFF0
ENDCHAR
STARTCHAR U_4F66
ENCODING 20326
SWIDTH 1000 0
DWIDTH 13 0
BBX 13 12 0 -1
BITMAP
1830
1FF8
3180
7180
F300
3300
37F8
3F18
3318
3318
33F8
3318
ENDCHAR
STARTCHAR U_4F67
ENCODING 20327
SWIDTH 1000 0
DWIDTH 13 0
BBX 13 12 0 -1
BITMAP
1B00
1B00
33F0
3300
7300
FFF8
33C0
3360
3330
3330
3300
3300
ENDCHAR
STARTCHAR U_4F68
ENCODING 20328
SWIDTH 1000 0
DWIDTH 13 0
BBX 13 12 0 -1
BITMAP
1E00
1E00
37F0
7C30
FFF0
36F0
36F0
37F0
3660
3618
3618
33F8
ENDCHAR
STARTCHAR U_4F69
ENCODING 20329
SWIDTH 1000 0
DWIDTH 13 0
BBX 13 12 0 -1
BITMAP
3FE0
3860
7FE0
F9E0
7FE0
7FE0
7FE0
7FE0
7FF8
7FF8
79B8
7198
ENDCHAR
STARTCHAR U_4F6A
ENCODING 20330
SWIDTH 1000 0
DWIDTH 13 0
BBX 13 12 0 -1
BITMAP
1800
1FF8
3618
77F8
F7F8
37F8
37F8
37F8
37F8
3618
37F8
3618
ENDCHAR
STARTCHAR U_4F6B
ENCODING 20331
SWIDTH 1000 0
DWIDTH 13 0
BBX 13 12 0 -1
BITMAP
1B00
1BF0
3730
7DE0
F0C0
33E0
3E38
37F0
3630
3630
37F0
3630
ENDCHAR
STARTCHAR U_4F6C
ENCODING 20332
SWIDTH 1000 0
DWIDTH 13 0
BBX 13 12 0 -1
BITMAP
1980
1998
37F0
31B0
71E0
FFF8
3180
3370
37C0
3F18
3318
31F8
ENDCHAR
STARTCHAR U_4F6D
ENCODING 20333
SWIDTH 1000 0
DWIDTH 13 0
BBX 13 12 0 -1
BITMAP
1B00
1BF0
3730
7DE0
F0C0
33E0
3EF8
37F0
36C0
3FF8
30C0
30C0
ENDCHAR
STARTCHAR U_4F6E
ENCODING 20334
SWIDTH 1000 0
DWIDTH 13 0
BBX 13 12 0 -1
BITMAP
1980
1980
33C0
7660
FC30
3FF8
3000
37E0
3660
3660
37E0
3660
ENDCHAR
STARTCHAR U_4F6F
ENCODING 20335
SWIDTH 1000 0
DWIDTH 13 0
BBX 13 12 0 -1
BITMAP
1E60
1B60
30C0
3FF8
7180
F180
3FF0
3180
3180
3FF8
3180
3180
ENDCHAR
STARTCHAR U_4F70
ENCODING 20336
SWIDTH 1000 0
DWIDTH 13 0
BBX 13 12 0 -1
BITMAP
1FF8
18C0
3180
3180
77F0
F630
3630
37F0
3630
3630
3630
37F0
ENDCHAR
STARTCHAR U_4F71
ENCODING 20337
SWIDTH 1000 0
DWIDTH 13 0
BBX 13 12 0 -1
BITMAP
0600
0600
0F00
1980
30E0
FFF8
0000
7FF0
0300
1BE0
1B00
FFF8
ENDCHAR
STARTCHAR U_4F72
ENCODING 20338
SWIDTH 1000 0
DWIDTH 13 0
BBX 13 12 0 -1
BITMAP
1B00
1BF0
3630
7F60
F1E0
30C0
3180
37F0
3F30
3330
3330
33F0
ENDCHAR
STARTCHAR U_4F73
ENCODING 20339
SWIDTH 1000 0
DWIDTH 13 0
BBX 13 12 0 -1
BITMAP
1980
1980
37F0
3180
7180
FFF8
3180
3180
37F0
3180
3180
3FF8
ENDCHAR
STARTCHAR U_4F74
ENCODING 20340
SWIDTH 1000 0
DWIDTH 13 0
BBX 13 12 0 -1
BITMAP
1830
1FF8
3660
37E0
7660
F660
37E0
3660
3678
3FE0
3060
3060
ENDCHAR
STARTCHAR U_4F75
ENCODING 20341
SWIDTH 1000 0
DWIDTH 13 0
BBX 13 12 0 -1
BITMAP
1E30
1B60
3060
7FF8
F360
3360
3FF8
3360
3360
3660
3660
3C60
ENDCHAR
STARTCHAR U_4F76
ENCODING 20342
SWIDTH 1000 0
DWIDTH 13 0
BBX 13 12 0 -1
BITMAP
1980
19B0
3FF8
3180
7180
F7F0
3000
37F0
3630
3630
37F0
3630
ENDCHAR
STARTCHAR U_4F77
ENCODING 20343
SWIDTH 1000 0
DWIDTH 13 0
BBX 13 12 0 -1
BITMAP
1FF0
1E30
37F0
7630
F7F0
3700
37B0
37E0
36C0
3660
37B0
3718
ENDCHAR
STARTCHAR U_4F78
ENCODING 20344
SWIDTH 1000 0
DWIDTH 13 0
BBX 13 12 0 -1
BITMAP
1870
1FC0
30C0
7FF8
F0C0
30C0
37F0
3630
3630
3630
37F0
3630
ENDCHAR
STARTCHAR U_4F79
ENCODING 20345
SWIDTH 1000 0
DWIDTH 13 0
BBX 13 12 0 -1
BITMAP
1B00
1BF0
3660
7FF8
FC00
3FE0
3F60
3F60
3F60
3FD8
3F18
39F0
ENDCHAR
STARTCHAR U_4F7A
ENCODING 20346
SWIDTH 1000 0
DWIDTH 13 0
BBX 13 12 0 -1
BITMAP
1980
1980
33C0
7660
FC38
37E0
3180
3180
37E0
3180
3180
3FF8
ENDCHAR
STARTCHAR U_4F7B
ENCODING 20347
SWIDTH 1000 0
DWIDTH 13 0
BBX 13 12 0 -1
BITMAP
1BC0
1BC0
33D8
3FF0
77E0
F3C0
33F0
3FD8
33C0
33D8
36D8
3C78
ENDCHAR
STARTCHAR U_4F7C
ENCODING 20348
SWIDTH 1000 0
DWIDTH 13 0
BBX 13 12 0 -1
BITMAP
1980
18C0
3FF8
3360
7630
FF78
3B78
33C0
3180
33C0
3660
3C38
ENDCHAR
STARTCHAR U_4F7D
ENCODING 20349
SWIDTH 1000 0
DWIDTH 13 0
BBX 13 12 0 -1
BITMAP
1980
1980
3DF8
7718
F6F0
33C0
36C0
3CC0
3DE0
3DE0
3330
3618
ENDCHAR
STARTCHAR U_4F7E
ENCODING 20350
SWIDTH 1000 0
DWIDTH 13 0
BBX 13 12 0 -1
BITMAP
1BC0
3BC0
3660
7C38
F7E0
3660
37E0
3660
37E0
3660
37E0
36C0
ENDCHAR
STARTCHAR U_4F7F
ENCODING 20351
SWIDTH 1000 0
DWIDTH 13 0
BBX 13 12 0 -1
BITMAP
1980
1FF8
3180
3FF0
7DB0
FDB0
3FF0
3D80
3780
3180
33C0
3E78
ENDCHAR
STARTCHAR U_4F80
ENCODING 20352
SWIDTH 1000 0
DWIDTH 13 0
BBX 13 12 0 -1
BITMAP
1818
1FD8
37F8
77F8
F7F8
3FF8
37F8
37F8
37F8
3D98
3DF8
39B0
ENDCHAR
STARTCHAR U_4F81
ENCODING 20353
SWIDTH 1000 0
DWIDTH 13 0
BBX 13 12 0 -1
BITMAP
1980
1F80
37F0
7D80
F980
3FF8
33C0
33C0
36C0
36D8
3CD8
3878
ENDCHAR
STARTCHAR U_4F82
ENCODING 20354
SWIDTH 1000 0
DWIDTH 13 0
BBX 13 12 0 -1
BITMAP
1980
1FF8
3C00
7CF0
FF80
3D80
3DF8
3F80
3D80
3D98
3D98
38F8
ENDCHAR
STARTCHAR U_4F83
ENCODING 20355
SWIDTH 1000 0
DWIDTH 13 0
BBX 13 12 0 -1
BITMAP
1FF0
1E30
3630
37F0
7630
F180
37E0
37E0
37E0
37E0
3DF8
39B8
ENDCHAR
STARTCHAR U_4F84
ENCODING 20356
SWIDTH 1000 0
DWIDTH 13 0
BBX 13 12 0 -1
BITMAP
1830
1FF8
3300
3660
7FF0
F030
3180
3180
3FF0
3180
3180
3FF8
ENDCHAR
STARTCHAR U_4F85
ENCODING 20357
SWIDTH 1000 0
DWIDTH 13 0
BBX 13 12 0 -1
BITMAP
1980
18C0
3FF8
7180
F330
37E0
30C0
31B0
3360
3EF0
3198
3F18
ENDCHAR
STARTCHAR U_4F86
ENCODING 20358
SWIDTH 1000 0
DWIDTH 13 0
BBX 13 12 0 -1
BITMAP
0300
0300
FFF8
3360
3360
7BF0
6F18
C798
0FC0
3B60
E338
0300
ENDCHAR
STARTCHAR U_4F87
ENCODING 20359
SWIDTH 1000 0
DWIDTH 13 0
BBX 13 12 0 -1
BITMAP
1980
1FF8
3180
7FF0
F1B0
3FF0
3D80
3FF8
3198
33F8
3660
3C38
ENDCHAR
STARTCHAR U_4F88
ENCODING 20360
SWIDTH 1000 0
DWIDTH 13 0
BBX 13 12 0 -1
BITMAP
1980
1BF0
3660
3FC0
7180
F300
3EF8
3198
33F0
3660
30C0
3F80
ENDCHAR
STARTCHAR U_4F89
ENCODING 20361
SWIDTH 1000 0
DWIDTH 13 0
BBX 13 12 0 -1
BITMAP
1980
1FF8
33C0
3660
7FF8
F800
3FF8
3300
37F0
3030
31E0
30C0
ENDCHAR
STARTCHAR U_4F8A
ENCODING 20362
SWIDTH 1000 0
DWIDTH 13 0
BBX 13 12 0 -1
BITMAP
3180
31B0
6DB0
E7E0
6180
7FF8
63C0
63C0
66C0
66D8
6CD8
7878
ENDCHAR
STARTCHAR U_4F8B
ENCODING 20363
SWIDTH 1000 0
DWIDTH 13 0
BBX 13 12 0 -1
BITMAP
1818
1FD8
3378
3678
77F8
FDF8
3FF8
3BF8
3378
3318
3678
3C30
ENDCHAR
STARTCHAR U_4F8C
ENCODING 20364
SWIDTH 1000 0
DWIDTH 13 0
BBX 13 12 0 -1
BITMAP
0600
0F00
1980
36C0
FFF8
0330
3FE0
0000
FFF0
0C00
1860
3FF0
ENDCHAR
STARTCHAR U_4F8D
ENCODING 20365
SWIDTH 1000 0
DWIDTH 13 0
BBX 13 12 0 -1
BITMAP
1980
1FF0
3180
3180
7FF8
F060
3FF8
3660
3360
3060
31E0
30C0
ENDCHAR
STARTCHAR U_4F8E
ENCODING 20366
SWIDTH 1000 0
DWIDTH 13 0
BBX 13 12 0 -1
BITMAP
1980
1DB0
37B0
77E0
F180
3FF8
3180
33C0
33E0
37E0
3DB0
3998
ENDCHAR
STARTCHAR U_4F8F
ENCODING 20367
SWIDTH 1000 0
DWIDTH 13 0
BBX 13 12 0 -1
BITMAP
1980
1F80
37F0
3D80
7180
FFF8
3180
33C0
37E0
3DB0
3198
3180
ENDCHAR
STARTCHAR U_4F90
ENCODING 20368
SWIDTH 1000 0
DWIDTH 13 0
BBX 13 12 0 -1
BITMAP
1980
1980
3300
7FF0
FFF0
3FF0
3FF0
3FF0
3FF0
3FF0
3FF0
3FF8
ENDCHAR
STARTCHAR U_4F91
ENCODING 20369
SWIDTH 1000 0
DWIDTH 13 0
BBX 13 12 0 -1
BITMAP
1980
19B0
3FF8
3300
73F0
F730
3FF0
3330
33F0
3330
3330
3370
ENDCHAR
STARTCHAR U_4F92
ENCODING 20370
SWIDTH 1000 0
DWIDTH 13 0
BBX 13 12 0 -1
BITMAP
1980
1FF8
3618
7DB0
F180
3FF8
3360
3660
33C0
3180
33E0
3E38
ENDCHAR
STARTCHAR U_4F93
ENCODING 20371
SWIDTH 1000 0
DWIDTH 13 0
BBX 13 12 0 -1
BITMAP
0D80
0D80
1FF0
39B0
7FF8
D9B0
1FF0
1980
1FF8
1980
1FF8
1980
ENDCHAR
STARTCHAR U_4F94
ENCODING 20372
SWIDTH 1000 0
DWIDTH 13 0
BBX 13 12 0 -1
BITMAP
1980
1B30
37F8
3018
76C0
FFF0
3CC0
38C0
3FF8
30C0
30C0
30C0
ENDCHAR
STARTCHAR U_4F95
ENCODING 20373
SWIDTH 1000 0
DWIDTH 13 0
BBX 13 12 0 -1
BITMAP
0C00
0FF8
1980
1B00
3FF8
7FF8
DFF8
1FF8
1FF8
1FF8
1FF8
1E38
ENDCHAR
STARTCHAR U_4F96
ENCODING 20374
SWIDTH 1000 0
DWIDTH 13 0
BBX 13 12 0 -1
BITMAP
0300
0300
0780
0CC0
1870
3FD8
E000
3FF0
37B0
3FF0
37B0
37F0
ENDCHAR
STARTCHAR U_4F97
ENCODING 20375
SWIDTH 1000 0
DWIDTH 13 0
BBX 13 12 0 -1
BITMAP
1800
1FF8
3C18
3FF8
7C18
FFF8
3F78
3F78
3FF8
3C18
3C78
3C30
ENDCHAR
STARTCHAR U_4F98
ENCODING 20376
SWIDTH 1000 0
DWIDTH 13 0
BBX 13 12 0 -1
BITMAP
0CC0
0C60
1FF8
1E18
3C70
7BC0
D8C0
1FF8
18C0
18D8
18D8
1878
ENDCHAR
STARTCHAR U_4F99
ENCODING 20377
SWIDTH 1000 0
DWIDTH 13 0
BBX 13 12 0 -1
BITMAP
18C0
18F0
30D8
7FF8
F0C0
30C0
3FC0
33C0
3360
33F8
3E38
3018
ENDCHAR
STARTCHAR U_4F9A
ENCODING 20378
SWIDTH 1000 0
DWIDTH 13 0
BBX 13 12 0 -1
BITMAP
1E00
1E00
3FF0
3C30
7FF0
F6F0
37F0
36F0
37F0
3030
30F0
3060
ENDCHAR
STARTCHAR U_4F9B
ENCODING 20379
SWIDTH 1000 0
DWIDTH 13 0
BBX 13 12 0 -1
BITMAP
1B60
1B60
3360
3FF8
7360
F360
3360
3FF8
3360
3330
3618
3C18
ENDCHAR
STARTCHAR U_4F9C
ENCODING 20380
SWIDTH 1000 0
DWIDTH 13 0
BBX 13 12 0 -1
BITMAP
1B00
1B00
37E0
7660
F7E0
37E0
3FF8
3760
37E0
3DE0
3C60
38E0
ENDCHAR
STARTCHAR U_4F9D
ENCODING 20381
SWIDTH 1000 0
DWIDTH 13 0
BBX 13 12 0 -1
BITMAP
1B00
19B0
3FF8
3180
73B0
F6E0
3EC0
3EC0
3660
3660
37B0
3E18
ENDCHAR
STARTCHAR U_4F9E
ENCODING 20382
SWIDTH 1000 0
DWIDTH 13 0
BBX 13 12 0 -1
BITMAP
1B00
1B00
3378
7FF8
F7F8
37F8
37F8
37F8
37F8
3378
37F8
3C00
ENDCHAR
STARTCHAR U_4F9F
ENCODING 20383
SWIDTH 1000 0
DWIDTH 13 0
BBX 13 12 0 -1
BITMAP
1980
1980
3FF8
3300
77F0
F630
3E60
3FF8
3660
3660
37E0
36C0
ENDCHAR
STARTCHAR U_4FA0
ENCODING 20384
SWIDTH 1000 0
DWIDTH 13 0
BBX 13 12 0 -1
BITMAP
18C0
18C0
3FF8
30C0
76D8
F3F0
3FF8
30C0
31E0
31E0
3330
3E18
ENDCHAR
STARTCHAR U_4FA1
ENCODING 20385
SWIDTH 1000 0
DWIDTH 13 0
BBX 13 12 0 -1
BITMAP
1800
1800
3FF0
73C0
F3C0
3FF0
3FF0
3FF0
3FF0
3FF0
3FF0
3FF0
ENDCHAR
STARTCHAR U_4FA2
ENCODING 20386
SWIDTH 1000 0
DWIDTH 13 0
BBX 13 12 0 -1
BITMAP
1800
1FF0
3180
7FF0
FDB0
3FF0
3DB0
3FF8
3C30
3C30
3CF0
3C60
ENDCHAR
STARTCHAR U_4FA3
ENCODING 20387
SWIDTH 1000 0
DWIDTH 13 0
BBX 13 12 0 -1
BITMAP
1800
1FF0
3630
3630
77F0
F630
3000
3FF8
3C18
3C18
3FF8
3C18
ENDCHAR
STARTCHAR U_4FA4
ENCODING 20388
SWIDTH 1000 0
DWIDTH 13 0
BBX 13 12 0 -1
BITMAP
1980
1FF0
31B0
71E0
FFF8
30C0
31F0
3380
37F0
3C30
30F0
3060
ENDCHAR
STARTCHAR U_4FA5
ENCODING 20389
SWIDTH 1000 0
DWIDTH 13 0
BBX 13 12 0 -1
BITMAP
1B00
1FF0
3300
31E0
71D8
F778
3000
3FF8
33C0
33D8
36D8
3C78
ENDCHAR
STARTCHAR U_4FA6
ENCODING 20390
SWIDTH 1000 0
DWIDTH 13 0
BBX 13 12 0 -1
BITMAP
1980
19F8
3180
37F8
7618
F6D8
36D8
36D8
36D8
37F8
3330
3E18
ENDCHAR
STARTCHAR U_4FA7
ENCODING 20391
SWIDTH 1000 0
DWIDTH 13 0
BBX 13 12 0 -1
BITMAP
3018
3F98
39F8
7FF8
7FF8
FFF8
7FF8
7FF8
7FF8
6718
6DF8
78F0
ENDCHAR
STARTCHAR U_4FA8
ENCODING 20392
SWIDTH 1000 0
DWIDTH 13 0
BBX 13 12 0 -1
BITMAP
1870
1FC0
3180
3FF8
7360
F630
3F78
3360
3360
3360
3660
3C60
ENDCHAR
STARTCHAR U_4FA9
ENCODING 20393
SWIDTH 1000 0
DWIDTH 13 0
BBX 13 12 0 -1
BITMAP
1980
1BC0
3660
3C30
7FF8
F000
3FF8
3180
3300
3660
3FF0
3030
ENDCHAR
STARTCHAR U_4FAA
ENCODING 20394
SWIDTH 1000 0
DWIDTH 13 0
BBX 13 12 0 -1
BITMAP
1980
1FF8
3660
33C0
71C0
F760
3C38
3660
3660
3660
3C60
3860
ENDCHAR
STARTCHAR U_4FAB
ENCODING 20395
SWIDTH 1000 0
DWIDTH 13 0
BBX 13 12 0 -1
BITMAP
1980
18C0
3FF8
7600
F7F0
3180
3FF8
3360
3360
31C0
33F0
3E30
ENDCHAR
STARTCHAR U_4FAC
ENCODING 20396
SWIDTH 1000 0
DWIDTH 13 0
BBX 13 12 0 -1
BITMAP
1980
1980
3FF8
3D98
79B0
F3F0
33E0
37C0
3F60
3360
33B0
3318
ENDCHAR
STARTCHAR U_4FAD
ENCODING 20397
SWIDTH 1000 0
DWIDTH 13 0
BBX 13 12 0 -1
BITMAP
1800
1FF0
3630
7630
F7F0
36C0
3F60
3DF0
38D8
3700
31C0
30C0
ENDCHAR
STARTCHAR U_4FAE
ENCODING 20398
SWIDTH 1000 0
DWIDTH 13 0
BBX 13 12 0 -1
BITMAP
1E30
1FF8
3600
3FF0
77B0
F6F0
3FF8
37B0
36F0
3FF8
3030
30E0
ENDCHAR
STARTCHAR U_4FAF
ENCODING 20399
SWIDTH 1000 0
DWIDTH 13 0
BBX 13 12 0 -1
BITMAP
1FE0
1860
3060
3FF8
7600
FFF0
3D80
3980
3FF8
33C0
3660
3C38
ENDCHAR
STARTCHAR U_4FB0
ENCODING 20400
SWIDTH 1000 0
DWIDTH 13 0
BBX 13 12 0 -1
BITMAP
1800
1FF0
3330
7FF8
F330
37F0
3300
37F0
3F30
3B30
33F0
3330
ENDCHAR
STARTCHAR U_4FB1
ENCODING 20401
SWIDTH 1000 0
DWIDTH 13 0
BBX 13 12 0 -1
BITMAP
1800
1FE0
3660
7660
F7E0
3000
3FF0
3180
37E0
3180
3180
3FF0
ENDCHAR
STARTCHAR U_4FB2
ENCODING 20402
SWIDTH 1000 0
DWIDTH 13 0
BBX 13 12 0 -1
BITMAP
1800
1FF8
3C00
7FF0
FC00
3FF8
3FC0
3FF0
3F60
3F60
3BB8
3330
ENDCHAR
STARTCHAR U_4FB3
ENCODING 20403
SWIDTH 1000 0
DWIDTH 13 0
BBX 13 12 0 -1
BITMAP
1980
1980
37E0
77E0
FFF0
39D8
3180
3FF0
3180
3180
3180
3FF8
ENDCHAR
STARTCHAR U_4FB4
ENCODING 20404
SWIDTH 1000 0
DWIDTH 13 0
BBX 13 12 0 -1
BITMAP
0600
0700
0D80
18C0
3FE0
E038
3FE0
1FE0
7FE0
37E0
3F60
F0E0
ENDCHAR
STARTCHAR U_4FB5
ENCODING 20405
SWIDTH 1000 0
DWIDTH 13 0
BBX 13 12 0 -1
BITMAP
3FE0
3060
6FE0
6060
FFE0
6000
7FF8
7ED8
66C0
6380
66C0
7C70
ENDCHAR
STARTCHAR U_4FB6
ENCODING 20406
SWIDTH 1000 0
DWIDTH 13 0
BBX 13 12 0 -1
BITMAP
1FF0
1E30
3630
77F0
F180
3300
3FF8
3C18
3C18
3C18
3FF8
3C18
ENDCHAR
STARTCHAR U_4FB7
ENCODING 20407
SWIDTH 1000 0
DWIDTH 13 0
BBX 13 12 0 -1
BITMAP
1800
1FF0
3630
77F0
F600
3600
37F8
3618
3FD8
3FD8
3FD8
3830
ENDCHAR
STARTCHAR U_4FB8
ENCODING 20408
SWIDTH 1000 0
DWIDTH 13 0
BBX 13 12 0 -1
BITMAP
1800
1FF8
3000
77F0
F630
3630
37F0
3600
3330
3360
30C0
3FF8
ENDCHAR
STARTCHAR U_4FB9
ENCODING 20409
SWIDTH 1000 0
DWIDTH 13 0
BBX 13 12 0 -1
BITMAP
1800
1878
3FE0
7660
F660
3DF8
3E60
3660
3FF8
3E00
3F80
38F8
ENDCHAR
STARTCHAR U_4FBA
ENCODING 20410
SWIDTH 1000 0
DWIDTH 13 0
BBX 13 12 0 -1
BITMAP
1980
1DB0
3DB0
7FF0
F180
33C0
3660
3DB8
37E0
30C0
3180
3180
ENDCHAR
STARTCHAR U_4FBB
ENCODING 20411
SWIDTH 1000 0
DWIDTH 13 0
BBX 13 12 0 -1
BITMAP
1E60
1E60
33C0
7FF0
FC30
3C30
3FF0
33C0
33C0
33C0
36D8
3C78
ENDCHAR
STARTCHAR U_4FBC
ENCODING 20412
SWIDTH 1000 0
DWIDTH 13 0
BBX 13 12 0 -1
BITMAP
18C0
1FF0
30C0
7FF8
FC18
33F0
3060
3FF8
30C0
30C0
33C0
3180
ENDCHAR
STARTCHAR U_4FBD
ENCODING 20413
SWIDTH 1000 0
DWIDTH 13 0
BBX 13 12 0 -1
BITMAP
1800
1FF0
36F0
77F0
F6F0
37F0
30C0
3FF8
3198
3198
3778
3C30
ENDCHAR
STARTCHAR U_4FBE
ENCODING 20414
SWIDTH 1000 0
DWIDTH 13 0
BBX 13 12 0 -1
BITMAP
1980
1FF0
31E0
7FF8
F0C0
3FF0
3360
3EC0
3FF0
30C0
33C0
3180
ENDCHAR
STARTCHAR U_4FBF
ENCODING 20415
SWIDTH 1000 0
DWIDTH 13 0
BBX 13 12 0 -1
BITMAP
1830
1FF8
30C0
37F8
76D8
F7F8
36D8
37F8
33C0
3180
33E0
3E38
ENDCHAR
STARTCHAR U_4FC0
ENCODING 20416
SWIDTH 1000 0
DWIDTH 13 0
BBX 13 12 0 -1
BITMAP
19F0
1F00
3B30
7DB0
FDE0
3600
3FF8
36C0
3EC0
3380
36C0
3C70
ENDCHAR
STARTCHAR U_4FC1
ENCODING 20417
SWIDTH 1000 0
DWIDTH 13 0
BBX 13 12 0 -1
BITMAP
1BF0
1B30
3330
7FF0
FC00
3FF0
31B0
31B0
3FF8
33C0
3660
3C38
ENDCHAR
STARTCHAR U_4FC2
ENCODING 20418
SWIDTH 1000 0
DWIDTH 13 0
BBX 13 12 0 -1
BITMAP
18F0
1F80
3330
7FE0
F180
3330
3FF8
30D8
36C0
36F0
3FD8
3D98
ENDCHAR
STARTCHAR U_4FC3
ENCODING 20419
SWIDTH 1000 0
DWIDTH 13 0
BBX 13 12 0 -1
BITMAP
1FF0
1E30
3630
3630
77F0
F180
3780
37F0
3780
3780
3F80
38F8
ENDCHAR
STARTCHAR U_4FC4
ENCODING 20420
SWIDTH 1000 0
DWIDTH 13 0
BBX 13 12 0 -1
BITMAP
19C0
1FF0
33D8
33C0
7FF8
F3C0
33F0
37F0
3F60
3378
3FF8
3798
ENDCHAR
STARTCHAR U_4FC5
ENCODING 20421
SWIDTH 1000 0
DWIDTH 13 0
BBX 13 12 0 -1
BITMAP
19E0
19B0
3FF8
3180
7D98
F7F0
31E0
33E0
37B0
3D98
3198
3380
ENDCHAR
STARTCHAR U_4FC6
ENCODING 20422
SWIDTH 1000 0
DWIDTH 13 0
BBX 13 12 0 -1
BITMAP
1980
1980
33C0
7660
FC30
3FF8
3180
3FF0
3180
37E0
37B0
3FB0
ENDCHAR
STARTCHAR U_4FC7
ENCODING 20423
SWIDTH 1000 0
DWIDTH 13 0
BBX 13 12 0 -1
BITMAP
1B00
1FF8
3760
7E60
FB60
37F8
3F60
3B60
3360
3360
3FF8
3600
ENDCHAR
STARTCHAR U_4FC8
ENCODING 20424
SWIDTH 1000 0
DWIDTH 13 0
BBX 13 12 0 -1
BITMAP
18C0
1BC0
33F0
76C0
FCC0
37F8
3000
33F0
3330
3330
33F0
3330
ENDCHAR
STARTCHAR U_4FC9
ENCODING 20425
SWIDTH 1000 0
DWIDTH 13 0
BBX 13 12 0 -1
BITMAP
1800
1FF8
30C0
77F0
F1B0
3330
3FF8
3000
37F0
3630
3630
37F0
ENDCHAR
STARTCHAR U_4FCA
ENCODING 20426
SWIDTH 1000 0
DWIDTH 13 0
BBX 13 12 0 -1
BITMAP
1980
1B30
37F8
3360
7630
FD98
33F0
3760
31C0
31C0
3360
3E38
ENDCHAR
STARTCHAR U_4FCB
ENCODING 20427
SWIDTH 1000 0
DWIDTH 13 0
BBX 13 12 0 -1
BITMAP
1800
1FE0
3660
77E0
F000
3FF0
3DB0
3DB0
3FF0
3C18
3C18
37F8
ENDCHAR
STARTCHAR U_4FCC
ENCODING 20428
SWIDTH 1000 0
DWIDTH 13 0
BBX 13 12 0 -1
BITMAP
19E0
19B0
3FF8
7180
FFF0
3DB0
3FF0
3DB0
3FF0
3DB0
3DF0
3DE0
ENDCHAR
STARTCHAR U_4FCD
ENCODING 20429
SWIDTH 1000 0
DWIDTH 13 0
BBX 13 12 0 -1
BITMAP
1980
18C0
37F0
7630
F7F0
3630
37F0
36D8
36F0
3660
37B0
3718
ENDCHAR
STARTCHAR U_4FCE
ENCODING 20430
SWIDTH 1000 0
DWIDTH 13 0
BBX 13 12 0 -1
BITMAP
3000
33F0
3330
3330
7BF0
CF30
3330
33F0
3330
7B30
C330
0FF8
ENDCHAR
STARTCHAR U_4FCF
ENCODING 20431
SWIDTH 1000 0
DWIDTH 13 0
BBX 13 12 0 -1
BITMAP
18C0
1ED8
33F0
30C0
77F8
F618
37F8
3618
37F8
3618
3678
3630
ENDCHAR
STARTCHAR U_4FD0
ENCODING 20432
SWIDTH 1000 0
DWIDTH 13 0
BBX 13 12 0 -1
BITMAP
1998
1F18
3378
3378
7FF8
F378
37F8
3FF8
3F78
3318
3318
3338
ENDCHAR
STARTCHAR U_4FD1
ENCODING 20433
SWIDTH 1000 0
DWIDTH 13 0
BBX 13 12 0 -1
BITMAP
1FF8
19F0
30C0
37F8
76D8
F6D8
37F8
36D8
37F8
36D8
36D8
3638
ENDCHAR
STARTCHAR U_4FD2
ENCODING 20434
SWIDTH 1000 0
DWIDTH 13 0
BBX 13 12 0 -1
BITMAP
1B00
1980
3FF8
3C18
73E0
F000
3FF8
33C0
33C0
36D8
36D8
3C70
ENDCHAR
STARTCHAR U_4FD3
ENCODING 20435
SWIDTH 1000 0
DWIDTH 13 0
BBX 13 12 0 -1
BITMAP
1800
1FF8
33F0
33F0
77E0
F7E0
33F0
37F0
30C0
30C0
30C0
3FF8
ENDCHAR
STARTCHAR U_4FD4
ENCODING 20436
SWIDTH 1000 0
DWIDTH 13 0
BBX 13 12 0 -1
BITMAP
1FF0
1E30
37F0
3630
77F0
F630
37F0
33C0
33C0
33D8
36D8
3C78
ENDCHAR
STARTCHAR U_4FD5
ENCODING 20437
SWIDTH 1000 0
DWIDTH 13 0
BBX 13 12 0 -1
BITMAP
1980
18C0
1FF8
3618
3DB0
7180
FFF0
3380
37C0
37E0
3DB8
3180
ENDCHAR
STARTCHAR U_4FD6
ENCODING 20438
SWIDTH 1000 0
DWIDTH 13 0
BBX 13 12 0 -1
BITMAP
1830
1FF8
30C0
31E0
73F0
F6D8
3CC0
37F0
3630
3630
37F0
3630
ENDCHAR
STARTCHAR U_4FD7
ENCODING 20439
SWIDTH 1000 0
DWIDTH 13 0
BBX 13 12 0 -1
BITMAP
1B60
1B30
3618
3D80
71C0
F360
3630
3FF8
3330
3330
33F0
3330
ENDCHAR
STARTCHAR U_4FD8
ENCODING 20440
SWIDTH 1000 0
DWIDTH 13 0
BBX 13 12 0 -1
BITMAP
1870
1FD8
3798
33F0
7FF0
F060
30C0
3FF8
30C0
30C0
33C0
3180
ENDCHAR
STARTCHAR U_4FD9
ENCODING 20441
SWIDTH 1000 0
DWIDTH 13 0
BBX 13 12 0 -1
BITMAP
1F60
19C0
3760
7300
FFF8
3780
3FF0
3FB0
37B0
37F0
37E0
3180
ENDCHAR
STARTCHAR U_4FDA
ENCODING 20442
SWIDTH 1000 0
DWIDTH 13 0
BBX 13 12 0 -1
BITMAP
1800
1FF0
3DB0
3FF0
7DB0
FFF0
3180
3180
3FF0
3180
3180
3FF8
ENDCHAR
STARTCHAR U_4FDB
ENCODING 20443
SWIDTH 1000 0
DWIDTH 13 0
BBX 13 12 0 -1
BITMAP
1E00
1FE0
3CC0
7FF0
FDB0
3DB0
3FF0
33C0
33C0
36C0
36D8
3C78
ENDCHAR
STARTCHAR U_4FDC
ENCODING 20444
SWIDTH 1000 0
DWIDTH 13 0
BBX 13 12 0 -1
BITMAP
18C0
1FF0
36F0
37F0
76F0
F7F0
3000
3FF8
3300
37F0
3030
30E0
ENDCHAR
STARTCHAR U_4FDD
ENCODING 20445
SWIDTH 1000 0
DWIDTH 13 0
BBX 13 12 0 -1
BITMAP
1FF0
1E30
3630
37F0
70C0
F0C0
3FF8
31C0
33E0
36F0
3CD8
30C0
ENDCHAR
STARTCHAR U_4FDE
ENCODING 20446
SWIDTH 1000 0
DWIDTH 13 0
BBX 13 12 0 -1
BITMAP
0600
0F00
1980
3FE0
E038
7DE0
6DE0
7DE0
6DE0
7DE0
6C60
7CE0
ENDCHAR
STARTCHAR U_4FDF
ENCODING 20447
SWIDTH 1000 0
DWIDTH 13 0
BBX 13 12 0 -1
BITMAP
1B00
1E60
3FF0
3030
7600
F7F0
3D80
3FF8
3180
33C0
3660
3C38
ENDCHAR
STARTCHAR U_4FE0
ENCODING 20448
SWIDTH 1000 0
DWIDTH 13 0
BBX 13 12 0 -1
BITMAP
1980
1980
3FF8
7180
F7E0
37E0
3FF0
3998
33C0
3360
3630
3C18
ENDCHAR
STARTCHAR U_4FE1
ENCODING 20449
SWIDTH 1000 0
DWIDTH 13 0
BBX 13 12 0 -1
BITMAP
1980
18C0
3FF8
3000
77F0
F000
37F0
3000
37F0
3630
3630
37F0
ENDCHAR
STARTCHAR U_4FE2
ENCODING 20450
SWIDTH 1000 0
DWIDTH 13 0
BBX 13 12 0 -1
BITMAP
1B00
1BF0
3730
7DE0
F0E0
33B8
3EC0
31F8
37F0
31E0
30C0
3780
ENDCHAR
STARTCHAR U_4FE3
ENCODING 20451
SWIDTH 1000 0
DWIDTH 13 0
BBX 13 12 0 -1
BITMAP
1FF0
1E30
3630
37F0
7000
F7F0
3180
3FF8
3180
33C0
3660
3C38
ENDCHAR
STARTCHAR U_4FE4
ENCODING 20452
SWIDTH 1000 0
DWIDTH 13 0
BBX 13 12 0 -1
BITMAP
1B30
19E0
1FF8
30D8
77F8
F6C0
37F8
31D8
33F8
36F0
3CC0
30C0
ENDCHAR
STARTCHAR U_4FE5
ENCODING 20453
SWIDTH 1000 0
DWIDTH 13 0
BBX 13 12 0 -1
BITMAP
1980
1FF0
3180
37F0
77B0
F7F0
37B0
37F0
3180
3FF8
3180
3180
ENDCHAR
STARTCHAR U_4FE6
ENCODING 20454
SWIDTH 1000 0
DWIDTH 13 0
BBX 13 12 0 -1
BITMAP
1980
1FF0
3300
3FF0
7300
FFF8
3660
3FF8
3360
31E0
3060
31E0
ENDCHAR
STARTCHAR U_4FE7
ENCODING 20455
SWIDTH 1000 0
DWIDTH 13 0
BBX 13 12 0 -1
BITMAP
1980
1980
1FF8
3180
7180
F7F0
3000
3DB0
3FD8
3BD8
3330
31F0
ENDCHAR
STARTCHAR U_4FE8
ENCODING 20456
SWIDTH 1000 0
DWIDTH 13 0
BBX 13 12 0 -1
BITMAP
3FF8
31E0
3DF8
37F0
7FF8
FC00
3C00
3C00
3C00
3C00
3C00
3800
ENDCHAR
STARTCHAR U_4FE9
ENCODING 20457
SWIDTH 1000 0
DWIDTH 13 0
BBX 13 12 0 -1
BITMAP
1FF8
1B60
3360
3FF8
7F78
FF78
3FF8
3FF8
3ED8
3D98
3C78
3C30
ENDCHAR
STARTCHAR U_4FEA
ENCODING 20458
SWIDTH 1000 0
DWIDTH 13 0
BBX 13 12 0 -1
BITMAP
1830
1FF8
3000
3FF8
7FD8
FFD8
3FF8
3FF8
3FD8
3FD8
3FD8
3FF8
ENDCHAR
STARTCHAR U_4FEB
ENCODING 20459
SWIDTH 1000 0
DWIDTH 13 0
BBX 13 12 0 -1
BITMAP
1980
1980
3FF0
7180
F7E0
33C0
3FF8
3380
37C0
3DE0
39B8
3180
ENDCHAR
STARTCHAR U_4FEC
ENCODING 20460
SWIDTH 1000 0
DWIDTH 13 0
BBX 13 12 0 -1
BITMAP
1800
19C0
3F30
7330
FFF0
3330
37B0
3FE0
3F60
3BD8
33F8
3318
ENDCHAR
STARTCHAR U_4FED
ENCODING 20461
SWIDTH 1000 0
DWIDTH 13 0
BBX 13 12 0 -1
BITMAP
1980
1980
33C0
3660
7C30
FFF8
3000
3D98
36F0
36F0
3060
3FF8
ENDCHAR
STARTCHAR U_4FEE
ENCODING 20462
SWIDTH 1000 0
DWIDTH 13 0
BBX 13 12 0 -1
BITMAP
1B00
1BF8
3F30
3DE0
7CE0
FFB8
3EC0
3DE0
3FD8
3DB0
30E0
3780
ENDCHAR
STARTCHAR U_4FEF
ENCODING 20463
SWIDTH 1000 0
DWIDTH 13 0
BBX 13 12 0 -1
BITMAP
18C0
1FF8
3C30
3DB0
7F30
FFF8
3F30
3FF0
3F70
3F30
3B30
3B70
ENDCHAR
STARTCHAR U_4FF0
ENCODING 20464
SWIDTH 1000 0
DWIDTH 13 0
BBX 13 12 0 -1
BITMAP
19C0
1F00
1B78
3378
7FF8
F778
37F8
3FF8
3F78
3B78
3300
3300
ENDCHAR
STARTCHAR U_4FF1
ENCODING 20465
SWIDTH 1000 0
DWIDTH 13 0
BBX 13 12 0 -1
BITMAP
1FF0
1E30
37F0
3630
77F0
F630
37F0
3630
3FF8
3360
3630
3C18
ENDCHAR
STARTCHAR U_4FF2
ENCODING 20466
SWIDTH 1000 0
DWIDTH 13 0
BBX 13 12 0 -1
BITMAP
1E60
1B60
1FE0
33F8
7F78
FDF8
3B78
3F78
36D8
3FD8
39F8
3330
ENDCHAR
STARTCHAR U_4FF3
ENCODING 20467
SWIDTH 1000 0
DWIDTH 13 0
BBX 13 12 0 -1
BITMAP
1B60
1B60
3F78
3360
7360
FF78
3360
3360
3F78
3360
3360
3360
ENDCHAR
STARTCHAR U_4FF4
ENCODING 20468
SWIDTH 1000 0
DWIDTH 13 0
BBX 13 12 0 -1
BITMAP
1BC0
1B60
3FF0
31E0
73D8
FFF8
33C0
31F0
3730
31E0
31D8
3F78
ENDCHAR
STARTCHAR U_4FF5
ENCODING 20469
SWIDTH 1000 0
DWIDTH 13 0
BBX 13 12 0 -1
BITMAP
1980
1FF8
3180
37F0
7180
FFF8
3380
36D8
3EF0
3E60
3730
3E18
ENDCHAR
STARTCHAR U_4FF6
ENCODING 20470
SWIDTH 1000 0
DWIDTH 13 0
BBX 13 12 0 -1
BITMAP
1E00
1EF8
37F8
7678
FFF8
3678
3778
3FB0
3EF0
3630
3678
3ED8
ENDCHAR
STARTCHAR U_4FF7
ENCODING 20471
SWIDTH 1000 0
DWIDTH 13 0
BBX 13 12 0 -1
BITMAP
3000
3FF8
7FF8
FFF8
7FF8
7FF8
7F98
7F80
7F80
7F98
7F98
76F8
ENDCHAR
STARTCHAR U_4FF8
ENCODING 20472
SWIDTH 1000 0
DWIDTH 13 0
BBX 13 12 0 -1
BITMAP
1980
1FF8
3180
37F0
7B00
FFF8
37B0
3FF8
3180
3FF0
3180
3180
ENDCHAR
STARTCHAR U_4FF9
ENCODING 20473
SWIDTH 1000 0
DWIDTH 13 0
BBX 13 12 0 -1
BITMAP
1800
1FF8
3360
3360
7F78
FC18
3C18
3F78
3360
3360
3360
3FF8
ENDCHAR
STARTCHAR U_4FFA
ENCODING 20474
SWIDTH 1000 0
DWIDTH 13 0
BBX 13 12 0 -1
BITMAP
1980
1FF8
33C0
77E0
F7F0
3FF8
37E0
37E0
37E0
3198
3198
30F8
ENDCHAR
STARTCHAR U_4FFB
ENCODING 20475
SWIDTH 1000 0
DWIDTH 13 0
BBX 13 12 0 -1
BITMAP
1E00
1FF0
1E60
3FC0
3980
77E0
FC38
3FF0
3DB0
3FF0
3DB0
3FF0
ENDCHAR
STARTCHAR U_4FFC
ENCODING 20476
SWIDTH 1000 0
DWIDTH 13 0
BBX 13 12 0 -1
BITMAP
1980
1FF8
3360
37F8
7018
F7F0
3630
37F0
3630
37F0
3630
3670
ENDCHAR
STARTCHAR U_4FFD
ENCODING 20477
SWIDTH 1000 0
DWIDTH 13 0
BBX 13 12 0 -1
BITMAP
1BE0
1E60
3CF8
3CD8
7FE0
FF60
3F60
3F60
3F60
3FF0
3FF0
3B98
ENDCHAR
STARTCHAR U_4FFE
ENCODING 20478
SWIDTH 1000 0
DWIDTH 13 0
BBX 13 12 0 -1
BITMAP
1980
1FF8
36D8
37F8
76D8
F7F8
33C0
36C0
3FF8
30C0
30C0
30C0
ENDCHAR
STARTCHAR U_4FFF
ENCODING 20479
SWIDTH 1000 0
DWIDTH 13 0
BBX 13 12 0 -1
BITMAP
1980
19E0
3180
3FF8
7DB0
FFE0
3DB0
3CF0
3C00
3FE0
3F78
3E78
ENDCHAR
STARTCHAR U_5000
ENCODING 20480
SWIDTH 1000 0
DWIDTH 13 0
BBX 13 12 0 -1
BITMAP
1FF0
1E00
1FE0
3600
37E0
7600
FFF8
3780
37E0
36C0
37E0
3738
ENDCHAR
STARTCHAR U_5001
ENCODING 20481
SWIDTH 1000 0
DWIDTH 13 0
BBX 13 12 0 -1
BITMAP
1E00
1E00
37F8
3F78
3F78
7378
FFF8
3378
3378
37F8
37F8
3CC0
ENDCHAR
STARTCHAR U_5002
ENCODING 20482
SWIDTH 1000 0
DWIDTH 13 0
BBX 13 12 0 -1
BITMAP
1B30
1B30
1E60
3FF8
3660
7660
FFF8
3660
3660
3660
3C60
3860
ENDCHAR
STARTCHAR U_5003
ENCODING 20483
SWIDTH 1000 0
DWIDTH 13 0
BBX 13 12 0 -1
BITMAP
1E60
1E60
37F0
3DF8
7FF8
F360
37C0
3C78
37F0
3630
3630
37F0
ENDCHAR
STARTCHAR U_5004
ENCODING 20484
SWIDTH 1000 0
DWIDTH 13 0
BBX 13 12 0 -1
BITMAP
1F70
19C0
1B60
37B0
3FF8
7300
F7F0
3F30
33F0
3330
33F0
3330
ENDCHAR
STARTCHAR U_5005
ENCODING 20485
SWIDTH 1000 0
DWIDTH 13 0
BBX 13 12 0 -1
BITMAP
1980
18C0
1FF8
3330
3330
77F8
FCC0
30C0
37F8
30C0
30C0
30C0
ENDCHAR
STARTCHAR U_5006
ENCODING 20486
SWIDTH 1000 0
DWIDTH 13 0
BBX 13 12 0 -1
BITMAP
1800
1FF0
3180
3180
7FF8
FD98
3FD8
3FF8
3FF8
3FF8
3D98
3DB8
ENDCHAR
STARTCHAR U_5007
ENCODING 20487
SWIDTH 1000 0
DWIDTH 13 0
BBX 13 12 0 -1
BITMAP
1980
18C0
3FF8
3C18
7600
F7F8
3DF8
3DF8
3FF8
3360
3678
3C38
ENDCHAR
STARTCHAR U_5008
ENCODING 20488
SWIDTH 1000 0
DWIDTH 13 0
BBX 13 12 0 -1
BITMAP
1980
1980
1FF8
37B0
37B0
7FF8
F980
33C0
33E0
37B0
3D98
3180
ENDCHAR
STARTCHAR U_5009
ENCODING 20489
SWIDTH 1000 0
DWIDTH 13 0
BBX 13 12 0 -1
BITMAP
0300
0780
0FC0
3FE0
F878
1FE0
1860
1FE0
1800
3FE0
3C60
6FE0
ENDCHAR
STARTCHAR U_500A
ENCODING 20490
SWIDTH 1000 0
DWIDTH 13 0
BBX 13 12 0 -1
BITMAP
18C0
1EC0
1EC0
3F60
3F38
7EC0
FFE0
3300
3FB0
3F98
3678
33E0
ENDCHAR
STARTCHAR U_500B
ENCODING 20491
SWIDTH 1000 0
DWIDTH 13 0
BBX 13 12 0 -1
BITMAP
1800
1FF8
36D8
37F8
76D8
F6D8
37F8
37F8
37F8
37F8
3618
37F8
ENDCHAR
STARTCHAR U_500C
ENCODING 20492
SWIDTH 1000 0
DWIDTH 13 0
BBX 13 12 0 -1
BITMAP
1980
18C0
3FF8
3C18
77F0
F630
37F0
3600
37F0
3630
37F0
3630
ENDCHAR
STARTCHAR U_500D
ENCODING 20493
SWIDTH 1000 0
DWIDTH 13 0
BBX 13 12 0 -1
BITMAP
1980
18C0
3FF8
3630
7360
FFF8
3000
37F0
3630
3630
37F0
3630
ENDCHAR
STARTCHAR U_500E
ENCODING 20494
SWIDTH 1000 0
DWIDTH 13 0
BBX 13 12 0 -1
BITMAP
1BC0
1BC0
3FF0
3FF0
7FF0
FFF0
3FF0
3FF0
3FF8
3660
3C30
3818
ENDCHAR
STARTCHAR U_500F
ENCODING 20495
SWIDTH 1000 0
DWIDTH 13 0
BBX 13 12 0 -1
BITMAP
1980
19F8
33E0
3CC0
7DE0
FFF8
3CE0
3CF0
3FF8
3CC0
31E0
3738
ENDCHAR
STARTCHAR U_5010
ENCODING 20496
SWIDTH 1000 0
DWIDTH 13 0
BBX 13 12 0 -1
BITMAP
1B00
1BF8
37B0
7EE0
FDB0
3FD8
3FF0
3FF0
3EC0
3DE0
3330
3E18
ENDCHAR
STARTCHAR U_5011
ENCODING 20497
SWIDTH 1000 0
DWIDTH 13 0
BBX 13 12 0 -1
BITMAP
1800
1FF8
3DF8
3FF8
7DF8
FFF8
3C18
3C18
3C18
3C18
3C78
3C30
ENDCHAR
STARTCHAR U_5012
ENCODING 20498
SWIDTH 1000 0
DWIDTH 13 0
BBX 13 12 0 -1
BITMAP
1818
1FD8
3678
3DF8
7FF8
F378
3378
3FF8
3378
3318
33F8
3E30
ENDCHAR
STARTCHAR U_5013
ENCODING 20499
SWIDTH 1000 0
DWIDTH 13 0
BBX 13 12 0 -1
BITMAP
1980
1FB8
1FE0
3DC0
3360
77B8
FD80
37B0
37E0
3DC0
3360
3E38
ENDCHAR
STARTCHAR U_5014
ENCODING 20500
SWIDTH 1000 0
DWIDTH 13 0
BBX 13 12 0 -1
BITMAP
1FF8
1C18
3C18
3FF8
7CC0
FFD8
3FD8
3FF8
3CC0
3FD8
3FD8
3BF8
ENDCHAR
STARTCHAR U_5015
ENCODING 20501
SWIDTH 1000 0
DWIDTH 13 0
BBX 13 12 0 -1
BITMAP
18F0
1F80
3180
3FF0
77E0
FFF8
37E0
37E0
3FF0
3180
3180
37E0
ENDCHAR
STARTCHAR U_5016
ENCODING 20502
SWIDTH 1000 0
DWIDTH 13 0
BBX 13 12 0 -1
BITMAP
1980
1980
1FF0
3180
3FF8
7660
F3C0
37F0
3180
3FF8
3180
3180
ENDCHAR
STARTCHAR U_5017
ENCODING 20503
SWIDTH 1000 0
DWIDTH 13 0
BBX 13 12 0 -1
BITMAP
1800
1FF8
1FF8
37F8
37F8
77F8
F7F8
37F8
37F8
3DF8
3FD8
39B0
ENDCHAR
STARTCHAR U_5018
ENCODING 20504
SWIDTH 1000 0
DWIDTH 13 0
BBX 13 12 0 -1
BITMAP
1ED8
1BD8
33F0
30C0
7FF8
FC18
3FF8
3F78
3FF8
3C18
3C78
3C30
ENDCHAR
STARTCHAR U_5019
ENCODING 20505
SWIDTH 1000 0
DWIDTH 13 0
BBX 13 12 0 -1
BITMAP
1BF0
1830
3C30
3FF8
7F00
FFF0
3EC0
3CC0
3FF8
3CC0
31E0
3738
ENDCHAR
STARTCHAR U_501A
ENCODING 20506
SWIDTH 1000 0
DWIDTH 13 0
BBX 13 12 0 -1
BITMAP
1980
1FF8
3180
33C0
7660
FFF8
3030
37F0
36F0
37F0
3030
30F0
ENDCHAR
STARTCHAR U_501B
ENCODING 20507
SWIDTH 1000 0
DWIDTH 13 0
BBX 13 12 0 -1
BITMAP
1B60
1B60
37F0
3360
73E0
F360
33E0
3360
3FF8
3360
3630
3C18
ENDCHAR
STARTCHAR U_501C
ENCODING 20508
SWIDTH 1000 0
DWIDTH 13 0
BBX 13 12 0 -1
BITMAP
1800
1FF8
36D8
37F8
76D8
F7F8
3618
37F8
37F8
3DF8
3C18
3878
ENDCHAR
STARTCHAR U_501D
ENCODING 20509
SWIDTH 1000 0
DWIDTH 13 0
BBX 13 12 0 -1
BITMAP
1860
7E60
1860
7E60
6660
7E60
66F0
7EF0
18F0
FFF0
1998
1B18
ENDCHAR
STARTCHAR U_501E
ENCODING 20510
SWIDTH 1000 0
DWIDTH 13 0
BBX 13 12 0 -1
BITMAP
1980
18C0
3FF8
3000
77F0
F630
3630
37F0
30C0
33F0
36D8
3DD8
ENDCHAR
STARTCHAR U_501F
ENCODING 20511
SWIDTH 1000 0
DWIDTH 13 0
BBX 13 12 0 -1
BITMAP
1B60
1B60
3FF8
3360
7FF8
F000
37F0
3630
37F0
3630
37F0
3630
ENDCHAR
STARTCHAR U_5020
ENCODING 20512
SWIDTH 1000 0
DWIDTH 13 0
BBX 13 12 0 -1
BITMAP
1BC0
1B60
37F8
36C0
7EC0
FFF0
36C0
36C0
37F0
36C0
37F8
3600
ENDCHAR
STARTCHAR U_5021
ENCODING 20513
SWIDTH 1000 0
DWIDTH 13 0
BBX 13 12 0 -1
BITMAP
1BF0
1B30
33F0
3330
73F0
F000
37F8
3618
37F8
3618
37F8
3618
ENDCHAR
STARTCHAR U_5022
ENCODING 20514
SWIDTH 1000 0
DWIDTH 13 0
BBX 13 12 0 -1
BITMAP
1980
1FF8
3180
37F0
71B0
FFF8
31B0
37F0
3180
37F0
3F80
38F8
ENDCHAR
STARTCHAR U_5023
ENCODING 20515
SWIDTH 1000 0
DWIDTH 13 0
BBX 13 12 0 -1
BITMAP
1E30
1B30
3FE0
36F8
7678
F7F8
37F8
37F8
37F0
3DB0
3FF8
38D8
ENDCHAR
STARTCHAR U_5024
ENCODING 20516
SWIDTH 1000 0
DWIDTH 13 0
BBX 13 12 0 -1
BITMAP
18C0
1FF8
3180
33F0
7330
FFF0
3F30
3FF0
3F30
3FF0
3C00
3FF8
ENDCHAR
STARTCHAR U_5025
ENCODING 20517
SWIDTH 1000 0
DWIDTH 13 0
BBX 13 12 0 -1
BITMAP
1980
18C0
3FF8
3F78
7360
F630
3C18
37F0
3180
3180
3180
3FF8
ENDCHAR
STARTCHAR U_5026
ENCODING 20518
SWIDTH 1000 0
DWIDTH 13 0
BBX 13 12 0 -1
BITMAP
1DB0
1FE0
3180
3FF8
7300
FFF8
3630
3FF8
3360
33E0
3318
31F8
ENDCHAR
STARTCHAR U_5027
ENCODING 20519
SWIDTH 1000 0
DWIDTH 13 0
BBX 13 12 0 -1
BITMAP
1980
18C0
1FF8
3618
3C00
73F0
F000
3FF8
30C0
33F0
36D8
3DD8
ENDCHAR
STARTCHAR U_5028
ENCODING 20520
SWIDTH 1000 0
DWIDTH 13 0
BBX 13 12 0 -1
BITMAP
1FF8
1E18
3618
37F8
76C0
F7F8
36C0
37F8
3F18
3F18
3FF8
3B18
ENDCHAR
STARTCHAR U_5029
ENCODING 20521
SWIDTH 1000 0
DWIDTH 13 0
BBX 13 12 0 -1
BITMAP
1980
1FF8
3180
37F0
7180
FFF8
3630
37F0
3630
37F0
3630
3670
ENDCHAR
STARTCHAR U_502A
ENCODING 20522
SWIDTH 1000 0
DWIDTH 13 0
BBX 13 12 0 -1
BITMAP
1980
1F78
3618
37F8
7618
F618
37F8
37F8
3360
3378
3678
3C38
ENDCHAR
STARTCHAR U_502B
ENCODING 20523
SWIDTH 1000 0
DWIDTH 13 0
BBX 13 12 0 -1
BITMAP
1980
1980
33C0
3660
7FF0
F818
3FF0
3FF0
3FF0
3FF0
3FF0
3C70
ENDCHAR
STARTCHAR U_502C
ENCODING 20524
SWIDTH 1000 0
DWIDTH 13 0
BBX 13 12 0 -1
BITMAP
1980
19F0
3180
7FF0
FC30
3FF0
3C30
3FF0
3180
3FF8
3180
3180
ENDCHAR
STARTCHAR U_502D
ENCODING 20525
SWIDTH 1000 0
DWIDTH 13 0
BBX 13 12 0 -1
BITMAP
1870
1FC0
3180
3FF8
77E0
FDB8
3180
3FF8
3660
33C0
31C0
3F78
ENDCHAR
STARTCHAR U_502E
ENCODING 20526
SWIDTH 1000 0
DWIDTH 13 0
BBX 13 12 0 -1
BITMAP
3FF0
3DB0
3FF0
3DB0
7FF0
FDB0
3180
3FF8
3180
37E0
3DB0
3998
ENDCHAR
STARTCHAR U_502F
ENCODING 20527
SWIDTH 1000 0
DWIDTH 13 0
BBX 13 12 0 -1
BITMAP
1E30
1EF0
36F0
3FD8
7798
F7F8
3F78
3EC0
3EC0
3FB0
37F8
3618
ENDCHAR
STARTCHAR U_5030
ENCODING 20528
SWIDTH 1000 0
DWIDTH 13 0
BBX 13 12 0 -1
BITMAP
1980
1FE0
3180
3FF8
7660
FDB0
3B18
37F0
3F60
39C0
3360
3E38
ENDCHAR
STARTCHAR U_5031
ENCODING 20529
SWIDTH 1000 0
DWIDTH 13 0
BBX 13 12 0 -1
BITMAP
1FF0
1E30
37F0
3630
77F0
F000
3CC0
3CD8
3FF0
3CE0
3FD8
3EF8
ENDCHAR
STARTCHAR U_5032
ENCODING 20530
SWIDTH 1000 0
DWIDTH 13 0
BBX 13 12 0 -1
BITMAP
1980
1FF0
3180
37F0
77B0
F7F0
37B0
37F0
31C0
33E0
37B0
3D98
ENDCHAR
STARTCHAR U_5033
ENCODING 20531
SWIDTH 1000 0
DWIDTH 13 0
BBX 13 12 0 -1
BITMAP
1980
1FF8
3180
37F0
77B0
F7F0
31B0
3FF8
31B0
37F0
3180
3380
ENDCHAR
STARTCHAR U_5034
ENCODING 20532
SWIDTH 1000 0
DWIDTH 13 0
BBX 13 12 0 -1
BITMAP
1980
1FF8
3360
37B0
7FF8
F180
3660
3FF8
3660
3660
3C60
3860
ENDCHAR
STARTCHAR U_5035
ENCODING 20533
SWIDTH 1000 0
DWIDTH 13 0
BBX 13 12 0 -1
BITMAP
18C0
18F0
3FD8
30C0
7FF8
F3C0
3FC0
3F60
3F78
3FF8
3F38
3018
ENDCHAR
STARTCHAR U_5036
ENCODING 20534
SWIDTH 1000 0
DWIDTH 13 0
BBX 13 12 0 -1
BITMAP
1FE0
1E60
37E0
3660
77E0
F660
37E0
3000
3FF8
3360
3630
3C18
ENDCHAR
STARTCHAR U_5037
ENCODING 20535
SWIDTH 1000 0
DWIDTH 13 0
BBX 13 12 0 -1
BITMAP
1980
1980
3FF0
3360
7630
FFF8
3800
3FF8
3180
37E0
3DB0
3B98
ENDCHAR
STARTCHAR U_5038
ENCODING 20536
SWIDTH 1000 0
DWIDTH 13 0
BBX 13 12 0 -1
BITMAP
18F0
1F80
3F30
37E0
7000
F180
3FF8
3180
33C0
37E0
3DB0
3998
ENDCHAR
STARTCHAR U_5039
ENCODING 20537
SWIDTH 1000 0
DWIDTH 13 0
BBX 13 12 0 -1
BITMAP
1980
1980
33C0
3660
7FF0
F998
3FF0
3DB0
3FF0
3180
33C0
3E70
ENDCHAR
STARTCHAR U_503A
ENCODING 20538
SWIDTH 1000 0
DWIDTH 13 0
BBX 13 12 0 -1
BITMAP
1980
1FF8
3180
3FF0
7180
FFF8
3000
37F0
37B0
37B0
33C0
3E70
ENDCHAR
STARTCHAR U_503B
ENCODING 20539
SWIDTH 1000 0
DWIDTH 13 0
BBX 13 12 0 -1
BITMAP
1800
1F80
3FF8
3FD8
7FF0
FFE0
3FF0
3FD8
3FD8
3FF8
33F0
33C0
ENDCHAR
STARTCHAR U_503C
ENCODING 20540
SWIDTH 1000 0
DWIDTH 13 0
BBX 13 12 0 -1
BITMAP
1980
1FF8
3180
37F0
7630
F7F0
3630
37F0
3630
37F0
3630
3FF8
ENDCHAR
STARTCHAR U_503D
ENCODING 20541
SWIDTH 1000 0
DWIDTH 13 0
BBX 13 12 0 -1
BITMAP
1980
1980
33C0
3660
7FF0
F998
3FF0
3180
37F0
3630
3630
37F0
ENDCHAR
STARTCHAR U_503E
ENCODING 20542
SWIDTH 1000 0
DWIDTH 13 0
BBX 13 12 0 -1
BITMAP
1800
1BF8
3CC0
3DF8
7F98
FDF8
3DF8
3DF8
3FF8
3DE0
30F0
3398
ENDCHAR
STARTCHAR U_503F
ENCODING 20543
SWIDTH 1000 0
DWIDTH 13 0
BBX 13 12 0 -1
BITMAP
1980
1FF0
3660
33C0
7FF0
F180
3FF8
3360
3660
37C0
31C0
3F70
ENDCHAR
STARTCHAR U_5040
ENCODING 20544
SWIDTH 1000 0
DWIDTH 13 0
BBX 13 12 0 -1
BITMAP
1E60
1FF0
3660
3180
7FF0
FDB0
3DB0
3FF8
33C0
33C0
3660
3C38
ENDCHAR
STARTCHAR U_5041
ENCODING 20545
SWIDTH 1000 0
DWIDTH 13 0
BBX 13 12 0 -1
BITMAP
1878
1FC0
3DB0
36F0
71E0
F7F0
37B0
37F0
37B0
3FF8
3630
3670
ENDCHAR
STARTCHAR U_5042
ENCODING 20546
SWIDTH 1000 0
DWIDTH 13 0
BBX 13 12 0 -1
BITMAP
1E30
1B60
3FF8
3000
7F98
FDF8
3FF8
3DF8
3FF8
3DF8
3D98
3FB8
ENDCHAR
STARTCHAR U_5043
ENCODING 20547
SWIDTH 1000 0
DWIDTH 13 0
BBX 13 12 0 -1
BITMAP
1FF8
1F30
3FF0
3F30
7FF0
FC60
3CC0
3FF8
3DB0
3CE0
3DB0
3FF8
ENDCHAR
STARTCHAR U_5044
ENCODING 20548
SWIDTH 1000 0
DWIDTH 13 0
BBX 13 12 0 -1
BITMAP
1800
1FF8
3180
3FF0
7FF0
FFF0
3DF0
3180
3FF8
33C0
33C0
3E70
ENDCHAR
STARTCHAR U_5045
ENCODING 20549
SWIDTH 1000 0
DWIDTH 13 0
BBX 13 12 0 -1
BITMAP
18F0
1FC0
30C0
3FF8
76F0
F7F0
36F0
37F0
30C0
37F0
30C0
3FF8
ENDCHAR
STARTCHAR U_5046
ENCODING 20550
SWIDTH 1000 0
DWIDTH 13 0
BBX 13 12 0 -1
BITMAP
1980
1FF0
3180
37E0
7300
FFF8
3360
37F0
3F78
3BE0
3360
33E0
ENDCHAR
STARTCHAR U_5047
ENCODING 20551
SWIDTH 1000 0
DWIDTH 13 0
BBX 13 12 0 -1
BITMAP
7FF8
7B18
7B18
7FF8
F800
7FF8
78D8
78D8
7F70
7860
78F0
7998
ENDCHAR
STARTCHAR U_5048
ENCODING 20552
SWIDTH 1000 0
DWIDTH 13 0
BBX 13 12 0 -1
BITMAP
1FF0
1E30
37F0
3630
77F0
F300
37F8
3ED8
37F8
3638
37D8
3030
ENDCHAR
STARTCHAR U_5049
ENCODING 20553
SWIDTH 1000 0
DWIDTH 13 0
BBX 13 12 0 -1
BITMAP
1B00
1FE0
3360
3FF8
7630
F7F0
3180
3FF0
3D80
3FF8
3180
3180
ENDCHAR
STARTCHAR U_504A
ENCODING 20554
SWIDTH 1000 0
DWIDTH 13 0
BBX 13 12 0 -1
BITMAP
18F0
1F80
3180
37F0
77B0
F7F0
3180
3FF8
3DF8
3DF8
3F98
3C78
ENDCHAR
STARTCHAR U_504B
ENCODING 20555
SWIDTH 1000 0
DWIDTH 13 0
BBX 13 12 0 -1
BITMAP
1FF0
1E30
37F0
37B0
77E0
F7F0
37E0
37E0
3FF8
3DE0
3B60
3E60
ENDCHAR
STARTCHAR U_504C
ENCODING 20556
SWIDTH 1000 0
DWIDTH 13 0
BBX 13 12 0 -1
BITMAP
1B60
1B60
3FF8
7360
F180
3FF8
3300
33F0
3730
3F30
33F0
3330
ENDCHAR
STARTCHAR U_504D
ENCODING 20557
SWIDTH 1000 0
DWIDTH 13 0
BBX 13 12 0 -1
BITMAP
1FE0
1E60
37E0
3660
77E0
F000
3FF8
3180
37F0
3780
3F80
39F8
ENDCHAR
STARTCHAR U_504E
ENCODING 20558
SWIDTH 1000 0
DWIDTH 13 0
BBX 13 12 0 -1
BITMAP
3FF0
3DB0
3FF0
3DB0
7FF0
F000
3FF8
3780
36D8
36F0
3760
3E38
ENDCHAR
STARTCHAR U_504F
ENCODING 20559
SWIDTH 1000 0
DWIDTH 13 0
BBX 13 12 0 -1
BITMAP
18C0
1FF8
3618
37F8
7600
F7F8
37F8
3FF8
3FF8
3FF8
3FF8
3638
ENDCHAR
STARTCHAR U_5050
ENCODING 20560
SWIDTH 1000 0
DWIDTH 13 0
BBX 13 12 0 -1
BITMAP
1B00
1980
3FF0
7660
F3C0
3FF0
3C60
3FC0
3C70
3FC0
3C70
3BC0
ENDCHAR
STARTCHAR U_5051
ENCODING 20561
SWIDTH 1000 0
DWIDTH 13 0
BBX 13 12 0 -1
BITMAP
1800
1FF0
3CF0
3FB0
7F30
FFF0
3FF0
3FF0
3F30
3FF0
3FD8
3818
ENDCHAR
STARTCHAR U_5052
ENCODING 20562
SWIDTH 1000 0
DWIDTH 13 0
BBX 13 12 0 -1
BITMAP
1FE0
1E60
37E0
3660
7FF8
F600
3FF8
3DF8
3B78
36D8
3D98
3370
ENDCHAR
STARTCHAR U_5053
ENCODING 20563
SWIDTH 1000 0
DWIDTH 13 0
BBX 13 12 0 -1
BITMAP
1FF0
1C30
3C30
3FF0
7C00
FFF8
3F60
3FF0
3CC0
3FF0
3CC0
3FF8
ENDCHAR
STARTCHAR U_5054
ENCODING 20564
SWIDTH 1000 0
DWIDTH 13 0
BBX 13 12 0 -1
BITMAP
1800
1FF0
3FF0
3FF0
7000
F7F0
3000
3FF8
3300
37F0
3060
31C0
ENDCHAR
STARTCHAR U_5055
ENCODING 20565
SWIDTH 1000 0
DWIDTH 13 0
BBX 13 12 0 -1
BITMAP
1EC0
1EF8
37E0
36D8
77D8
FE78
3180
37F0
3630
37F0
3630
37F0
ENDCHAR
STARTCHAR U_5056
ENCODING 20566
SWIDTH 1000 0
DWIDTH 13 0
BBX 13 12 0 -1
BITMAP
1980
1FF8
31B0
3FF8
70C0
F180
37F0
3E30
3FF0
3630
3630
37F0
ENDCHAR
STARTCHAR U_5057
ENCODING 20567
SWIDTH 1000 0
DWIDTH 13 0
BBX 13 12 0 -1
BITMAP
19E0
1FB0
3DF8
31C0
7300
FFF0
3630
37F0
3630
37F0
3630
37F0
ENDCHAR
STARTCHAR U_5058
ENCODING 20568
SWIDTH 1000 0
DWIDTH 13 0
BBX 13 12 0 -1
BITMAP
1800
1FF0
1E30
3630
37F0
7000
FFF8
3FD8
3FD8
3FD8
3FF8
3FD8
ENDCHAR
STARTCHAR U_5059
ENCODING 20569
SWIDTH 1000 0
DWIDTH 13 0
BBX 13 12 0 -1
BITMAP
1980
1FF0
3660
33C0
7FF8
FD98
39B0
37F0
37B0
37B0
37F0
3180
ENDCHAR
STARTCHAR U_505A
ENCODING 20570
SWIDTH 1000 0
DWIDTH 13 0
BBX 13 12 0 -1
BITMAP
3CC0
3CC0
6CC0
7FF8
EDE0
6FE0
7FE0
7FE0
7EC0
7EC0
7FE0
6338
ENDCHAR
STARTCHAR U_505B
ENCODING 20571
SWIDTH 1000 0
DWIDTH 13 0
BBX 13 12 0 -1
BITMAP
18F0
1FC0
30C0
3FF8
70C0
F3C0
3EF8
3CD8
3FF8
3CD8
3FF8
3C18
ENDCHAR
STARTCHAR U_505C
ENCODING 20572
SWIDTH 1000 0
DWIDTH 13 0
BBX 13 12 0 -1
BITMAP
1980
1FF8
3000
37F0
7630
FFF8
3C18
37E0
30C0
30C0
33C0
3180
ENDCHAR
STARTCHAR U_505D
ENCODING 20573
SWIDTH 1000 0
DWIDTH 13 0
BBX 13 12 0 -1
BITMAP
1BC0
1FF8
33E0
3FD8
7B78
F7E0
3660
37E0
3660
37E0
3660
36E0
ENDCHAR
STARTCHAR U_505E
ENCODING 20574
SWIDTH 1000 0
DWIDTH 13 0
BBX 13 12 0 -1
BITMAP
19E0
1FE0
3FF8
37E0
77E0
F600
37F0
3180
3FF8
33E0
37B0
3D98
ENDCHAR
STARTCHAR U_505F
ENCODING 20575
SWIDTH 1000 0
DWIDTH 13 0
BBX 13 12 0 -1
BITMAP
3300
3FF0
3C30
6FF0
EC30
6FF0
6000
7FF8
6180
6FF0
6180
7FF8
ENDCHAR
STARTCHAR U_5060
ENCODING 20576
SWIDTH 1000 0
DWIDTH 13 0
BBX 13 12 0 -1
BITMAP
1830
1FF8
33C0
7FF0
FFF0
3FF0
3300
3FF8
3360
36C0
33C0
3E70
ENDCHAR
STARTCHAR U_5061
ENCODING 20577
SWIDTH 1000 0
DWIDTH 13 0
BBX 13 12 0 -1
BITMAP
1B60
1FF0
3360
73E0
F360
33E0
3360
3FF8
37E0
37E0
3730
37F8
ENDCHAR
STARTCHAR U_5062
ENCODING 20578
SWIDTH 1000 0
DWIDTH 13 0
BBX 13 12 0 -1
BITMAP
3760
3C60
3C60
6DF8
7FF0
EDE0
6FE0
7F60
7C60
6CF0
6D98
6F18
ENDCHAR
STARTCHAR U_5063
ENCODING 20579
SWIDTH 1000 0
DWIDTH 13 0
BBX 13 12 0 -1
BITMAP
1980
1FF0
3660
33C0
7FF8
F000
37F0
3630
37F0
3630
37F0
3630
ENDCHAR
STARTCHAR U_5064
ENCODING 20580
SWIDTH 1000 0
DWIDTH 13 0
BBX 13 12 0 -1
BITMAP
1B30
19E0
3FF8
31E0
77F8
F7F8
37F8
3738
3618
37F8
3618
37F8
ENDCHAR
STARTCHAR U_5065
ENCODING 20581
SWIDTH 1000 0
DWIDTH 13 0
BBX 13 12 0 -1
BITMAP
18C0
3FF0
36F0
7FF8
FCF0
3FF0
36C0
3FF0
3CC0
3FF8
3EC0
33F8
ENDCHAR
STARTCHAR U_5066
ENCODING 20582
SWIDTH 1000 0
DWIDTH 13 0
BBX 13 12 0 -1
BITMAP
3FF0
3330
6FE0
EF00
7FF8
6000
67F0
6630
67F0
6630
67F0
6630
ENDCHAR
STARTCHAR U_5067
ENCODING 20583
SWIDTH 1000 0
DWIDTH 13 0
BBX 13 12 0 -1
BITMAP
1980
1FF0
33C0
37E0
7FF8
F7C0
3180
37C0
31E0
37E0
30C0
3F80
ENDCHAR
STARTCHAR U_5068
ENCODING 20584
SWIDTH 1000 0
DWIDTH 13 0
BBX 13 12 0 -1
BITMAP
1BC0
1BF8
3FE0
3FC0
7FD8
FE78
3180
3FF8
33C0
37E0
3DB0
3998
ENDCHAR
STARTCHAR U_5069
ENCODING 20585
SWIDTH 1000 0
DWIDTH 13 0
BBX 13 12 0 -1
BITMAP
1B00
1BE0
1EC0
3FF0
3630
77F0
F630
37F0
3630
37F0
3360
3E30
ENDCHAR
STARTCHAR U_506A
ENCODING 20586
SWIDTH 1000 0
DWIDTH 13 0
BBX 13 12 0 -1
BITMAP
1800
1FF0
1800
37E0
7660
F7E0
3000
3FF0
3DB0
3FF0
3DB0
3FF0
ENDCHAR
STARTCHAR U_506B
ENCODING 20587
SWIDTH 1000 0
DWIDTH 13 0
BBX 13 12 0 -1
BITMAP
3660
3660
3DF8
7E60
67F8
EC30
7FF8
6C30
6DB0
6CF0
6C30
6C70
ENDCHAR
STARTCHAR U_506C
ENCODING 20588
SWIDTH 1000 0
DWIDTH 13 0
BBX 13 12 0 -1
BITMAP
1E00
1FF8
3FF8
3B78
77D8
FDF8
3338
3180
3FF0
3F18
3B30
31F0
ENDCHAR
STARTCHAR U_506D
ENCODING 20589
SWIDTH 1000 0
DWIDTH 13 0
BBX 13 12 0 -1
BITMAP
1830
1FF8
3180
3300
7FF8
FF78
3FF8
3F78
3FF8
3F78
3FF8
3C18
ENDCHAR
STARTCHAR U_506E
ENCODING 20590
SWIDTH 1000 0
DWIDTH 13 0
BBX 13 12 0 -1
BITMAP
1FF0
1E30
37F0
3000
7FF8
F630
37F0
3630
37F0
3630
3FF8
3030
ENDCHAR
STARTCHAR U_506F
ENCODING 20591
SWIDTH 1000 0
DWIDTH 13 0
BBX 13 12 0 -1
BITMAP
1980
1FF8
3000
3FF0
7C30
FFF0
33D8
36F0
3E60
3E60
3730
3618
ENDCHAR
STARTCHAR U_5070
ENCODING 20592
SWIDTH 1000 0
DWIDTH 13 0
BBX 13 12 0 -1
BITMAP
1E00
1FF8
3678
3F78
7678
FFD8
37B8
3180
3FF8
31C0
3360
3E38
ENDCHAR
STARTCHAR U_5071
ENCODING 20593
SWIDTH 1000 0
DWIDTH 13 0
BBX 13 12 0 -1
BITMAP
1870
1FC0
3CC0
3FF8
3CC0
7FF0
FF30
3FF0
3F30
3FF0
3F30
3BF0
ENDCHAR
STARTCHAR U_5072
ENCODING 20594
SWIDTH 1000 0
DWIDTH 13 0
BBX 13 12 0 -1
BITMAP
1800
1FF0
3DB0
3FF0
7DB0
FFF0
3C30
3180
36F0
3E18
3E78
33E0
ENDCHAR
STARTCHAR U_5073
ENCODING 20595
SWIDTH 1000 0
DWIDTH 13 0
BBX 13 12 0 -1
BITMAP
1980
1DB0
3DB0
3FF0
7000
FFF8
3180
3FF8
3FD8
3FD8
3FD8
3C38
ENDCHAR
STARTCHAR U_5074
ENCODING 20596
SWIDTH 1000 0
DWIDTH 13 0
BBX 13 12 0 -1
BITMAP
3018
3F98
3DF8
6FF8
6DF8
EDF8
6FF8
6DF8
6FF8
6018
6D98
78F8
ENDCHAR
STARTCHAR U_5075
ENCODING 20597
SWIDTH 1000 0
DWIDTH 13 0
BBX 13 12 0 -1
BITMAP
1980
31F8
3180
7FF0
FC30
3FF0
3C30
3FF0
3C30
3FF0
3660
3C38
ENDCHAR
STARTCHAR U_5076
ENCODING 20598
SWIDTH 1000 0
DWIDTH 13 0
BBX 13 12 0 -1
BITMAP
1FF0
1FB0
37F0
37B0
77F0
F180
3FF8
3D98
3DF8
3FF8
3C18
3C38
ENDCHAR
STARTCHAR U_5077
ENCODING 20599
SWIDTH 1000 0
DWIDTH 13 0
BBX 13 12 0 -1
BITMAP
1980
1BC0
3660
3FF8
7800
FF98
3DF8
3FF8
3DF8
3FF8
3D98
3FF8
ENDCHAR
STARTCHAR U_5078
ENCODING 20600
SWIDTH 1000 0
DWIDTH 13 0
BBX 13 12 0 -1
BITMAP
1980
1BC0
3660
3C38
7FE0
F000
3FF0
3FF0
3FE0
3FF0
3FF0
3FF0
ENDCHAR
STARTCHAR U_5079
ENCODING 20601
SWIDTH 1000 0
DWIDTH 13 0
BBX 13 12 0 -1
BITMAP
3300
33F0
6730
79E0
F8C0
7BE0
7E38
7FF0
7EF0
7FF0
66F0
67F0
ENDCHAR
STARTCHAR U_507A
ENCODING 20602
SWIDTH 1000 0
DWIDTH 13 0
BBX 13 12 0 -1
BITMAP
3660
37E0
3DF0
7FF8
6360
E7C0
7C78
6FE0
6C60
6FE0
6C60
6FE0
ENDCHAR
STARTCHAR U_507B
ENCODING 20603
SWIDTH 1000 0
DWIDTH 13 0
BBX 13 12 0 -1
BITMAP
1DB0
1FE0
3180
3FF8
77E0
FDB8
3180
3FF8
3360
37C0
31E0
3F38
ENDCHAR
STARTCHAR U_507C
ENCODING 20604
SWIDTH 1000 0
DWIDTH 13 0
BBX 13 12 0 -1
BITMAP
3180
31E0
3180
6FF0
6030
FFF8
6030
6FF0
6D80
6DF0
7F80
73F8
ENDCHAR
STARTCHAR U_507D
ENCODING 20605
SWIDTH 1000 0
DWIDTH 13 0
BBX 13 12 0 -1
BITMAP
3D80
3780
3780
6FE0
6660
EFF0
6C30
6FF8
7818
77F8
6FD8
6070
ENDCHAR
STARTCHAR U_507E
ENCODING 20606
SWIDTH 1000 0
DWIDTH 13 0
BBX 13 12 0 -1
BITMAP
1980
1FF0
37E0
3FF8
7660
FFF0
3DB0
3DB0
3DB0
3DB0
33C0
3E78
ENDCHAR
STARTCHAR U_507F
ENCODING 20607
SWIDTH 1000 0
DWIDTH 13 0
BBX 13 12 0 -1
BITMAP
1ED8
1BF0
30C0
3FF8
7C18
F7F0
3000
3FF8
3180
3330
37F8
3018
ENDCHAR
STARTCHAR U_5080
ENCODING 20608
SWIDTH 1000 0
DWIDTH 13 0
BBX 13 12 0 -1
BITMAP
1980
1FF0
3DB0
3FF0
7DB0
FFF0
3180
31E0
33F0
37F8
3D98
38F8
ENDCHAR
STARTCHAR U_5081
ENCODING 20609
SWIDTH 1000 0
DWIDTH 13 0
BBX 13 12 0 -1
BITMAP
3180
3FF0
3DB0
6FF0
6DB0
EFF0
6180
6FF0
6660
63C0
6180
7FF8
ENDCHAR
STARTCHAR U_5082
ENCODING 20610
SWIDTH 1000 0
DWIDTH 13 0
BBX 13 12 0 -1
BITMAP
3078
3FC0
3CF0
6CC0
6FF8
EFD8
6FF0
6FC0
6FF0
6FE0
7FF8
7F78
ENDCHAR
STARTCHAR U_5083
ENCODING 20611
SWIDTH 1000 0
DWIDTH 13 0
BBX 13 12 0 -1
BITMAP
3180
3FF0
6180
6FF0
E180
6FF0
6360
67C0
6360
67F0
6DE0
7FB8
ENDCHAR
STARTCHAR U_5084
ENCODING 20612
SWIDTH 1000 0
DWIDTH 13 0
BBX 13 12 0 -1
BITMAP
3180
31B0
3FF8
6FF0
6660
FFF8
6C30
6FF0
6C30
6FF0
6C30
6FF0
ENDCHAR
STARTCHAR U_5085
ENCODING 20613
SWIDTH 1000 0
DWIDTH 13 0
BBX 13 12 0 -1
BITMAP
19B0
3FF8
3180
7FF0
FDB0
3FF0
3DB0
3FF0
3060
3FF8
3360
30E0
ENDCHAR
STARTCHAR U_5086
ENCODING 20614
SWIDTH 1000 0
DWIDTH 13 0
BBX 13 12 0 -1
BITMAP
3FF8
3CC0
3FF0
6F30
6FF0
EF30
6FF0
6CC0
6FF0
7BD8
7ED8
7DD8
ENDCHAR
STARTCHAR U_5087
ENCODING 20615
SWIDTH 1000 0
DWIDTH 13 0
BBX 13 12 0 -1
BITMAP
1B60
1FF8
3360
3000
7FF8
F660
37E0
3660
37E0
3678
3FE0
3060
ENDCHAR
STARTCHAR U_5088
ENCODING 20616
SWIDTH 1000 0
DWIDTH 13 0
BBX 13 12 0 -1
BITMAP
1FF8
19E0
37F8
37F8
77F8
F7F8
30C0
3FF8
30C0
31E0
33F0
36D8
ENDCHAR
STARTCHAR U_5089
ENCODING 20617
SWIDTH 1000 0
DWIDTH 13 0
BBX 13 12 0 -1
BITMAP
3FF8
3C00
3FF0
6C00
6FF8
EF60
6FF8
6C60
6FF8
7B60
79E0
70C0
ENDCHAR
STARTCHAR U_508A
ENCODING 20618
SWIDTH 1000 0
DWIDTH 13 0
BBX 13 12 0 -1
BITMAP
1FE0
1E60
37E0
3000
7FF0
FDB0
3EF0
3F70
3DB0
3FF0
3660
3C30
ENDCHAR
STARTCHAR U_508B
ENCODING 20619
SWIDTH 1000 0
DWIDTH 13 0
BBX 13 12 0 -1
BITMAP
1B60
3FF8
3360
77F0
F360
3FF8
37B0
37F0
37B0
3FF8
3630
3670
ENDCHAR
STARTCHAR U_508C
ENCODING 20620
SWIDTH 1000 0
DWIDTH 13 0
BBX 13 12 0 -1
BITMAP
3FF0
3D80
3FF0
6D80
6FF0
ED80
6FF8
6018
7FF8
7FF8
7F18
6078
ENDCHAR
STARTCHAR U_508D
ENCODING 20621
SWIDTH 1000 0
DWIDTH 13 0
BBX 13 12 0 -1
BITMAP
1980
1FF8
3630
3360
7FF8
FCD8
3FF8
3300
33F0
3330
36F0
3C60
ENDCHAR
STARTCHAR U_508E
ENCODING 20622
SWIDTH 1000 0
DWIDTH 13 0
BBX 13 12 0 -1
BITMAP
1980
1FF8
3180
37F0
7630
F7F0
3630
37F0
3630
3FF8
3360
3E38
ENDCHAR
STARTCHAR U_508F
ENCODING 20623
SWIDTH 1000 0
DWIDTH 13 0
BBX 13 12 0 -1
BITMAP
18C0
1FF8
36C0
37F0
76F0
F7F8
36F0
37F0
36C0
3FF0
3F30
3BF0
ENDCHAR
STARTCHAR U_5090
ENCODING 20624
SWIDTH 1000 0
DWIDTH 13 0
BBX 13 12 0 -1
BITMAP
1980
1FF8
3000
33E0
7360
F3E0
3FF8
3C18
3FF8
3F78
3FF8
3C38
ENDCHAR
STARTCHAR U_5091
ENCODING 20625
SWIDTH 1000 0
DWIDTH 13 0
BBX 13 12 0 -1
BITMAP
1E30
1FF8
3FF0
3FF0
73F8
F630
3DB0
3FF8
37E0
3DB0
3998
3180
ENDCHAR
STARTCHAR U_5092
ENCODING 20626
SWIDTH 1000 0
DWIDTH 13 0
BBX 13 12 0 -1
BITMAP
18F0
1FB0
3DB0
33E0
77C0
F360
3FF0
3180
3FF8
31C0
3360
3E38
ENDCHAR
STARTCHAR U_5093
ENCODING 20627
SWIDTH 1000 0
DWIDTH 13 0
BBX 13 12 0 -1
BITMAP
3180
30C0
3FF8
6C18
6FF8
EC00
6FF8
6D98
6FF8
6FB8
7FF8
73B8
ENDCHAR
STARTCHAR U_5094
ENCODING 20628
SWIDTH 1000 0
DWIDTH 13 0
BBX 13 12 0 -1
BITMAP
1E60
1BC0
3FF8
33C0
7FF0
F3F0
3FF8
33F0
3FF0
37E0
3FF0
3BD8
ENDCHAR
STARTCHAR U_5095
ENCODING 20629
SWIDTH 1000 0
DWIDTH 13 0
BBX 13 12 0 -1
BITMAP
1980
1980
3FF8
7FD8
F3F0
36C0
3FF0
3EC0
37F0
36C0
36C0
37F8
ENDCHAR
STARTCHAR U_5096
ENCODING 20630
SWIDTH 1000 0
DWIDTH 13 0
BBX 13 12 0 -1
BITMAP
1980
1BC0
37E0
3CF8
77F0
36F0
37F0
3600
3FF0
3F30
3F30
3BF0
ENDCHAR
STARTCHAR U_5097
ENCODING 20631
SWIDTH 1000 0
DWIDTH 13 0
BBX 13 12 0 -1
BITMAP
1980
1FF8
3360
3FC0
71E0
FFF0
3030
3FF0
3DB0
3FF0
3DB0
3FF0
ENDCHAR
STARTCHAR U_5098
ENCODING 20632
SWIDTH 1000 0
DWIDTH 13 0
BBX 13 12 0 -1
BITMAP
0300
0780
0FE0
7B78
1B60
3FF0
1B60
3FF0
0300
7FF8
0300
0300
ENDCHAR
STARTCHAR U_5099
ENCODING 20633
SWIDTH 1000 0
DWIDTH 13 0
BBX 13 12 0 -1
BITMAP
1B60
1FF8
3360
3FF8
7300
F7F8
36D8
3FF8
36D8
37F8
36D8
36F8
ENDCHAR
STARTCHAR U_509A
ENCODING 20634
SWIDTH 1000 0
DWIDTH 13 0
BBX 13 12 0 -1
BITMAP
1E60
1E60
3FF8
3FD8
7DD8
FBD8
3F78
3678
3730
37F0
3CD8
3B98
ENDCHAR
STARTCHAR U_509B
ENCODING 20635
SWIDTH 1000 0
DWIDTH 13 0
BBX 13 12 0 -1
BITMAP
1980
18C0
3FF8
3F78
77B0
FF78
3630
3FF8
3E30
3630
37F0
3630
ENDCHAR
STARTCHAR U_509C
ENCODING 20636
SWIDTH 1000 0
DWIDTH 13 0
BBX 13 12 0 -1
BITMAP
18F0
1FB0
3F30
37E0
7600
F7F0
3D80
3FF8
3180
3DB0
3FF0
3C30
ENDCHAR
STARTCHAR U_509D
ENCODING 20637
SWIDTH 1000 0
DWIDTH 13 0
BBX 13 12 0 -1
BITMAP
1FF0
1E30
37F0
3630
77F0
F000
3FF8
37F8
33B8
3FF8
3198
33B8
ENDCHAR
STARTCHAR U_509E
ENCODING 20638
SWIDTH 1000 0
DWIDTH 13 0
BBX 13 12 0 -1
BITMAP
1E60
1BC0
3FF8
3180
77F0
F180
3FF8
3300
37F0
3D80
3980
3FF8
ENDCHAR
STARTCHAR U_509F
ENCODING 20639
SWIDTH 1000 0
DWIDTH 13 0
BBX 13 12 0 -1
BITMAP
36C0
36C0
3C60
6F30
7ED8
EFE0
6000
7FF8
7BD8
6F78
7BD8
6738
ENDCHAR
STARTCHAR U_50A0
ENCODING 20640
SWIDTH 1000 0
DWIDTH 13 0
BBX 13 12 0 -1
BITMAP
3C30
3630
3FB0
60F8
7F30
E1B0
7FF0
60F0
7F30
7B30
7FF0
7B60
ENDCHAR
STARTCHAR U_50A1
ENCODING 20641
SWIDTH 1000 0
DWIDTH 13 0
BBX 13 12 0 -1
BITMAP
3CC0
3660
3660
7FF8
6000
FBF0
7BF0
6FF0
66F0
67F0
7C60
63F8
ENDCHAR
STARTCHAR U_50A2
ENCODING 20642
SWIDTH 1000 0
DWIDTH 13 0
BBX 13 12 0 -1
BITMAP
1980
1FF8
3C18
37F0
7180
F398
3FF0
33E0
37E0
33F0
3ED8
31C0
ENDCHAR
STARTCHAR U_50A3
ENCODING 20643
SWIDTH 1000 0
DWIDTH 13 0
BBX 13 12 0 -1
BITMAP
1980
1FF0
3300
3FF0
7300
FFF8
3DB0
3FF8
33C0
3FE0
39B0
3380
ENDCHAR
STARTCHAR U_50A4
ENCODING 20644
SWIDTH 1000 0
DWIDTH 13 0
BBX 13 12 0 -1
BITMAP
36E0
3FF0
36F0
7FF8
6CC0
FFF0
6CF0
7E60
7F60
6678
7FF8
6798
ENDCHAR
STARTCHAR U_50A5
ENCODING 20645
SWIDTH 1000 0
DWIDTH 13 0
BBX 13 12 0 -1
BITMAP
1FB0
1FE0
3FF8
3C18
77F0
F630
3630
37F0
33C0
33D8
36D8
3C78
ENDCHAR
STARTCHAR U_50A6
ENCODING 20646
SWIDTH 1000 0
DWIDTH 13 0
BBX 13 12 0 -1
BITMAP
37E0
3660
37E0
67E0
7FF8
F818
67E0
6660
67E0
6660
67E0
6660
ENDCHAR
STARTCHAR U_50A7
ENCODING 20647
SWIDTH 1000 0
DWIDTH 13 0
BBX 13 12 0 -1
BITMAP
1980
1FF8
3C78
3FC0
7600
F7F0
36C0
36C0
3FF8
3000
3660
3C30
ENDCHAR
STARTCHAR U_50A8
ENCODING 20648
SWIDTH 1000 0
DWIDTH 13 0
BBX 13 12 0 -1
BITMAP
30C0
3CD8
6FF8
60F0
FFF8
6CC0
6DF8
6F98
6DF8
6F98
7DF8
6198
ENDCHAR
STARTCHAR U_50A9
ENCODING 20649
SWIDTH 1000 0
DWIDTH 13 0
BBX 13 12 0 -1
BITMAP
31E0
31E0
7FF8
67E0
FFE0
7FF0
6DE0
6DF0
7FE0
77E0
61F8
6180
ENDCHAR
STARTCHAR U_50AA
ENCODING 20650
SWIDTH 1000 0
DWIDTH 13 0
BBX 13 12 0 -1
BITMAP
1980
1B60
37F0
36D8
7FF8
F180
37E0
3DB8
37C0
33B0
30E0
3F80
ENDCHAR
STARTCHAR U_50AB
ENCODING 20651
SWIDTH 1000 0
DWIDTH 13 0
BBX 13 12 0 -1
BITMAP
3FF0
3DB0
3FF0
6DB0
6FF0
E360
6FC0
6330
6FF0
67E0
6DB0
7BB0
ENDCHAR
STARTCHAR U_50AC
ENCODING 20652
SWIDTH 1000 0
DWIDTH 13 0
BBX 13 12 0 -1
BITMAP
18C0
1ED8
37F8
33C0
76C0
F7F8
3EC0
3FF8
36C0
37F8
36C0
37F8
ENDCHAR
STARTCHAR U_50AD
ENCODING 20653
SWIDTH 1000 0
DWIDTH 13 0
BBX 13 12 0 -1
BITMAP
18C0
3FF8
3CC0
3FF0
7CF0
FFF8
3FF0
3FF8
3FD8
3FF8
3FD8
3EF8
ENDCHAR
STARTCHAR U_50AE
ENCODING 20654
SWIDTH 1000 0
DWIDTH 13 0
BBX 13 12 0 -1
BITMAP
1BC0
1FF8
33C0
3FF8
7FD8
FFF8
3FD8
3FF8
3630
37F0
3630
37F0
ENDCHAR
STARTCHAR U_50AF
ENCODING 20655
SWIDTH 1000 0
DWIDTH 13 0
BBX 13 12 0 -1
BITMAP
1980
1FF0
36F0
37F0
77F0
F7F0
37F0
3630
33C0
3FD8
3F78
31E0
ENDCHAR
STARTCHAR U_50B0
ENCODING 20656
SWIDTH 1000 0
DWIDTH 13 0
BBX 13 12 0 -1
BITMAP
18C0
1ED8
37F8
3000
7FF8
FFD8
3FF8
3FD8
3FF8
3FD8
3FD8
3FF8
ENDCHAR
STARTCHAR U_50B1
ENCODING 20657
SWIDTH 1000 0
DWIDTH 13 0
BBX 13 12 0 -1
BITMAP
37B0
37B0
3DB0
7BF8
F718
3C60
3F60
3F78
3F60
3F60
3FE0
3CF8
ENDCHAR
STARTCHAR U_50B2
ENCODING 20658
SWIDTH 1000 0
DWIDTH 13 0
BBX 13 12 0 -1
BITMAP
3CC0
3FC0
6CC0
7FF8
EDB0
7FB0
6DB0
7EF0
7EE0
7E60
76F0
6F98
ENDCHAR
STARTCHAR U_50B3
ENCODING 20659
SWIDTH 1000 0
DWIDTH 13 0
BBX 13 12 0 -1
BITMAP
1980
1FF8
37B0
37F0
77B0
F7F0
31B0
3FF8
3060
3FF8
3360
33E0
ENDCHAR
STARTCHAR U_50B4
ENCODING 20660
SWIDTH 1000 0
DWIDTH 13 0
BBX 13 12 0 -1
BITMAP
1FF8
3C00
3FF0
7F30
FFF0
3C00
3FF8
3FF8
3FF8
3FF8
3C00
3FF8
ENDCHAR
STARTCHAR U_50B5
ENCODING 20661
SWIDTH 1000 0
DWIDTH 13 0
BBX 13 12 0 -1
BITMAP
1980
1FF8
3180
37F0
7180
FFF8
3630
37F0
3630
37F0
3360
3E38
ENDCHAR
STARTCHAR U_50B6
ENCODING 20662
SWIDTH 1000 0
DWIDTH 13 0
BBX 13 12 0 -1
BITMAP
18F0
30D8
3FF8
7F60
FFE0
3F78
3FF8
3F70
3FB0
3FE0
3FF8
3F18
ENDCHAR
STARTCHAR U_50B7
ENCODING 20663
SWIDTH 1000 0
DWIDTH 13 0
BBX 13 12 0 -1
BITMAP
1B00
1FF8
3730
3FF0
7330
FFF8
3300
33F8
37F8
3FD8
3798
3370
ENDCHAR
STARTCHAR U_50B8
ENCODING 20664
SWIDTH 1000 0
DWIDTH 13 0
BBX 13 12 0 -1
BITMAP
1980
1FF8
3180
3FF8
7DB0
FFF8
3DB0
3FF8
33C0
33C0
3660
3C38
ENDCHAR
STARTCHAR U_50B9
ENCODING 20665
SWIDTH 1000 0
DWIDTH 13 0
BBX 13 12 0 -1
BITMAP
1980
1FF0
3660
33C0
7FF8
F630
37F0
3630
37F0
3360
3378
3E78
ENDCHAR
STARTCHAR U_50BA
ENCODING 20666
SWIDTH 1000 0
DWIDTH 13 0
BBX 13 12 0 -1
BITMAP
1E60
1FF8
3DF8
3FB8
7B30
FFF8
3C00
3FF8
33C0
36F0
3FD8
3180
ENDCHAR
STARTCHAR U_50BB
ENCODING 20667
SWIDTH 1000 0
DWIDTH 13 0
BBX 13 12 0 -1
BITMAP
1980
1FF8
37F8
36D8
77F8
F7F8
3630
3FF8
3360
37C0
31E0
3738
ENDCHAR
STARTCHAR U_50BC
ENCODING 20668
SWIDTH 1000 0
DWIDTH 13 0
BBX 13 12 0 -1
BITMAP
1B60
1FF8
3360
33E0
7180
F7F0
37B0
37F0
3180
3FF8
3360
3E38
ENDCHAR
STARTCHAR U_50BD
ENCODING 20669
SWIDTH 1000 0
DWIDTH 13 0
BBX 13 12 0 -1
BITMAP
1980
1FF8
3360
3FF8
7630
F7F0
3630
37F0
3180
3FF8
3180
3180
ENDCHAR
STARTCHAR U_50BE
ENCODING 20670
SWIDTH 1000 0
DWIDTH 13 0
BBX 13 12 0 -1
BITMAP
1BF8
1860
3DF8
3D98
7FF8
FD98
3DF8
3F98
3FF8
3D98
30F0
3398
ENDCHAR
STARTCHAR U_50BF
ENCODING 20671
SWIDTH 1000 0
DWIDTH 13 0
BBX 13 12 0 -1
BITMAP
1FF8
18C0
33F0
33C0
7FF8
F600
37F0
3600
37F8
37F8
3FD8
3BF8
ENDCHAR
STARTCHAR U_50C0
ENCODING 20672
SWIDTH 1000 0
DWIDTH 13 0
BBX 13 12 0 -1
BITMAP
3FF0
3FF0
3FF8
6FF0
7BF8
E000
7FF8
7998
6FF0
6DB0
6DB0
6DF0
ENDCHAR
STARTCHAR U_50C1
ENCODING 20673
SWIDTH 1000 0
DWIDTH 13 0
BBX 13 12 0 -1
BITMAP
1870
1FF0
37E0
3FF8
73C0
F7E0
3DB8
3000
33F0
3FD8
3F78
31E0
ENDCHAR
STARTCHAR U_50C2
ENCODING 20674
SWIDTH 1000 0
DWIDTH 13 0
BBX 13 12 0 -1
BITMAP
3180
3FF0
6DB0
FFF8
6DB0
6FF0
6DB0
6FF0
6300
7FF8
66C0
6FF0
ENDCHAR
STARTCHAR U_50C3
ENCODING 20675
SWIDTH 1000 0
DWIDTH 13 0
BBX 13 12 0 -1
BITMAP
33C0
3FF0
7BC0
FFF8
7018
7FF8
7B78
7FF8
7B78
7FF8
7B78
7B78
ENDCHAR
STARTCHAR U_50C4
ENCODING 20676
SWIDTH 1000 0
DWIDTH 13 0
BBX 13 12 0 -1
BITMAP
3FF0
33C0
6FF0
EFF0
6FF0
6000
67E0
6000
7FF8
6180
67E0
6DB0
ENDCHAR
STARTCHAR U_50C5
ENCODING 20677
SWIDTH 1000 0
DWIDTH 13 0
BBX 13 12 0 -1
BITMAP
33C0
3FF8
63C0
EFF0
6DB0
6FF0
6180
6FF0
6180
67E0
6180
7FF8
ENDCHAR
STARTCHAR U_50C6
ENCODING 20678
SWIDTH 1000 0
DWIDTH 13 0
BBX 13 12 0 -1
BITMAP
30C0
37F8
78C0
EFF0
63F0
7FF0
6FF0
6FF0
6CC0
6FF8
6CC0
7FF8
ENDCHAR
STARTCHAR U_50C7
ENCODING 20679
SWIDTH 1000 0
DWIDTH 13 0
BBX 13 12 0 -1
BITMAP
1FF8
1DF8
37B8
33F8
7FD8
F360
3EF8
3380
30E0
3780
3070
3FC0
ENDCHAR
STARTCHAR U_50C8
ENCODING 20680
SWIDTH 1000 0
DWIDTH 13 0
BBX 13 12 0 -1
BITMAP
1FE0
3660
37E0
7660
FFF0
3FF0
3FF0
3000
3FF0
3660
33C0
3E70
ENDCHAR
STARTCHAR U_50C9
ENCODING 20681
SWIDTH 1000 0
DWIDTH 13 0
BBX 13 12 0 -1
BITMAP
0700
0D80
38E0
EFB8
0000
7DF0
6DB0
7DF0
18C0
18C0
3DE0
E730
ENDCHAR
STARTCHAR U_50CA
ENCODING 20682
SWIDTH 1000 0
DWIDTH 13 0
BBX 13 12 0 -1
BITMAP
3FF8
36C0
7FF0
7EF0
FFF0
6180
7FF8
67E0
6EF0
7FD8
6630
63F0
ENDCHAR
STARTCHAR U_50CB
ENCODING 20683
SWIDTH 1000 0
DWIDTH 13 0
BBX 13 12 0 -1
BITMAP
1BC0
3FF0
7FF8
F8C0
37F0
3630
37F0
3630
37F0
3630
37F0
3E38
ENDCHAR
STARTCHAR U_50CC
ENCODING 20684
SWIDTH 1000 0
DWIDTH 13 0
BBX 13 12 0 -1
BITMAP
3660
3FE0
66F8
7FD8
FF98
7FF0
7FF0
7FE0
6660
7FF0
66F0
6798
ENDCHAR
STARTCHAR U_50CD
ENCODING 20685
SWIDTH 1000 0
DWIDTH 13 0
BBX 13 12 0 -1
BITMAP
33E0
3E60
66F8
7FF8
FFF8
7FF8
7FF8
7FF8
6678
7FF8
66D8
7FF0
ENDCHAR
STARTCHAR U_50CE
ENCODING 20686
SWIDTH 1000 0
DWIDTH 13 0
BBX 13 12 0 -1
BITMAP
3000
3FF0
3FF0
6FF0
6CD8
EFF8
63C0
6FF0
63C0
7FF8
6660
7C38
ENDCHAR
STARTCHAR U_50CF
ENCODING 20687
SWIDTH 1000 0
DWIDTH 13 0
BBX 13 12 0 -1
BITMAP
1BE0
1EC0
3FF8
36D8
77F8
F318
3FB0
33E0
3FE0
33F0
3ED8
31C0
ENDCHAR
STARTCHAR U_50D0
ENCODING 20688
SWIDTH 1000 0
DWIDTH 13 0
BBX 13 12 0 -1
BITMAP
33C0
3FF8
3180
6FF0
E1B0
7FF8
67E0
7FF8
6000
6FF0
6C30
6FF0
ENDCHAR
STARTCHAR U_50D1
ENCODING 20689
SWIDTH 1000 0
DWIDTH 13 0
BBX 13 12 0 -1
BITMAP
3FF0
3180
3FF8
6660
6FF8
FBC0
7FF8
7818
7BD8
7BD8
7BD8
7838
ENDCHAR
STARTCHAR U_50D2
ENCODING 20690
SWIDTH 1000 0
DWIDTH 13 0
BBX 13 12 0 -1
BITMAP
3180
3FF8
7ED8
6FF0
E360
7FF0
6360
6FE0
6600
6FF0
7E30
77F0
ENDCHAR
STARTCHAR U_50D3
ENCODING 20691
SWIDTH 1000 0
DWIDTH 13 0
BBX 13 12 0 -1
BITMAP
1980
1FE0
37E0
77E0
F000
3FF8
3660
37E0
3660
37E0
33C0
3E70
ENDCHAR
STARTCHAR U_50D4
ENCODING 20692
SWIDTH 1000 0
DWIDTH 13 0
BBX 13 12 0 -1
BITMAP
3660
3FF8
63C0
6FF0
EFF0
6EF0
6FB0
6FF0
6060
7FF8
6360
61E0
ENDCHAR
STARTCHAR U_50D5
ENCODING 20693
SWIDTH 1000 0
DWIDTH 13 0
BBX 13 12 0 -1
BITMAP
3BD8
3FF0
7FF8
E660
6FF0
6180
67E0
6180
7FF8
63C0
6660
7C38
ENDCHAR
STARTCHAR U_50D6
ENCODING 20694
SWIDTH 1000 0
DWIDTH 13 0
BBX 13 12 0 -1
BITMAP
1980
1FF8
3180
3FF8
7630
F7F0
3360
3FF8
3000
37F0
3630
37F0
ENDCHAR
STARTCHAR U_50D7
ENCODING 20695
SWIDTH 1000 0
DWIDTH 13 0
BBX 13 12 0 -1
BITMAP
3630
3FF8
6E70
7FF8
E000
7FF8
7998
6FF0
61B0
61B0
63F0
6E60
ENDCHAR
STARTCHAR U_50D8
ENCODING 20696
SWIDTH 1000 0
DWIDTH 13 0
BBX 13 12 0 -1
BITMAP
3660
3670
3FE0
6FF8
7FB0
F9B0
7FB0
7FF0
7FE0
7FF0
79F8
7BD8
ENDCHAR
STARTCHAR U_50D9
ENCODING 20697
SWIDTH 1000 0
DWIDTH 13 0
BBX 13 12 0 -1
BITMAP
1E60
1FF0
3660
3FF8
7180
FFF0
3DB0
3FF0
3DB0
3FF0
3660
3C38
ENDCHAR
STARTCHAR U_50DA
ENCODING 20698
SWIDTH 1000 0
DWIDTH 13 0
BBX 13 12 0 -1
BITMAP
1980
1FF8
3FF0
3FE0
77F0
FE78
37E0
3660
37E0
3DB0
3998
3380
ENDCHAR
STARTCHAR U_50DB
ENCODING 20699
SWIDTH 1000 0
DWIDTH 13 0
BBX 13 12 0 -1
BITMAP
7BC0
7BC0
7FF8
FB98
7F60
7B60
7F60
7B60
7FE0
6CF0
7BF0
7198
ENDCHAR
STARTCHAR U_50DC
ENCODING 20700
SWIDTH 1000 0
DWIDTH 13 0
BBX 13 12 0 -1
BITMAP
1F60
1BD8
3F70
3630
7FF8
F800
37F0
3630
37F0
3630
3360
3FF8
ENDCHAR
STARTCHAR U_50DD
ENCODING 20701
SWIDTH 1000 0
DWIDTH 13 0
BBX 13 12 0 -1
BITMAP
1FF8
3C18
3FF8
7DE0
FC60
3FF8
3CC0
3FF8
3F30
3FF8
3330
3770
ENDCHAR
STARTCHAR U_50DE
ENCODING 20702
SWIDTH 1000 0
DWIDTH 13 0
BBX 13 12 0 -1
BITMAP
1878
1FD8
37B0
7FE0
FC60
3FF0
3C30
3FF8
3C18
3DF8
3FF8
3838
ENDCHAR
STARTCHAR U_50DF
ENCODING 20703
SWIDTH 1000 0
DWIDTH 13 0
BBX 13 12 0 -1
BITMAP
1EF0
1EF0
3FF8
36F0
7FF8
FFF8
3600
3FF8
36C0
36F0
3F78
39F8
ENDCHAR
STARTCHAR U_50E0
ENCODING 20704
SWIDTH 1000 0
DWIDTH 13 0
BBX 13 12 0 -1
BITMAP
1870
1FF0
37E0
3FF8
77E0
FDB0
3998
3FF0
3DB0
3FF0
3DB0
3FF0
ENDCHAR
STARTCHAR U_50E1
ENCODING 20705
SWIDTH 1000 0
DWIDTH 13 0
BBX 13 12 0 -1
BITMAP
1980
1FF8
3DB0
3FF0
7DB0
FFF0
31E0
3FF0
3780
3EF0
3E78
33E0
ENDCHAR
STARTCHAR U_50E2
ENCODING 20706
SWIDTH 1000 0
DWIDTH 13 0
BBX 13 12 0 -1
BITMAP
3070
3FC0
6DB0
67E0
FFF8
7E78
6FF0
7B60
6FE0
67F8
6C60
7860
ENDCHAR
STARTCHAR U_50E3
ENCODING 20707
SWIDTH 1000 0
DWIDTH 13 0
BBX 13 12 0 -1
BITMAP
1E60
1FF8
3660
3FF8
7660
FFF0
3998
3FF0
3C30
3FF0
3C30
3FF0
ENDCHAR
STARTCHAR U_50E4
ENCODING 20708
SWIDTH 1000 0
DWIDTH 13 0
BBX 13 12 0 -1
BITMAP
1FF8
1FF8
37F8
3000
77F8
F6D8
37F8
36D8
37F8
30C0
37F8
30C0
ENDCHAR
STARTCHAR U_50E5
ENCODING 20709
SWIDTH 1000 0
DWIDTH 13 0
BBX 13 12 0 -1
BITMAP
18C0
1FF8
30C0
3FF8
7660
FFF8
3660
3FF8
3000
3FF8
33D8
3EF8
ENDCHAR
STARTCHAR U_50E6
ENCODING 20710
SWIDTH 1000 0
DWIDTH 13 0
BBX 13 12 0 -1
BITMAP
3CC0
6CF0
7FF0
E1F8
7FC0
7BC0
7FC0
6EE0
7FE0
7DF8
6DF8
7F78
ENDCHAR
STARTCHAR U_50E7
ENCODING 20711
SWIDTH 1000 0
DWIDTH 13 0
BBX 13 12 0 -1
BITMAP
1E30
1B60
3FF8
3EF8
7FF8
FFF8
3000
37F0
3630
37F0
3630
37F0
ENDCHAR
STARTCHAR U_50E8
ENCODING 20712
SWIDTH 1000 0
DWIDTH 13 0
BBX 13 12 0 -1
BITMAP
1980
1FF0
37E0
3FF8
7660
F7F0
3630
37F0
3630
37F0
3360
3E38
ENDCHAR
STARTCHAR U_50E9
ENCODING 20713
SWIDTH 1000 0
DWIDTH 13 0
BBX 13 12 0 -1
BITMAP
1FF8
3FD8
3FF8
7FD8
FFF8
3FF8
3F78
3FF8
3F78
3FF8
3F78
3EF8
ENDCHAR
STARTCHAR U_50EA
ENCODING 20714
SWIDTH 1000 0
DWIDTH 13 0
BBX 13 12 0 -1
BITMAP
1FF0
19E0
3FF8
31D8
77C0
FFF8
3F78
3F38
3FF8
3F78
3FF8
3C38
ENDCHAR
STARTCHAR U_50EB
ENCODING 20715
SWIDTH 1000 0
DWIDTH 13 0
BBX 13 12 0 -1
BITMAP
3000
3FF8
33C0
6FF0
6C30
EFF0
63C0
7FF8
67B0
6FF8
7E78
63E0
ENDCHAR
STARTCHAR U_50EC
ENCODING 20716
SWIDTH 1000 0
DWIDTH 13 0
BBX 13 12 0 -1
BITMAP
1F80
1EC0
37F8
3EC0
77F8
F6C0
37F8
36C0
37F8
3000
37F8
3DF8
ENDCHAR
STARTCHAR U_50ED
ENCODING 20717
SWIDTH 1000 0
DWIDTH 13 0
BBX 13 12 0 -1
BITMAP
7FF8
6660
7FE0
FFF8
6E60
7FF8
77F8
6FE0
6C60
6FE0
6C60
6FE0
ENDCHAR
STARTCHAR U_50EE
ENCODING 20718
SWIDTH 1000 0
DWIDTH 13 0
BBX 13 12 0 -1
BITMAP
1980
1FF8
3360
3FF8
77B0
F7F0
37B0
37F0
3180
37F0
3180
3FF8
ENDCHAR
STARTCHAR U_50EF
ENCODING 20719
SWIDTH 1000 0
DWIDTH 13 0
BBX 13 12 0 -1
BITMAP
1FB0
1BE0
3FF8
37E0
7DB0
FE60
37F8
3FE0
37E0
3FF8
3860
3060
ENDCHAR
STARTCHAR U_50F0
ENCODING 20720
SWIDTH 1000 0
DWIDTH 13 0
BBX 13 12 0 -1
BITMAP
1860
7FF8
1860
7FF8
7FF8
1860
3CF0
7FF8
0300
0780
0CC0
7878
ENDCHAR
STARTCHAR U_50F1
ENCODING 20721
SWIDTH 1000 0
DWIDTH 13 0
BBX 13 12 0 -1
BITMAP
18C0
1FF8
3C18
3FF8
7DE0
FFF8
3F60
3FF8
3F60
3FF8
3B60
3BF8
ENDCHAR
STARTCHAR U_50F2
ENCODING 20722
SWIDTH 1000 0
DWIDTH 13 0
BBX 13 12 0 -1
BITMAP
3000
3FF8
33C0
6FF0
6FF0
EFF0
6C30
6FF8
7BF0
6FF8
6630
7C30
ENDCHAR
STARTCHAR U_50F3
ENCODING 20723
SWIDTH 1000 0
DWIDTH 13 0
BBX 13 12 0 -1
BITMAP
1FF8
1BC0
3FF8
3FD8
7FF8
F7B0
33E0
3FF8
33C0
37E0
3DB8
3180
ENDCHAR
STARTCHAR U_50F4
ENCODING 20724
SWIDTH 1000 0
DWIDTH 13 0
BBX 13 12 0 -1
BITMAP
3FF8
3FD8
3FF8
6FD8
6FF8
EC18
6FF8
6F78
6FF8
6F78
6FF8
6C38
ENDCHAR
STARTCHAR U_50F5
ENCODING 20725
SWIDTH 1000 0
DWIDTH 13 0
BBX 13 12 0 -1
BITMAP
3FF8
3000
37E0
37E0
77E0
F7E0
3FF8
37E0
37E0
37E0
37E0
3FF8
ENDCHAR
STARTCHAR U_50F6
ENCODING 20726
SWIDTH 1000 0
DWIDTH 13 0
BBX 13 12 0 -1
BITMAP
1FF8
1FD8
3FF8
33C0
7FF8
FFD8
3FF8
3FD8
3FF8
3FC0
33D8
31F8
ENDCHAR
STARTCHAR U_50F7
ENCODING 20727
SWIDTH 1000 0
DWIDTH 13 0
BBX 13 12 0 -1
BITMAP
3660
3FF8
3660
6F30
7FF8
6F30
EFF0
6180
7FF8
67E0
6DB0
7998
ENDCHAR
STARTCHAR U_50F8
ENCODING 20728
SWIDTH 1000 0
DWIDTH 13 0
BBX 13 12 0 -1
BITMAP
1E60
1FF8
3660
3FF0
7FF8
F660
37F0
3000
3FF8
36F0
3CD8
31C0
ENDCHAR
STARTCHAR U_50F9
ENCODING 20729
SWIDTH 1000 0
DWIDTH 13 0
BBX 13 12 0 -1
BITMAP
1FF8
1B60
3FF8
3F78
7FF8
F630
37F0
3630
37F0
3630
37F0
3C18
ENDCHAR
STARTCHAR U_50FA
ENCODING 20730
SWIDTH 1000 0
DWIDTH 13 0
BBX 13 12 0 -1
BITMAP
1BE0
1B60
33E0
7000
FFF8
3FD8
3FF8
3180
3FF8
33E0
37B0
3D98
ENDCHAR
STARTCHAR U_50FB
ENCODING 20731
SWIDTH 1000 0
DWIDTH 13 0
BBX 13 12 0 -1
BITMAP
30C0
3F60
7BF8
7BF0
FF60
79F8
7F60
7F60
7FF8
6F60
6F60
6060
ENDCHAR
STARTCHAR U_50FC
ENCODING 20732
SWIDTH 1000 0
DWIDTH 13 0
BBX 13 12 0 -1
BITMAP
33C0
3FF0
6FF0
EFF0
6FF0
7FF8
6000
6FF0
6C30
6FF0
6660
7FF8
ENDCHAR
STARTCHAR U_50FD
ENCODING 20733
SWIDTH 1000 0
DWIDTH 13 0
BBX 13 12 0 -1
BITMAP
3F60
3C60
7FF8
6DF0
FE60
7FF0
6D98
6360
67B0
7FB0
7660
63E0
ENDCHAR
STARTCHAR U_50FE
ENCODING 20734
SWIDTH 1000 0
DWIDTH 13 0
BBX 13 12 0 -1
BITMAP
18F0
1F98
36F0
3FF8
7FD8
F770
3FF8
3300
37F0
3F60
31C0
3F78
ENDCHAR
STARTCHAR U_50FF
ENCODING 20735
SWIDTH 1000 0
DWIDTH 13 0
BBX 13 12 0 -1
BITMAP
1980
1FF8
3FD8
3FF0
73C0
F7F0
33C0
3FF8
3DB0
3FF8
3180
3FF8
ENDCHAR
STARTCHAR U_5100
ENCODING 20736
SWIDTH 1000 0
DWIDTH 13 0
BBX 13 12 0 -1
BITMAP
1B30
1FF8
30C0
77F8
F0C0
3FF8
33F0
3FF8
33C0
3FF0
3378
36F8
ENDCHAR
STARTCHAR U_5101
ENCODING 20737
SWIDTH 1000 0
DWIDTH 13 0
BBX 13 12 0 -1
BITMAP
36C0
3FF0
36C0
6FF0
7EC0
77F8
F600
3FF8
3FD8
3FD8
3C78
3C30
ENDCHAR
STARTCHAR U_5102
ENCODING 20738
SWIDTH 1000 0
DWIDTH 13 0
BBX 13 12 0 -1
BITMAP
19E0
1FF8
37F8
37F8
77F8
FFF8
3C00
3FF8
3F60
3F78
3FB0
3B18
ENDCHAR
STARTCHAR U_5103
ENCODING 20739
SWIDTH 1000 0
DWIDTH 13 0
BBX 13 12 0 -1
BITMAP
1980
1FF8
3F78
3FF8
7C18
FFF8
3C18
37F0
3630
37F0
3630
3FF8
ENDCHAR
STARTCHAR U_5104
ENCODING 20740
SWIDTH 1000 0
DWIDTH 13 0
BBX 13 12 0 -1
BITMAP
1980
1FF8
3360
3FF8
7630
F7F0
3630
37F0
3180
3FF0
3B78
31E0
ENDCHAR
STARTCHAR U_5105
ENCODING 20741
SWIDTH 1000 0
DWIDTH 13 0
BBX 13 12 0 -1
BITMAP
1DB0
1FE0
3FF8
3C18
77E0
F660
37E0
3FF0
3DB0
3FF0
3DB0
3FF0
ENDCHAR
STARTCHAR U_5106
ENCODING 20742
SWIDTH 1000 0
DWIDTH 13 0
BBX 13 12 0 -1
BITMAP
3F60
3F60
7FF8
6FF0
FFF0
71B0
7FB0
7FF0
7FE0
61E0
6FF0
6798
ENDCHAR
STARTCHAR U_5107
ENCODING 20743
SWIDTH 1000 0
DWIDTH 13 0
BBX 13 12 0 -1
BITMAP
1FF8
1FF8
37F8
3000
7FF8
F000
37F0
3630
37F0
33D8
3770
33B8
ENDCHAR
STARTCHAR U_5108
ENCODING 20744
SWIDTH 1000 0
DWIDTH 13 0
BBX 13 12 0 -1
BITMAP
1980
1BC0
37E0
3C38
7FF0
FFF0
3FF0
3FF0
3660
37E0
3660
37E0
ENDCHAR
STARTCHAR U_5109
ENCODING 20745
SWIDTH 1000 0
DWIDTH 13 0
BBX 13 12 0 -1
BITMAP
1980
1BC0
3660
3FF8
7800
FFF0
3FF0
3FF0
3660
3660
3FF0
3998
ENDCHAR
STARTCHAR U_510A
ENCODING 20746
SWIDTH 1000 0
DWIDTH 13 0
BBX 13 12 0 -1
BITMAP
1E60
1FF8
3660
3FF0
7FF8
F660
3FF8
36D8
36C0
36F0
3FC0
39F8
ENDCHAR
STARTCHAR U_510B
ENCODING 20747
SWIDTH 1000 0
DWIDTH 13 0
BBX 13 12 0 -1
BITMAP
1BE0
1E60
37F8
3FB0
77D8
F7F8
3600
37F0
3600
3FF0
3F30
3BF0
ENDCHAR
STARTCHAR U_510C
ENCODING 20748
SWIDTH 1000 0
DWIDTH 13 0
BBX 13 12 0 -1
BITMAP
1E60
1FE0
3DF8
3FD8
7DF8
FFF8
3678
3FF0
3C30
3FB0
3DF8
3FD8
ENDCHAR
STARTCHAR U_510D
ENCODING 20749
SWIDTH 1000 0
DWIDTH 13 0
BBX 13 12 0 -1
BITMAP
37E0
3FF0
3FF0
6FF0
EFF0
6660
6F30
7FF8
6FC0
6180
63C0
7E78
ENDCHAR
STARTCHAR U_510E
ENCODING 20750
SWIDTH 1000 0
DWIDTH 13 0
BBX 13 12 0 -1
BITMAP
36C0
3FE0
36F0
7FF8
E0C0
7FF8
7FF8
7FF0
7FE0
7FF8
67B8
6618
ENDCHAR
STARTCHAR U_510F
ENCODING 20751
SWIDTH 1000 0
DWIDTH 13 0
BBX 13 12 0 -1
BITMAP
3600
37F8
3678
6FB0
FF78
6798
7DB0
67E0
7FF8
63C0
67E0
7DB8
ENDCHAR
STARTCHAR U_5110
ENCODING 20752
SWIDTH 1000 0
DWIDTH 13 0
BBX 13 12 0 -1
BITMAP
3180
3FF8
3C18
37F0
77E0
FDC0
3FF0
3630
37F0
3630
37F0
3C18
ENDCHAR
STARTCHAR U_5111
ENCODING 20753
SWIDTH 1000 0
DWIDTH 13 0
BBX 13 12 0 -1
BITMAP
1FF8
1E18
37F8
3618
77F8
F330
37F8
3330
37F8
37F8
3330
37F8
ENDCHAR
STARTCHAR U_5112
ENCODING 20754
SWIDTH 1000 0
DWIDTH 13 0
BBX 13 12 0 -1
BITMAP
1FF8
1980
3FF8
3FF8
73C0
F7E0
3FF8
3180
3FF8
3FD8
3FD8
3FF8
ENDCHAR
STARTCHAR U_5113
ENCODING 20755
SWIDTH 1000 0
DWIDTH 13 0
BBX 13 12 0 -1
BITMAP
18C0
1FF8
30C0
37F0
7630
FFF8
3B18
3FF0
37E0
3FF0
3180
3FF8
ENDCHAR
STARTCHAR U_5114
ENCODING 20756
SWIDTH 1000 0
DWIDTH 13 0
BBX 13 12 0 -1
BITMAP
1980
1FF8
3180
3FF8
7198
FFF0
3000
3FF8
3030
3FF8
3FF0
3F70
ENDCHAR
STARTCHAR U_5115
ENCODING 20757
SWIDTH 1000 0
DWIDTH 13 0
BBX 13 12 0 -1
BITMAP
1980
1FF8
3FF0
37E0
7FF0
FFF8
3630
37F0
3630
37F0
3C30
3830
ENDCHAR
STARTCHAR U_5116
ENCODING 20758
SWIDTH 1000 0
DWIDTH 13 0
BBX 13 12 0 -1
BITMAP
3FE0
3F60
3FF8
6DE0
EFF0
6FD8
6F98
6000
6FF0
6FF0
6FF0
7FF8
ENDCHAR
STARTCHAR U_5117
ENCODING 20759
SWIDTH 1000 0
DWIDTH 13 0
BBX 13 12 0 -1
BITMAP
3FF8
3E30
6DE0
6FB0
ECF8
7F78
7660
7FF8
67E0
6FE0
79E0
7378
ENDCHAR
STARTCHAR U_5118
ENCODING 20760
SWIDTH 1000 0
DWIDTH 13 0
BBX 13 12 0 -1
BITMAP
1FF0
19B0
3FF8
31B0
77F0
F180
3FF0
3B78
3FF0
3FF0
3FF0
3FF8
ENDCHAR
STARTCHAR U_5119
ENCODING 20761
SWIDTH 1000 0
DWIDTH 13 0
BBX 13 12 0 -1
BITMAP
30C0
3BF0
3FF0
6FF8
E000
7FE0
6F60
6FF0
6F30
6FF0
7E00
7BF8
ENDCHAR
STARTCHAR U_511A
ENCODING 20762
SWIDTH 1000 0
DWIDTH 13 0
BBX 13 12 0 -1
BITMAP
1B60
1FF8
3360
3FF0
7FF0
FFF8
3998
33E0
3660
3FC0
3180
3F00
ENDCHAR
STARTCHAR U_511B
ENCODING 20763
SWIDTH 1000 0
DWIDTH 13 0
BBX 13 12 0 -1
BITMAP
3C00
3FF0
3FE0
7FF0
E7E0
7FF8
6660
6FF0
7BE0
6FF8
6660
7C60
ENDCHAR
STARTCHAR U_511C
ENCODING 20764
SWIDTH 1000 0
DWIDTH 13 0
BBX 13 12 0 -1
BITMAP
1980
1FF8
3FD8
33F0
7FF0
FFF0
3FF8
3000
3FF8
30C0
33C0
3180
ENDCHAR
STARTCHAR U_511D
ENCODING 20765
SWIDTH 1000 0
DWIDTH 13 0
BBX 13 12 0 -1
BITMAP
3660
3FF0
3FE0
6660
EFF0
7FF8
7998
6180
7FF8
67E0
6DB0
7998
ENDCHAR
STARTCHAR U_511E
ENCODING 20766
SWIDTH 1000 0
DWIDTH 13 0
BBX 13 12 0 -1
BITMAP
3030
3FF8
37E0
7FF8
F998
7FF8
7FF8
7FF8
7998
7FF8
7FF8
7FF8
ENDCHAR
STARTCHAR U_511F
ENCODING 20767
SWIDTH 1000 0
DWIDTH 13 0
BBX 13 12 0 -1
BITMAP
3DB0
37E0
3FF8
3F78
77F0
F630
37F0
3630
37F0
3630
37F0
3C18
ENDCHAR
STARTCHAR U_5120
ENCODING 20768
SWIDTH 1000 0
DWIDTH 13 0
BBX 13 12 0 -1
BITMAP
1BF0
1FE0
33F0
3FF8
7FD8
FD98
3FF8
3FF0
3FF0
3FF0
3DB0
3FD8
ENDCHAR
STARTCHAR U_5121
ENCODING 20769
SWIDTH 1000 0
DWIDTH 13 0
BBX 13 12 0 -1
BITMAP
3FF0
3DB0
6FF0
6DB0
EFF0
6000
7FF8
7FF8
7FF8
7FF8
7FF8
7998
ENDCHAR
STARTCHAR U_5122
ENCODING 20770
SWIDTH 1000 0
DWIDTH 13 0
BBX 13 12 0 -1
BITMAP
19F0
1980
3FF8
3DE0
7F98
FFF8
3FF0
3FF0
3FF0
3FF0
3FF8
3DF0
ENDCHAR
STARTCHAR U_5123
ENCODING 20771
SWIDTH 1000 0
DWIDTH 13 0
BBX 13 12 0 -1
BITMAP
30C0
3FF8
3DE0
6FF0
EDE0
6FF8
6FF0
6FF0
6FF0
7BF0
79E0
7738
ENDCHAR
STARTCHAR U_5124
ENCODING 20772
SWIDTH 1000 0
DWIDTH 13 0
BBX 13 12 0 -1
BITMAP
1FF0
1E30
37F0
3630
7FF8
F360
3FF8
37B0
3DF8
37C0
33E0
3FB8
ENDCHAR
STARTCHAR U_5125
ENCODING 20773
SWIDTH 1000 0
DWIDTH 13 0
BBX 13 12 0 -1
BITMAP
1980
1FF8
3180
3FF8
7FD8
FFF8
3630
37F0
3630
37F0
3360
3E38
ENDCHAR
STARTCHAR U_5126
ENCODING 20774
SWIDTH 1000 0
DWIDTH 13 0
BBX 13 12 0 -1
BITMAP
3180
3FF8
7B60
7FF8
FB78
7FF8
7E60
7FF8
7E60
7FF8
7B30
7FF8
ENDCHAR
STARTCHAR U_5127
ENCODING 20775
SWIDTH 1000 0
DWIDTH 13 0
BBX 13 12 0 -1
BITMAP
1E60
1FF8
3660
3FF8
7660
FFF8
37F0
3630
37F0
3630
37F0
3E38
ENDCHAR
STARTCHAR U_5128
ENCODING 20776
SWIDTH 1000 0
DWIDTH 13 0
BBX 13 12 0 -1
BITMAP
3FF8
3CC0
3FF8
3FF0
7BB0
FFF0
3C30
3FF0
3C30
3FF0
3660
3C38
ENDCHAR
STARTCHAR U_5129
ENCODING 20777
SWIDTH 1000 0
DWIDTH 13 0
BBX 13 12 0 -1
BITMAP
18F8
1FD8
3FF8
3FD8
7FF8
FFC0
3FF8
3F98
3FF8
3FF8
3BD8
31B0
ENDCHAR
STARTCHAR U_512A
ENCODING 20778
SWIDTH 1000 0
DWIDTH 13 0
BBX 13 12 0 -1
BITMAP
1FF0
1980
37E0
37E0
7FF8
FED8
3FF0
3600
3FF0
3360
31C0
3770
ENDCHAR
STARTCHAR U_512B
ENCODING 20779
SWIDTH 1000 0
DWIDTH 13 0
BBX 13 12 0 -1
BITMAP
3180
3FF0
6660
FFF8
7818
67E0
6180
67F0
7CC0
63E0
6EF0
6398
ENDCHAR
STARTCHAR U_512C
ENCODING 20780
SWIDTH 1000 0
DWIDTH 13 0
BBX 13 12 0 -1
BITMAP
3DF8
3F98
6DF8
FF98
6DF8
7F98
7FF8
7EF0
7EF0
7EF0
7FB0
7FB8
ENDCHAR
STARTCHAR U_512D
ENCODING 20781
SWIDTH 1000 0
DWIDTH 13 0
BBX 13 12 0 -1
BITMAP
3DF0
3FB0
7FF0
FFB0
6DF0
7FB0
6DF0
7EE0
7FE0
6DE0
6DF8
7B78
ENDCHAR
STARTCHAR U_512E
ENCODING 20782
SWIDTH 1000 0
DWIDTH 13 0
BBX 13 12 0 -1
BITMAP
3FF8
3C00
7FF8
FB30
7FF8
7FF0
7FF8
78C0
7BF0
7BC0
7BC0
7FF8
ENDCHAR
STARTCHAR U_512F
ENCODING 20783
SWIDTH 1000 0
DWIDTH 13 0
BBX 13 12 0 -1
BITMAP
1BF0
1FF8
30C0
3FF8
73F0
FFF8
3EC0
37F0
36C0
37F8
37F8
3FF8
ENDCHAR
STARTCHAR U_5130
ENCODING 20784
SWIDTH 1000 0
DWIDTH 13 0
BBX 13 12 0 -1
BITMAP
1B60
1FF8
3360
37F0
77E0
F7E0
3660
37F0
3630
37F8
37F8
3FF8
ENDCHAR
STARTCHAR U_5131
ENCODING 20785
SWIDTH 1000 0
DWIDTH 13 0
BBX 13 12 0 -1
BITMAP
1EC0
1FF0
3FC0
3FF0
7030
FFF0
3FC0
3FF0
3FC0
3FF0
3FD8
3F78
ENDCHAR
STARTCHAR U_5132
ENCODING 20786
SWIDTH 1000 0
DWIDTH 13 0
BBX 13 12 0 -1
BITMAP
3C60
3678
3FF8
6078
FFF8
6060
7FC0
61F8
7FD8
7BF8
7FD8
7BF8
ENDCHAR
STARTCHAR U_5133
ENCODING 20787
SWIDTH 1000 0
DWIDTH 13 0
BBX 13 12 0 -1
BITMAP
1BE0
1EC0
37F0
3630
77F0
FFD8
3EF8
37F0
37B0
37F0
33D8
3EF8
ENDCHAR
STARTCHAR U_5134
ENCODING 20788
SWIDTH 1000 0
DWIDTH 13 0
BBX 13 12 0 -1
BITMAP
3180
3FF8
3FF0
6FF0
FFF0
66C0
7FF0
66C0
7FF8
7DE0
7FC0
6E78
ENDCHAR
STARTCHAR U_5135
ENCODING 20789
SWIDTH 1000 0
DWIDTH 13 0
BBX 13 12 0 -1
BITMAP
3600
37F0
6F60
79C0
FB60
7FF8
7FE0
7FE0
7980
7FF8
6FF0
7BD8
ENDCHAR
STARTCHAR U_5136
ENCODING 20790
SWIDTH 1000 0
DWIDTH 13 0
BBX 13 12 0 -1
BITMAP
1ED8
1FF8
33C0
37F8
7EC0
FFF8
36C0
3FF8
3F78
3FF8
3F78
3FF8
ENDCHAR
STARTCHAR U_5137
ENCODING 20791
SWIDTH 1000 0
DWIDTH 13 0
BBX 13 12 0 -1
BITMAP
1FF8
1800
3FF8
3DF8
70C0
FFF8
3F60
3FF8
3F78
3FF8
3FF8
3BF8
ENDCHAR
STARTCHAR U_5138
ENCODING 20792
SWIDTH 1000 0
DWIDTH 13 0
BBX 13 12 0 -1
BITMAP
3FF8
3FD8
6FF0
E6C0
6DE0
7FF8
7FE0
6DF8
7FE0
7FF8
7FE0
7FF8
ENDCHAR
STARTCHAR U_5139
ENCODING 20793
SWIDTH 1000 0
DWIDTH 13 0
BBX 13 12 0 -1
BITMAP
3660
3FF8
7FE0
FFF8
6FF0
7FF0
6630
67F0
6630
67F0
6360
6E38
ENDCHAR
STARTCHAR U_513A
ENCODING 20794
SWIDTH 1000 0
DWIDTH 13 0
BBX 13 12 0 -1
BITMAP
3FF0
3FF0
3FF8
6FF0
E7F0
7FF8
7FF0
7FF0
66F8
7FF0
6FF0
79F8
ENDCHAR
STARTCHAR U_513B
ENCODING 20795
SWIDTH 1000 0
DWIDTH 13 0
BBX 13 12 0 -1
BITMAP
3DB0
3FF8
7818
E7E0
6660
6FF0
6DB0
6FF0
6180
7FF8
6FF0
7BD8
ENDCHAR
STARTCHAR U_513C
ENCODING 20796
SWIDTH 1000 0
DWIDTH 13 0
BBX 13 12 0 -1
BITMAP
3FF0
3FF0
7FF8
FFC0
7BF8
7FD8
7FF8
7FB0
7FB0
7FF8
7DF8
71D8
ENDCHAR
STARTCHAR U_513D
ENCODING 20797
SWIDTH 1000 0
DWIDTH 13 0
BBX 13 12 0 -1
BITMAP
37E0
37E0
67E0
E7E0
7FF8
7998
7FF8
67E0
6FF0
67E0
67E0
6FB0
ENDCHAR
STARTCHAR U_513E
ENCODING 20798
SWIDTH 1000 0
DWIDTH 13 0
BBX 13 12 0 -1
BITMAP
1980
1FF8
37E0
7FF0
FFF8
3FF0
33C0
3FF8
33C0
37F8
3F60
33B8
ENDCHAR
STARTCHAR U_513F
ENCODING 20799
SWIDTH 1000 0
DWIDTH 13 0
BBX 13 12 0 -1
BITMAP
1980
1980
1980
1980
1980
1980
1980
1980
3180
3198
6198
C0F8
ENDCHAR
STARTCHAR U_5140
ENCODING 20800
SWIDTH 1000 0
DWIDTH 13 0
BBX 13 12 0 -1
BITMAP
0060
FFF0
1B00
1B00
1B00
1B00
1B00
1B00
3300
3330
6330
C1F0
ENDCHAR
STARTCHAR U_5141
ENCODING 20801
SWIDTH 1000 0
DWIDTH 13 0
BBX 13 12 0 -1
BITMAP
0600
0C00
1980
30C0
7FE0
1B60
1B00
1B00
1B00
3330
3330
E1F0
ENDCHAR
STARTCHAR U_5142
ENCODING 20802
SWIDTH 1000 0
DWIDTH 13 0
BBX 13 12 0 -1
BITMAP
0600
0600
FFF0
3600
3600
7FF0
0F00
0F00
1B00
1B30
3330
E3F0
ENDCHAR
STARTCHAR U_5143
ENCODING 20803
SWIDTH 1000 0
DWIDTH 13 0
BBX 13 12 0 -1
BITMAP
0000
3FC0
0000
0000
FFF0
1B00
1B00
1B00
3300
3330
6330
C1F0
ENDCHAR
STARTCHAR U_5144
ENCODING 20804
SWIDTH 1000 0
DWIDTH 13 0
BBX 13 12 0 -1
BITMAP
7FC0
60C0
60C0
60C0
7FC0
7BC0
1B00
1B00
3300
3330
6330
C1F0
ENDCHAR
STARTCHAR U_5145
ENCODING 20805
SWIDTH 1000 0
DWIDTH 13 0
BBX 13 12 0 -1
BITMAP
0600
0300
FFF8
0C00
18C0
3FE0
0DE0
0D80
0D80
1998
3198
E0F8
ENDCHAR
STARTCHAR U_5146
ENCODING 20806
SWIDTH 1000 0
DWIDTH 13 0
BBX 13 12 0 -1
BITMAP
0D80
0D80
6DB0
3DE0
3DC0
0D80
1DE0
7DB0
D980
1998
3198
E0F8
ENDCHAR
STARTCHAR U_5147
ENCODING 20807
SWIDTH 1000 0
DWIDTH 13 0
BBX 13 12 0 -1
BITMAP
0D80
67B0
6330
67B0
7CF0
6030
7FF0
0D80
0D80
1998
3198
E1F8
ENDCHAR
STARTCHAR U_5148
ENCODING 20808
SWIDTH 1000 0
DWIDTH 13 0
BBX 13 12 0 -1
BITMAP
1B00
1B00
3FE0
6300
0300
7FF8
0D80
0D80
1980
1998
3198
E0F8
ENDCHAR
STARTCHAR U_5149
ENCODING 20809
SWIDTH 1000 0
DWIDTH 13 0
BBX 13 12 0 -1
BITMAP
0600
6660
36C0
0780
0600
FFF0
1B00
1B00
1B00
3330
6330
C1F0
ENDCHAR
STARTCHAR U_514A
ENCODING 20810
SWIDTH 1000 0
DWIDTH 13 0
BBX 13 12 0 -1
BITMAP
0D80
1EC0
3660
6C38
D8D8
3FE0
0060
0D80
0D80
1998
3198
E1F8
ENDCHAR
STARTCHAR U_514B
ENCODING 20811
SWIDTH 1000 0
DWIDTH 13 0
BBX 13 12 0 -1
BITMAP
0600
FFF0
0600
3FC0
30C0
30C0
3FC0
3FC0
0F00
1B30
3330
E1F0
ENDCHAR
STARTCHAR U_514C
ENCODING 20812
SWIDTH 1000 0
DWIDTH 13 0
BBX 13 12 0 -1
BITMAP
0F00
1980
30C0
6060
FFF8
30C0
30C0
3FC0
0F00
1B18
3318
E1F8
ENDCHAR
STARTCHAR U_514D
ENCODING 20813
SWIDTH 1000 0
DWIDTH 13 0
BBX 13 12 0 -1
BITMAP
0C00
1F80
3180
6300
FFE0
3660
3660
3FE0
3F60
0F18
1B18
71F8
ENDCHAR
STARTCHAR U_514E
ENCODING 20814
SWIDTH 1000 0
DWIDTH 13 0
BBX 13 12 0 -1
BITMAP
00E0
3F80
0600
7FE0
6660
6660
7FE0
0700
0FC0
1B78
3318
E1F8
ENDCHAR
STARTCHAR U_514F
ENCODING 20815
SWIDTH 1000 0
DWIDTH 13 0
BBX 13 12 0 -1
BITMAP
7FF8
6300
6300
63E0
6300
7FF8
6780
6780
6780
6D98
D998
F0F8
ENDCHAR
STARTCHAR U_5150
ENCODING 20816
SWIDTH 1000 0
DWIDTH 13 0
BBX 13 12 0 -1
BITMAP
37F0
3630
3630
37F0
3630
37F0
3000
0D80
0D80
1998
3198
E0F8
ENDCHAR
STARTCHAR U_5151
ENCODING 20817
SWIDTH 1000 0
DWIDTH 13 0
BBX 13 12 0 -1
BITMAP
6180
3300
1E00
7F80
6180
6180
7F80
7F80
1E00
3660
3660
E3E0
ENDCHAR
STARTCHAR U_5152
ENCODING 20818
SWIDTH 1000 0
DWIDTH 13 0
BBX 13 12 0 -1
BITMAP
0E00
79F0
6030
7DF0
6030
6030
7FF0
0D80
0D98
1998
3198
E0F8
ENDCHAR
STARTCHAR U_5153
ENCODING 20819
SWIDTH 1000 0
DWIDTH 13 0
BBX 13 12 0 -1
BITMAP
FFF8
18C0
7BC0
7BC0
DEC0
FFF8
78C0
79C0
7DC0
7BD8
C6D8
CC78
ENDCHAR
STARTCHAR U_5154
ENCODING 20820
SWIDTH 1000 0
DWIDTH 13 0
BBX 13 12 0 -1
BITMAP
1800
3F80
3300
7FE0
E660
6660
7FE0
0F00
0FC0
1BF0
3330
E1F0
ENDCHAR
STARTCHAR U_5155
ENCODING 20821
SWIDTH 1000 0
DWIDTH 13 0
BBX 13 12 0 -1
BITMAP
7FE0
6F60
6F60
6F60
6060
6060
7FE0
0F00
1B00
1B30
3330
E1F0
ENDCHAR
STARTCHAR U_5156
ENCODING 20822
SWIDTH 1000 0
DWIDTH 13 0
BBX 13 12 0 -1
BITMAP
0600
FFF0
0000
36C0
6C60
D980
3FC0
1BC0
1B00
1B30
3330
E1F0
ENDCHAR
STARTCHAR U_5157
ENCODING 20823
SWIDTH 1000 0
DWIDTH 13 0
BBX 13 12 0 -1
BITMAP
0300
FFF8
0CC0
1860
3FF0
F8D8
18C0
1FC0
0D80
1998
3198
E0F8
ENDCHAR
STARTCHAR U_5158
ENCODING 20824
SWIDTH 1000 0
DWIDTH 13 0
BBX 13 12 0 -1
BITMAP
00C0
FCC0
0180
01B0
FFF0
7800
7BF0
7B30
7B30
7BF0
D818
CFF8
ENDCHAR
STARTCHAR U_5159
ENCODING 20825
SWIDTH 1000 0
DWIDTH 13 0
BBX 13 12 0 -1
BITMAP
18C0
18C0
FEC0
18C0
7FF8
66C0
66C0
7EC0
3CC0
3CD8
6C18
C7F8
ENDCHAR
STARTCHAR U_515A
ENCODING 20826
SWIDTH 1000 0
DWIDTH 13 0
BBX 13 12 0 -1
BITMAP
36C0
1F80
FFF0
C030
FFF0
30C0
30C0
3FC0
0F00
1B30
3330
E1F0
ENDCHAR
STARTCHAR U_515B
ENCODING 20827
SWIDTH 1000 0
DWIDTH 13 0
BBX 13 12 0 -1
BITMAP
1870
1BC0
FCC0
18C0
7EC0
67F8
66C0
7EC0
3CC0
3CD8
6C18
C7F8
ENDCHAR
STARTCHAR U_515C
ENCODING 20828
SWIDTH 1000 0
DWIDTH 13 0
BBX 13 12 0 -1
BITMAP
3600
FFE0
DB60
DF60
DB60
FFE0
DB60
1B00
1B00
1B30
3330
E1F0
ENDCHAR
STARTCHAR U_515D
ENCODING 20829
SWIDTH 1000 0
DWIDTH 13 0
BBX 13 12 0 -1
BITMAP
1860
7FE0
19B0
7F18
67F0
66F0
7EF0
3DB0
3DB0
3F78
6C18
C7F8
ENDCHAR
STARTCHAR U_515E
ENCODING 20830
SWIDTH 1000 0
DWIDTH 13 0
BBX 13 12 0 -1
BITMAP
30E0
3780
FD80
31F0
FF80
CD80
CDF0
FF80
79B0
78F0
7818
CFF8
ENDCHAR
STARTCHAR U_515F
ENCODING 20831
SWIDTH 1000 0
DWIDTH 13 0
BBX 13 12 0 -1
BITMAP
30C0
F3C0
FFF0
F3C0
36C0
FFF8
79E0
79E0
7FE0
7DF8
7B78
C638
ENDCHAR
STARTCHAR U_5160
ENCODING 20832
SWIDTH 1000 0
DWIDTH 13 0
BBX 13 12 0 -1
BITMAP
3360
3660
FFF8
3DF0
3FE0
7DE0
FFB8
0000
0D80
0D98
3998
E0F8
ENDCHAR
STARTCHAR U_5161
ENCODING 20833
SWIDTH 1000 0
DWIDTH 13 0
BBX 13 12 0 -1
BITMAP
3000
FFF0
30C0
FFF0
CF30
CF30
FFF0
7B30
7B30
7BF8
D818
CFF8
ENDCHAR
STARTCHAR U_5162
ENCODING 20834
SWIDTH 1000 0
DWIDTH 13 0
BBX 13 12 0 -1
BITMAP
30C0
FFF8
30C0
FFF0
CF30
CF30
FFF0
78C0
7FC0
7FD8
F3D8
CE78
ENDCHAR
STARTCHAR U_5163
ENCODING 20835
SWIDTH 1000 0
DWIDTH 13 0
BBX 13 12 0 -1
BITMAP
37F8
FE00
37F0
36F0
FFF0
DEF0
DFF0
FEC0
3FF0
7CD8
F0D8
DFF8
ENDCHAR
STARTCHAR U_5164
ENCODING 20836
SWIDTH 1000 0
DWIDTH 13 0
BBX 13 12 0 -1
BITMAP
30C0
F7F8
FFE0
7FF0
37E0
FFF8
7FF8
7FF8
7FF8
7FF8
7F30
CFF8
ENDCHAR
STARTCHAR U_5165
ENCODING 20837
SWIDTH 1000 0
DWIDTH 13 0
BBX 13 12 0 -1
BITMAP
1C00
0600
0600
0600
0F00
0F00
0F00
1980
1980
30C0
6060
C038
ENDCHAR
STARTCHAR U_5166
ENCODING 20838
SWIDTH 1000 0
DWIDTH 13 0
BBX 13 12 0 -1
BITMAP
0C00
C600
C300
C300
C780
C780
CCC0
CCC0
D860
F038
C000
FFF8
ENDCHAR
STARTCHAR U_5167
ENCODING 20839
SWIDTH 1000 0
DWIDTH 13 0
BBX 13 12 0 -1
BITMAP
0600
0600
0600
7FF0
6630
6630
6F30
6DF0
78F0
7030
6030
6070
ENDCHAR
STARTCHAR U_5168
ENCODING 20840
SWIDTH 1000 0
DWIDTH 13 0
BBX 13 12 0 -1
BITMAP
0600
0F00
1980
30C0
6060
FFF8
0600
0600
3FC0
0600
0600
FFF0
ENDCHAR
STARTCHAR U_5169
ENCODING 20841
SWIDTH 1000 0
DWIDTH 13 0
BBX 13 12 0 -1
BITMAP
0000
FFF8
0600
0600
7FF0
6630
7FB0
7FB0
7FF0
6630
6630
6660
ENDCHAR
STARTCHAR U_516A
ENCODING 20842
SWIDTH 1000 0
DWIDTH 13 0
BBX 13 12 0 -1
BITMAP
0700
0D80
18C0
3FE0
E038
7EF0
66F0
7FE0
67E0
7FE0
66F0
66F0
ENDCHAR
STARTCHAR U_516B
ENCODING 20843
SWIDTH 1000 0
DWIDTH 13 0
BBX 13 12 0 -1
BITMAP
0300
1B00
1B00
1B00
1B00
1980
3180
30C0
60C0
6060
C030
0000
ENDCHAR
STARTCHAR U_516C
ENCODING 20844
SWIDTH 1000 0
DWIDTH 13 0
BBX 13 12 0 -1
BITMAP
0180
1980
18C0
30C0
3660
6630
C618
0C00
0D80
18C0
3FE0
1860
ENDCHAR
STARTCHAR U_516D
ENCODING 20845
SWIDTH 1000 0
DWIDTH 13 0
BBX 13 12 0 -1
BITMAP
0C00
0600
0600
FFF0
0000
1980
18C0
3060
3060
6030
C030
0000
ENDCHAR
STARTCHAR U_516E
ENCODING 20846
SWIDTH 1000 0
DWIDTH 13 0
BBX 13 12 0 -1
BITMAP
0D80
0D80
18C0
3060
7FB0
C618
0C00
1FC0
00C0
00C0
0780
0300
ENDCHAR
STARTCHAR U_516F
ENCODING 20847
SWIDTH 1000 0
DWIDTH 13 0
BBX 13 12 0 -1
BITMAP
6030
3060
1CC0
0D80
FFF0
0630
0630
0630
0630
06F0
0660
0600
ENDCHAR
STARTCHAR U_5170
ENCODING 20848
SWIDTH 1000 0
DWIDTH 13 0
BBX 13 12 0 -1
BITMAP
3060
1860
18C0
7FF0
0000
0000
0000
3FE0
0000
0000
0000
FFF8
ENDCHAR
STARTCHAR U_5171
ENCODING 20849
SWIDTH 1000 0
DWIDTH 13 0
BBX 13 12 0 -1
BITMAP
1980
1980
1980
FFF0
1980
1980
1980
FFF0
1980
30C0
6060
C030
ENDCHAR
STARTCHAR U_5172
ENCODING 20850
SWIDTH 1000 0
DWIDTH 13 0
BBX 13 12 0 -1
BITMAP
7FF0
0600
3FE0
0600
0600
7FF0
0000
0F00
0D80
18C0
3060
E038
ENDCHAR
STARTCHAR U_5173
ENCODING 20851
SWIDTH 1000 0
DWIDTH 13 0
BBX 13 12 0 -1
BITMAP
30C0
1980
0F00
7FE0
0600
0600
FFF0
0600
0F00
1980
30C0
E070
ENDCHAR
STARTCHAR U_5174
ENCODING 20852
SWIDTH 1000 0
DWIDTH 13 0
BBX 13 12 0 -1
BITMAP
CC60
6660
36C0
3780
0000
FFF0
0000
1980
30C0
6060
C030
0000
ENDCHAR
STARTCHAR U_5175
ENCODING 20853
SWIDTH 1000 0
DWIDTH 13 0
BBX 13 12 0 -1
BITMAP
01C0
3F00
3000
3FF0
3300
3300
3300
FFF0
0000
1980
30C0
E070
ENDCHAR
STARTCHAR U_5176
ENCODING 20854
SWIDTH 1000 0
DWIDTH 13 0
BBX 13 12 0 -1
BITMAP
18C0
18C0
7FF0
18C0
1FC0
18C0
1FC0
18C0
FFF8
0D80
18C0
7070
ENDCHAR
STARTCHAR U_5177
ENCODING 20855
SWIDTH 1000 0
DWIDTH 13 0
BBX 13 12 0 -1
BITMAP
3FC0
30C0
3FC0
30C0
3FC0
30C0
3FC0
30C0
FFF0
1980
30C0
E070
ENDCHAR
STARTCHAR U_5178
ENCODING 20856
SWIDTH 1000 0
DWIDTH 13 0
BBX 13 12 0 -1
BITMAP
0F00
0F00
7FE0
6F60
6F60
7FE0
6F60
6F60
FFF8
1980
30C0
E070
ENDCHAR
STARTCHAR U_5179
ENCODING 20857
SWIDTH 1000 0
DWIDTH 13 0
BBX 13 12 0 -1
BITMAP
18C0
0D80
FFF0
3180
3180
6F60
FFE0
18C0
3180
6F30
FFF0
0C30
ENDCHAR
STARTCHAR U_517A
ENCODING 20858
SWIDTH 1000 0
DWIDTH 13 0
BBX 13 12 0 -1
BITMAP
0D80
18C0
3060
FFF8
0CC0
0CC0
3BC0
E180
7F60
6FD8
6F18
7DF0
ENDCHAR
STARTCHAR U_517B
ENCODING 20859
SWIDTH 1000 0
DWIDTH 13 0
BBX 13 12 0 -1
BITMAP
18C0
0D80
7FF0
0600
3FE0
0600
FFF8
18C0
3DE0
6DB0
0D80
1980
ENDCHAR
STARTCHAR U_517C
ENCODING 20860
SWIDTH 1000 0
DWIDTH 13 0
BBX 13 12 0 -1
BITMAP
3180
1B00
FFF0
1B00
7FC0
1BC0
FFF0
1BC0
7FC0
1B00
7BC0
DB70
ENDCHAR
STARTCHAR U_517D
ENCODING 20861
SWIDTH 1000 0
DWIDTH 13 0
BBX 13 12 0 -1
BITMAP
1980
7FE0
6660
7FE0
6660
7FE0
0000
FFF0
0000
3FC0
30C0
3FC0
ENDCHAR
STARTCHAR U_517E
ENCODING 20862
SWIDTH 1000 0
DWIDTH 13 0
BBX 13 12 0 -1
BITMAP
18C0
3FE0
3660
3FE0
3660
3FE0
18C0
7FF0
18C0
FFF8
18C0
7070
ENDCHAR
STARTCHAR U_517F
ENCODING 20863
SWIDTH 1000 0
DWIDTH 13 0
BBX 13 12 0 -1
BITMAP
18C0
0D80
FFF8
3180
FFE0
31E0
FFF8
3638
0300
7FF0
0CC0
3FE0
ENDCHAR
STARTCHAR U_5180
ENCODING 20864
SWIDTH 1000 0
DWIDTH 13 0
BBX 13 12 0 -1
BITMAP
0F60
FFC0
0F30
FFF0
36C0
3FC0
36C0
7FF0
0D80
FFF0
0D80
78F0
ENDCHAR
STARTCHAR U_5181
ENCODING 20865
SWIDTH 1000 0
DWIDTH 13 0
BBX 13 12 0 -1
BITMAP
DFF0
7E30
37F0
FFE0
F7F0
FFE0
F7F8
FFC0
37F0
FF60
33B0
3330
ENDCHAR
STARTCHAR U_5182
ENCODING 20866
SWIDTH 1000 0
DWIDTH 13 0
BBX 13 12 0 -1
BITMAP
7FF0
6030
6030
6030
6030
6030
6030
6030
6030
6030
60F0
6060
ENDCHAR
STARTCHAR U_5183
ENCODING 20867
SWIDTH 1000 0
DWIDTH 13 0
BBX 13 12 0 -1
BITMAP
0000
7FF0
6030
6030
7FF0
6030
6030
7FF0
6030
6030
60F0
6060
ENDCHAR
STARTCHAR U_5184
ENCODING 20868
SWIDTH 1000 0
DWIDTH 13 0
BBX 13 12 0 -1
BITMAP
0000
3FE0
3060
3060
7FF0
3060
3060
3060
FFF8
3060
31E0
30C0
ENDCHAR
STARTCHAR U_5185
ENCODING 20869
SWIDTH 1000 0
DWIDTH 13 0
BBX 13 12 0 -1
BITMAP
0C00
0C00
FFE0
CC60
CC60
CC60
CE60
DB60
F1E0
C060
C1E0
C0C0
ENDCHAR
STARTCHAR U_5186
ENCODING 20870
SWIDTH 1000 0
DWIDTH 13 0
BBX 13 12 0 -1
BITMAP
0000
7FF0
6630
6630
6630
7FF0
6030
6030
6030
6030
60F0
6060
ENDCHAR
STARTCHAR U_5187
ENCODING 20871
SWIDTH 1000 0
DWIDTH 13 0
BBX 13 12 0 -1
BITMAP
0600
0600
FFF8
0C00
1800
3FE0
7860
D860
1860
1860
19E0
18C0
ENDCHAR
STARTCHAR U_5188
ENCODING 20872
SWIDTH 1000 0
DWIDTH 13 0
BBX 13 12 0 -1
BITMAP
7FF0
6030
60F0
6CF0
67B0
6330
67B0
6CF0
78F0
6030
60F0
6060
ENDCHAR
STARTCHAR U_5189
ENCODING 20873
SWIDTH 1000 0
DWIDTH 13 0
BBX 13 12 0 -1
BITMAP
0300
0300
3FF0
3330
3FF0
3330
3330
FFF8
3030
3030
30F0
3060
ENDCHAR
STARTCHAR U_518A
ENCODING 20874
SWIDTH 1000 0
DWIDTH 13 0
BBX 13 12 0 -1
BITMAP
0000
7FF0
6DB0
6DB0
6DB0
FFF8
6DB0
6DB0
6DB0
6DB0
60F0
6060
ENDCHAR
STARTCHAR U_518B
ENCODING 20875
SWIDTH 1000 0
DWIDTH 13 0
BBX 13 12 0 -1
BITMAP
0000
FFF0
C030
C030
DFB0
D9B0
D9B0
DFB0
C030
C030
C0F0
C060
ENDCHAR
STARTCHAR U_518C
ENCODING 20876
SWIDTH 1000 0
DWIDTH 13 0
BBX 13 12 0 -1
BITMAP
3FF0
37B0
37B0
37B0
37B0
FFF8
37B0
37B0
37B0
67B0
67B0
CF70
ENDCHAR
STARTCHAR U_518D
ENCODING 20877
SWIDTH 1000 0
DWIDTH 13 0
BBX 13 12 0 -1
BITMAP
FFF8
0600
7FE0
6660
6660
7FE0
6660
6660
FFF8
6060
6060
60E0
ENDCHAR
STARTCHAR U_518E
ENCODING 20878
SWIDTH 1000 0
DWIDTH 13 0
BBX 13 12 0 -1
BITMAP
3FC0
30C0
30C0
3EC0
36C0
36C0
FFF0
C030
C030
C030
C0F0
C060
ENDCHAR
STARTCHAR U_518F
ENCODING 20879
SWIDTH 1000 0
DWIDTH 13 0
BBX 13 12 0 -1
BITMAP
FFF0
C030
C030
CDB0
D8F0
F0F0
DFB0
D9B0
D9B0
DFB0
C0F0
C060
ENDCHAR
STARTCHAR U_5190
ENCODING 20880
SWIDTH 1000 0
DWIDTH 13 0
BBX 13 12 0 -1
BITMAP
7FF0
6030
7FF0
6030
7FF0
6030
3FE0
3060
3FE0
3060
3FE0
3060
ENDCHAR
STARTCHAR U_5191
ENCODING 20881
SWIDTH 1000 0
DWIDTH 13 0
BBX 13 12 0 -1
BITMAP
0600
7FF0
6630
7FF0
6630
7FF0
3060
3FE0
3060
3FE0
3060
30E0
ENDCHAR
STARTCHAR U_5192
ENCODING 20882
SWIDTH 1000 0
DWIDTH 13 0
BBX 13 12 0 -1
BITMAP
FFC0
C0C0
FFC0
C0C0
FFC0
6180
7F80
6180
7F80
6180
7F80
6180
ENDCHAR
STARTCHAR U_5193
ENCODING 20883
SWIDTH 1000 0
DWIDTH 13 0
BBX 13 12 0 -1
BITMAP
0D80
7FF0
0D80
3FE0
0D80
FFF8
1EC0
1FC0
1EC0
FFF8
18C0
18C0
ENDCHAR
STARTCHAR U_5194
ENCODING 20884
SWIDTH 1000 0
DWIDTH 13 0
BBX 13 12 0 -1
BITMAP
3FE0
3060
3FE0
3060
0F80
0000
FBF0
D8C0
DFF8
F8C0
D8C0
01C0
ENDCHAR
STARTCHAR U_5195
ENCODING 20885
SWIDTH 1000 0
DWIDTH 13 0
BBX 13 12 0 -1
BITMAP
7FC0
60C0
7FC0
60C0
7FC0
3F00
7FC0
F6C0
3FC0
0F30
1B30
F1F0
ENDCHAR
STARTCHAR U_5196
ENCODING 20886
SWIDTH 1000 0
DWIDTH 13 0
BBX 13 12 0 -1
BITMAP
0000
7FF8
6030
C060
0000
0000
0000
0000
0000
0000
0000
0000
ENDCHAR
STARTCHAR U_5197
ENCODING 20887
SWIDTH 1000 0
DWIDTH 13 0
BBX 13 12 0 -1
BITMAP
FFF0
C030
C030
0000
1F00
1B00
1B00
1B00
3300
3330
6330
C1F0
ENDCHAR
STARTCHAR U_5198
ENCODING 20888
SWIDTH 1000 0
DWIDTH 13 0
BBX 13 12 0 -1
BITMAP
0600
0600
7FF8
6618
C630
0600
0780
0D80
0D80
1998
3198
E0F8
ENDCHAR
STARTCHAR U_5199
ENCODING 20889
SWIDTH 1000 0
DWIDTH 13 0
BBX 13 12 0 -1
BITMAP
FFF8
D830
D800
1FC0
1800
3000
3FE0
0060
FF60
0060
0060
01C0
ENDCHAR
STARTCHAR U_519A
ENCODING 20890
SWIDTH 1000 0
DWIDTH 13 0
BBX 13 12 0 -1
BITMAP
0000
7FF8
C018
0600
0600
0600
6630
6630
6630
6630
7FF0
6030
ENDCHAR
STARTCHAR U_519B
ENCODING 20891
SWIDTH 1000 0
DWIDTH 13 0
BBX 13 12 0 -1
BITMAP
FFF0
CC30
CC30
3FC0
1800
3600
7FE0
0600
0600
FFF0
0600
0600
ENDCHAR
STARTCHAR U_519C
ENCODING 20892
SWIDTH 1000 0
DWIDTH 13 0
BBX 13 12 0 -1
BITMAP
0600
0600
7FF0
CC30
0F00
1B60
1BC0
3980
F980
18C0
1E60
1C30
ENDCHAR
STARTCHAR U_519D
ENCODING 20893
SWIDTH 1000 0
DWIDTH 13 0
BBX 13 12 0 -1
BITMAP
0000
7FF8
6030
C000
1FC0
18C0
1FC0
18C0
1FC0
18C0
18C0
FFF8
ENDCHAR
STARTCHAR U_519E
ENCODING 20894
SWIDTH 1000 0
DWIDTH 13 0
BBX 13 12 0 -1
BITMAP
0000
7FF0
C030
0600
36C0
1F80
7FF0
0F80
1EC0
3660
E638
0600
ENDCHAR
STARTCHAR U_519F
ENCODING 20895
SWIDTH 1000 0
DWIDTH 13 0
BBX 13 12 0 -1
BITMAP
0000
7FF0
C630
3FC0
30C0
3FC0
30C0
3FC0
0000
7FF0
6030
3FF0
ENDCHAR
STARTCHAR U_51A0
ENCODING 20896
SWIDTH 1000 0
DWIDTH 13 0
BBX 13 12 0 -1
BITMAP
7FF8
6018
6078
3E60
01F8
7F60
3DE0
3DE0
3C60
3CF8
6C18
C7F8
ENDCHAR
STARTCHAR U_51A1
ENCODING 20897
SWIDTH 1000 0
DWIDTH 13 0
BBX 13 12 0 -1
BITMAP
7FF8
6030
DFC0
0000
7FF0
0C60
1EC0
7F80
1F80
7DC0
1FE0
7338
ENDCHAR
STARTCHAR U_51A2
ENCODING 20898
SWIDTH 1000 0
DWIDTH 13 0
BBX 13 12 0 -1
BITMAP
FFF0
C030
FFF0
0C00
1E00
3660
6FC0
1F80
7FC0
1B60
7330
0E00
ENDCHAR
STARTCHAR U_51A3
ENCODING 20899
SWIDTH 1000 0
DWIDTH 13 0
BBX 13 12 0 -1
BITMAP
0000
7FF0
C030
7FE0
3600
3FF0
36F0
3EF0
3760
7EE0
07B0
0718
ENDCHAR
STARTCHAR U_51A4
ENCODING 20900
SWIDTH 1000 0
DWIDTH 13 0
BBX 13 12 0 -1
BITMAP
FFF0
CC30
DFB0
3300
7FE0
3660
3FE0
3760
0FC0
0F78
3B18
E1F8
ENDCHAR
STARTCHAR U_51A5
ENCODING 20901
SWIDTH 1000 0
DWIDTH 13 0
BBX 13 12 0 -1
BITMAP
FFF0
C030
FFF0
30C0
3FC0
30C0
3FC0
0600
FFF0
1980
30C0
E070
ENDCHAR
STARTCHAR U_51A6
ENCODING 20902
SWIDTH 1000 0
DWIDTH 13 0
BBX 13 12 0 -1
BITMAP
0000
7FF0
C030
3EC0
00F0
FFC0
3DF0
3DE0
3CC0
3DF8
6F38
C7F8
ENDCHAR
STARTCHAR U_51A7
ENCODING 20903
SWIDTH 1000 0
DWIDTH 13 0
BBX 13 12 0 -1
BITMAP
7FF8
6018
D8F0
18C0
7FF0
18C0
3DC0
3FE0
7BF0
7BF0
DED8
18C0
ENDCHAR
STARTCHAR U_51A8
ENCODING 20904
SWIDTH 1000 0
DWIDTH 13 0
BBX 13 12 0 -1
BITMAP
7FF8
6018
FFF0
0000
1FC0
18C0
7FF0
6330
7FF0
6330
6330
7FF0
ENDCHAR
STARTCHAR U_51A9
ENCODING 20905
SWIDTH 1000 0
DWIDTH 13 0
BBX 13 12 0 -1
BITMAP
FFF8
C018
3DE0
3060
3DE0
3060
3FE0
0C00
1FF8
3378
FFF8
1FB0
ENDCHAR
STARTCHAR U_51AA
ENCODING 20906
SWIDTH 1000 0
DWIDTH 13 0
BBX 13 12 0 -1
BITMAP
7FF8
6798
7FF8
1860
1FE0
1860
7FF8
0FC0
3FF0
7B78
1BE0
0300
ENDCHAR
STARTCHAR U_51AB
ENCODING 20907
SWIDTH 1000 0
DWIDTH 13 0
BBX 13 12 0 -1
BITMAP
C000
6000
3000
0000
1800
3000
3000
E000
6000
6000
6000
6000
ENDCHAR
STARTCHAR U_51AC
ENCODING 20908
SWIDTH 1000 0
DWIDTH 13 0
BBX 13 12 0 -1
BITMAP
1800
1FC0
1980
3F00
6600
C700
1DC0
F670
0300
1C00
0700
0180
ENDCHAR
STARTCHAR U_51AD
ENCODING 20909
SWIDTH 1000 0
DWIDTH 13 0
BBX 13 12 0 -1
BITMAP
0600
0600
FFF0
0F00
1980
30C0
6E60
C338
1980
0C00
0700
0300
ENDCHAR
STARTCHAR U_51AE
ENCODING 20910
SWIDTH 1000 0
DWIDTH 13 0
BBX 13 12 0 -1
BITMAP
0000
6000
37F0
3180
0D80
1980
3180
F180
3180
3180
3180
3FF8
ENDCHAR
STARTCHAR U_51AF
ENCODING 20911
SWIDTH 1000 0
DWIDTH 13 0
BBX 13 12 0 -1
BITMAP
0FE0
6060
3360
1B60
1B60
37F8
3018
E018
6FF8
6018
6018
0070
ENDCHAR
STARTCHAR U_51B0
ENCODING 20912
SWIDTH 1000 0
DWIDTH 13 0
BBX 13 12 0 -1
BITMAP
0180
6180
31B0
0FE0
37C0
37E0
67E0
EDE0
6DB0
7998
6780
0300
ENDCHAR
STARTCHAR U_51B1
ENCODING 20913
SWIDTH 1000 0
DWIDTH 13 0
BBX 13 12 0 -1
BITMAP
0000
6FF8
3300
0300
1BE0
3660
3660
6C60
EFC0
60C0
60C0
7FF8
ENDCHAR
STARTCHAR U_51B2
ENCODING 20914
SWIDTH 1000 0
DWIDTH 13 0
BBX 13 12 0 -1
BITMAP
0180
C180
6180
6FF0
1DB0
3DB0
3DB0
EFF0
6DB0
6180
6180
0180
ENDCHAR
STARTCHAR U_51B3
ENCODING 20915
SWIDTH 1000 0
DWIDTH 13 0
BBX 13 12 0 -1
BITMAP
0300
C300
6FE0
0360
3360
6360
7FF0
C300
C780
CCC0
D860
3030
ENDCHAR
STARTCHAR U_51B4
ENCODING 20916
SWIDTH 1000 0
DWIDTH 13 0
BBX 13 12 0 -1
BITMAP
0FF8
6060
3360
3660
37F8
0CE0
19E0
3360
E360
6660
7DE0
00C0
ENDCHAR
STARTCHAR U_51B5
ENCODING 20917
SWIDTH 1000 0
DWIDTH 13 0
BBX 13 12 0 -1
BITMAP
CFF0
6C30
6C30
1C30
3FF0
3FF0
63C0
E3C0
63C0
66D8
6CD8
1878
ENDCHAR
STARTCHAR U_51B6
ENCODING 20918
SWIDTH 1000 0
DWIDTH 13 0
BBX 13 12 0 -1
BITMAP
0300
C300
6600
6C60
3FF0
3030
6FE0
EC60
6C60
6C60
6FE0
0C60
ENDCHAR
STARTCHAR U_51B7
ENCODING 20919
SWIDTH 1000 0
DWIDTH 13 0
BBX 13 12 0 -1
BITMAP
0300
C380
66C0
6C60
3B38
3180
7FE0
E060
66C0
6380
6180
00C0
ENDCHAR
STARTCHAR U_51B8
ENCODING 20920
SWIDTH 1000 0
DWIDTH 13 0
BBX 13 12 0 -1
BITMAP
0180
6DB0
37B0
37E0
0180
1FF0
3180
E180
7FF8
6180
6180
0180
ENDCHAR
STARTCHAR U_51B9
ENCODING 20921
SWIDTH 1000 0
DWIDTH 13 0
BBX 13 12 0 -1
BITMAP
6360
3330
37F8
0300
1B00
33F0
37E0
67E0
ECC0
6DE0
7B30
0618
ENDCHAR
STARTCHAR U_51BA
ENCODING 20922
SWIDTH 1000 0
DWIDTH 13 0
BBX 13 12 0 -1
BITMAP
6FF0
3C30
3FF0
0D80
0D80
1FF8
3D80
ED80
6CC0
6FD8
6E78
0C38
ENDCHAR
STARTCHAR U_51BB
ENCODING 20923
SWIDTH 1000 0
DWIDTH 13 0
BBX 13 12 0 -1
BITMAP
0300
DFF0
6600
3780
3D80
0FF0
6180
E7E0
6DB0
79B0
6780
6300
ENDCHAR
STARTCHAR U_51BC
ENCODING 20924
SWIDTH 1000 0
DWIDTH 13 0
BBX 13 12 0 -1
BITMAP
60C0
36C0
37F0
06C0
18C0
3FF8
3360
E360
6360
6678
6678
1C38
ENDCHAR
STARTCHAR U_51BD
ENCODING 20925
SWIDTH 1000 0
DWIDTH 13 0
BBX 13 12 0 -1
BITMAP
C030
7FB0
66F0
07F0
3FF0
3FF0
7FF0
E3F0
66F0
6630
6CF0
1860
ENDCHAR
STARTCHAR U_51BE
ENCODING 20926
SWIDTH 1000 0
DWIDTH 13 0
BBX 13 12 0 -1
BITMAP
6180
33C0
3360
0630
0FF8
3000
37F0
3630
E630
6630
67F0
0630
ENDCHAR
STARTCHAR U_51BF
ENCODING 20927
SWIDTH 1000 0
DWIDTH 13 0
BBX 13 12 0 -1
BITMAP
0180
67F0
31B0
3FF8
01B0
1FF0
3180
E7F0
6180
6FF8
6180
0180
ENDCHAR
STARTCHAR U_51C0
ENCODING 20928
SWIDTH 1000 0
DWIDTH 13 0
BBX 13 12 0 -1
BITMAP
C600
67E0
6CC0
1FF0
31B0
3FF8
31B0
EFF0
6180
6180
6780
0300
ENDCHAR
STARTCHAR U_51C1
ENCODING 20929
SWIDTH 1000 0
DWIDTH 13 0
BBX 13 12 0 -1
BITMAP
0180
7FF8
3180
3FF0
0DB0
1DB0
3FF0
E380
67C0
6DE0
79B8
0180
ENDCHAR
STARTCHAR U_51C2
ENCODING 20930
SWIDTH 1000 0
DWIDTH 13 0
BBX 13 12 0 -1
BITMAP
0600
67E0
3660
3CC0
1FF0
3DB0
3DB0
EFF0
63C0
63D8
66D8
1C78
ENDCHAR
STARTCHAR U_51C3
ENCODING 20931
SWIDTH 1000 0
DWIDTH 13 0
BBX 13 12 0 -1
BITMAP
0180
63C0
3660
3C38
07E0
1980
3FF0
E180
67E0
67B0
6D98
1B18
ENDCHAR
STARTCHAR U_51C4
ENCODING 20932
SWIDTH 1000 0
DWIDTH 13 0
BBX 13 12 0 -1
BITMAP
C300
6FF8
6360
0FF8
0360
3FE0
3360
FFF8
66C0
66C0
63E0
0E38
ENDCHAR
STARTCHAR U_51C5
ENCODING 20933
SWIDTH 1000 0
DWIDTH 13 0
BBX 13 12 0 -1
BITMAP
CFF8
6D98
6D98
0FF8
3D98
3FF8
6F78
EF78
6FF8
6C18
6FF8
0C18
ENDCHAR
STARTCHAR U_51C6
ENCODING 20934
SWIDTH 1000 0
DWIDTH 13 0
BBX 13 12 0 -1
BITMAP
C3C0
66C0
6FF8
06C0
1EC0
37F0
36C0
E7F0
66C0
66C0
67F8
0600
ENDCHAR
STARTCHAR U_51C7
ENCODING 20935
SWIDTH 1000 0
DWIDTH 13 0
BBX 13 12 0 -1
BITMAP
0C60
CDE0
6DE0
7FE0
3F30
6FD8
7EC0
7D80
FD80
CDB0
CF78
CFD8
ENDCHAR
STARTCHAR U_51C8
ENCODING 20936
SWIDTH 1000 0
DWIDTH 13 0
BBX 13 12 0 -1
BITMAP
00E0
CFB0
6F60
6780
0FE0
31E0
7FF8
E1E0
6FE0
6180
6780
6300
ENDCHAR
STARTCHAR U_51C9
ENCODING 20937
SWIDTH 1000 0
DWIDTH 13 0
BBX 13 12 0 -1
BITMAP
0180
C180
6FF8
6000
07F0
3630
3630
E7F0
67E0
6DB0
7998
0380
ENDCHAR
STARTCHAR U_51CA
ENCODING 20938
SWIDTH 1000 0
DWIDTH 13 0
BBX 13 12 0 -1
BITMAP
0180
6FF8
3180
37F0
0180
3FF8
3630
E7F0
6630
67F0
6630
0670
ENDCHAR
STARTCHAR U_51CB
ENCODING 20939
SWIDTH 1000 0
DWIDTH 13 0
BBX 13 12 0 -1
BITMAP
0FF0
CDB0
6FF0
6DB0
0FF0
3C30
3FF0
EFF0
7BF0
7BF0
7030
6070
ENDCHAR
STARTCHAR U_51CC
ENCODING 20940
SWIDTH 1000 0
DWIDTH 13 0
BBX 13 12 0 -1
BITMAP
C300
6FE0
6300
0300
3FF0
6C60
FFF0
66C0
7F80
6380
06E0
3C38
ENDCHAR
STARTCHAR U_51CD
ENCODING 20941
SWIDTH 1000 0
DWIDTH 13 0
BBX 13 12 0 -1
BITMAP
60C0
3FF8
30C0
07F8
1ED8
1FF8
36D8
77F8
33E0
36F0
3CD8
00C0
ENDCHAR
STARTCHAR U_51CE
ENCODING 20942
SWIDTH 1000 0
DWIDTH 13 0
BBX 13 12 0 -1
BITMAP
6180
33C0
3660
0C30
1FF8
3180
3180
FFF8
6DB0
67E0
67E0
1FF8
ENDCHAR
STARTCHAR U_51CF
ENCODING 20943
SWIDTH 1000 0
DWIDTH 13 0
BBX 13 12 0 -1
BITMAP
00F0
C0D8
7FF8
18C0
3FC0
78F0
7FF0
DBF0
DFE0
D8F8
31B8
6718
ENDCHAR
STARTCHAR U_51D0
ENCODING 20944
SWIDTH 1000 0
DWIDTH 13 0
BBX 13 12 0 -1
BITMAP
0000
7FF8
3360
3FF8
0F78
3F78
6FF8
E180
6FF0
6180
6180
1FF8
ENDCHAR
STARTCHAR U_51D1
ENCODING 20945
SWIDTH 1000 0
DWIDTH 13 0
BBX 13 12 0 -1
BITMAP
6180
3FF0
3180
0FF0
1B00
3FF8
3C30
FBD8
6180
7FF0
6660
1C38
ENDCHAR
STARTCHAR U_51D2
ENCODING 20946
SWIDTH 1000 0
DWIDTH 13 0
BBX 13 12 0 -1
BITMAP
0180
6DB0
3FF0
3000
1FF8
1800
3FF0
3C30
EFF0
6660
63C0
1FF8
ENDCHAR
STARTCHAR U_51D3
ENCODING 20947
SWIDTH 1000 0
DWIDTH 13 0
BBX 13 12 0 -1
BITMAP
0000
7FF8
33C0
3FF0
0FF0
1FF0
3180
3FF8
E1C0
63E0
67B8
1DB0
ENDCHAR
STARTCHAR U_51D4
ENCODING 20948
SWIDTH 1000 0
DWIDTH 13 0
BBX 13 12 0 -1
BITMAP
0180
63C0
37E0
3DB8
07F0
3630
37F0
E630
6FF0
6F30
7BF0
0330
ENDCHAR
STARTCHAR U_51D5
ENCODING 20949
SWIDTH 1000 0
DWIDTH 13 0
BBX 13 12 0 -1
BITMAP
0FF8
6C18
37F0
3630
07F0
1E30
37F0
E0C0
7FF8
6360
6630
0C30
ENDCHAR
STARTCHAR U_51D6
ENCODING 20950
SWIDTH 1000 0
DWIDTH 13 0
BBX 13 12 0 -1
BITMAP
66C0
37F8
3EC0
1FF8
36C0
E7F8
66C0
67F8
0300
FFF8
0300
0300
ENDCHAR
STARTCHAR U_51D7
ENCODING 20951
SWIDTH 1000 0
DWIDTH 13 0
BBX 13 12 0 -1
BITMAP
0DB0
6DB0
3FF0
3780
06C0
37F8
3CC0
FFF0
6CC0
6FF0
6CC0
6FF8
ENDCHAR
STARTCHAR U_51D8
ENCODING 20952
SWIDTH 1000 0
DWIDTH 13 0
BBX 13 12 0 -1
BITMAP
CF18
6FF0
7FC0
0FC0
3FF8
3FF0
6FF0
EFF0
7FF0
6FF0
79B0
3330
ENDCHAR
STARTCHAR U_51D9
ENCODING 20953
SWIDTH 1000 0
DWIDTH 13 0
BBX 13 12 0 -1
BITMAP
07F8
67F8
37F8
30C0
07F8
18C0
3FF8
E330
67F8
60C0
6FF8
00C0
ENDCHAR
STARTCHAR U_51DA
ENCODING 20954
SWIDTH 1000 0
DWIDTH 13 0
BBX 13 12 0 -1
BITMAP
0360
6FF8
3360
37F0
0FF8
1B78
37F0
3000
EFF8
63E0
66F0
1DD8
ENDCHAR
STARTCHAR U_51DB
ENCODING 20955
SWIDTH 1000 0
DWIDTH 13 0
BBX 13 12 0 -1
BITMAP
0180
DFF8
6FF0
6FF0
0C30
3FF0
3000
E7E0
6000
7FF8
6DB0
1B98
ENDCHAR
STARTCHAR U_51DC
ENCODING 20956
SWIDTH 1000 0
DWIDTH 13 0
BBX 13 12 0 -1
BITMAP
0180
DFF8
6FF0
6FF0
0C30
3FF0
3060
E7C0
6180
7FF8
6DB0
1B98
ENDCHAR
STARTCHAR U_51DD
ENCODING 20957
SWIDTH 1000 0
DWIDTH 13 0
BBX 13 12 0 -1
BITMAP
CDF8
6E30
6C60
0FE0
31F8
3F60
7EE0
FFF8
67E0
6FE0
7BE0
0078
ENDCHAR
STARTCHAR U_51DE
ENCODING 20958
SWIDTH 1000 0
DWIDTH 13 0
BBX 13 12 0 -1
BITMAP
FFF8
FF78
7F78
3FF8
3FF8
7FE0
FF60
FF78
0FF8
0000
37B0
6CD8
ENDCHAR
STARTCHAR U_51DF
ENCODING 20959
SWIDTH 1000 0
DWIDTH 13 0
BBX 13 12 0 -1
BITMAP
0180
DFF8
6180
7FF8
1BD8
3FF8
3C30
EFF0
6C30
6FF0
63C0
1E70
ENDCHAR
STARTCHAR U_51E0
ENCODING 20960
SWIDTH 1000 0
DWIDTH 13 0
BBX 13 12 0 -1
BITMAP
1F80
1980
1980
1980
1980
1980
1980
1980
3198
3198
6198
C0F8
ENDCHAR
STARTCHAR U_51E1
ENCODING 20961
SWIDTH 1000 0
DWIDTH 13 0
BBX 13 12 0 -1
BITMAP
1FC0
18C0
18C0
1EC0
1BC0
1BC0
1BC0
18C0
18D8
30D8
60D8
C078
ENDCHAR
STARTCHAR U_51E2
ENCODING 20962
SWIDTH 1000 0
DWIDTH 13 0
BBX 13 12 0 -1
BITMAP
0600
0C00
1F80
1980
1980
1980
1980
1980
3198
3198
6198
C0F8
ENDCHAR
STARTCHAR U_51E3
ENCODING 20963
SWIDTH 1000 0
DWIDTH 13 0
BBX 13 12 0 -1
BITMAP
0600
0600
1F80
1980
1980
1980
1980
1980
3198
3198
6198
C0F8
ENDCHAR
STARTCHAR U_51E4
ENCODING 20964
SWIDTH 1000 0
DWIDTH 13 0
BBX 13 12 0 -1
BITMAP
3FE0
3060
3FE0
31E0
3DE0
37E0
3360
3360
37F8
3DF8
6038
C018
ENDCHAR
STARTCHAR U_51E5
ENCODING 20965
SWIDTH 1000 0
DWIDTH 13 0
BBX 13 12 0 -1
BITMAP
3FF0
3030
3030
3FF0
3000
37C0
36C0
36C0
36C0
6CD8
6CD8
D878
ENDCHAR
STARTCHAR U_51E6
ENCODING 20966
SWIDTH 1000 0
DWIDTH 13 0
BBX 13 12 0 -1
BITMAP
3000
31E0
3FE0
67E0
67E0
F7E0
3DE0
3DF8
1B78
3E38
6380
C0F8
ENDCHAR
STARTCHAR U_51E7
ENCODING 20967
SWIDTH 1000 0
DWIDTH 13 0
BBX 13 12 0 -1
BITMAP
7FE0
6060
6660
6660
7FE0
7FE0
7FE0
7FE0
7FE0
7FF8
6638
C618
ENDCHAR
STARTCHAR U_51E8
ENCODING 20968
SWIDTH 1000 0
DWIDTH 13 0
BBX 13 12 0 -1
BITMAP
7FE0
6060
7FE0
6060
6060
7FE0
6660
6C60
7B60
7FF8
61B8
C018
ENDCHAR
STARTCHAR U_51E9
ENCODING 20969
SWIDTH 1000 0
DWIDTH 13 0
BBX 13 12 0 -1
BITMAP
7FE0
6060
6660
6660
7FE0
6660
6F60
7FE0
77E0
6678
6638
C018
ENDCHAR
STARTCHAR U_51EA
ENCODING 20970
SWIDTH 1000 0
DWIDTH 13 0
BBX 13 12 0 -1
BITMAP
7FE0
6060
6660
6660
6660
7FE0
7E60
7E60
7E60
7E78
FFF8
C018
ENDCHAR
STARTCHAR U_51EB
ENCODING 20971
SWIDTH 1000 0
DWIDTH 13 0
BBX 13 12 0 -1
BITMAP
0C00
7F80
7980
6F80
6000
7FE0
0060
3F60
33C0
3330
6330
C1F0
ENDCHAR
STARTCHAR U_51EC
ENCODING 20972
SWIDTH 1000 0
DWIDTH 13 0
BBX 13 12 0 -1
BITMAP
3FE0
3060
3FE0
3060
3FE0
3DE0
3FE0
3DE0
3DE0
6FF8
6038
C018
ENDCHAR
STARTCHAR U_51ED
ENCODING 20973
SWIDTH 1000 0
DWIDTH 13 0
BBX 13 12 0 -1
BITMAP
1870
3FC0
3180
7FF8
F180
37F0
3000
0FC0
0CC0
0CD8
18D8
7078
ENDCHAR
STARTCHAR U_51EE
ENCODING 20974
SWIDTH 1000 0
DWIDTH 13 0
BBX 13 12 0 -1
BITMAP
3FE0
3060
3FE0
3660
3FE0
3DE0
3FE0
3DE0
3FE0
6DF8
6038
C018
ENDCHAR
STARTCHAR U_51EF
ENCODING 20975
SWIDTH 1000 0
DWIDTH 13 0
BBX 13 12 0 -1
BITMAP
3000
FFE0
FF60
FF60
0360
FF60
0F60
FF60
C360
C678
FE78
CC78
ENDCHAR
STARTCHAR U_51F0
ENCODING 20976
SWIDTH 1000 0
DWIDTH 13 0
BBX 13 12 0 -1
BITMAP
3FE0
3360
3FE0
3DE0
3FE0
3DE0
3FE0
3360
6FF8
6338
7FF8
C018
ENDCHAR
STARTCHAR U_51F1
ENCODING 20977
SWIDTH 1000 0
DWIDTH 13 0
BBX 13 12 0 -1
BITMAP
33E0
FF60
FF60
FF60
0360
FF60
0360
FF60
CF60
FF78
7E78
FC78
ENDCHAR
STARTCHAR U_51F2
ENCODING 20978
SWIDTH 1000 0
DWIDTH 13 0
BBX 13 12 0 -1
BITMAP
3FF0
3DB0
3FF0
3F30
3FF0
3FF0
3FF0
3FF0
3FF0
7FB0
7FD8
CF78
ENDCHAR
STARTCHAR U_51F3
ENCODING 20979
SWIDTH 1000 0
DWIDTH 13 0
BBX 13 12 0 -1
BITMAP
7FC0
79E0
30C0
7FE0
C038
1F80
1980
FFF8
0000
1F80
19B0
F1F0
ENDCHAR
STARTCHAR U_51F4
ENCODING 20980
SWIDTH 1000 0
DWIDTH 13 0
BBX 13 12 0 -1
BITMAP
CFF8
7D80
0FF0
3D80
EFF8
7FF8
7FF8
1FC0
18C0
18C0
18D8
F0F8
ENDCHAR
STARTCHAR U_51F5
ENCODING 20981
SWIDTH 1000 0
DWIDTH 13 0
BBX 13 12 0 -1
BITMAP
0000
6018
6018
6018
6018
6018
6018
6018
6018
6018
FFF8
6018
ENDCHAR
STARTCHAR U_51F6
ENCODING 20982
SWIDTH 1000 0
DWIDTH 13 0
BBX 13 12 0 -1
BITMAP
0180
D9B0
CF30
C630
C730
CF30
D9B0
F1B0
C030
FFF0
C030
0000
ENDCHAR
STARTCHAR U_51F7
ENCODING 20983
SWIDTH 1000 0
DWIDTH 13 0
BBX 13 12 0 -1
BITMAP
0300
0300
6318
6FD8
6318
6318
6318
7FF8
6018
6018
7FF8
6018
ENDCHAR
STARTCHAR U_51F8
ENCODING 20984
SWIDTH 1000 0
DWIDTH 13 0
BBX 13 12 0 -1
BITMAP
1F80
1980
1980
1980
1980
F9F0
C030
C030
C030
C030
FFF0
C030
ENDCHAR
STARTCHAR U_51F9
ENCODING 20985
SWIDTH 1000 0
DWIDTH 13 0
BBX 13 12 0 -1
BITMAP
0000
7CF8
6CD8
6CD8
6CD8
6CD8
6FD8
6018
6018
6018
7FF8
6018
ENDCHAR
STARTCHAR U_51FA
ENCODING 20986
SWIDTH 1000 0
DWIDTH 13 0
BBX 13 12 0 -1
BITMAP
0600
6660
6660
6660
7FE0
6660
0600
C630
C630
C630
FFF0
C030
ENDCHAR
STARTCHAR U_51FB
ENCODING 20987
SWIDTH 1000 0
DWIDTH 13 0
BBX 13 12 0 -1
BITMAP
0600
0600
7FE0
0600
0600
FFF0
0600
6660
6660
6660
7FE0
6060
ENDCHAR
STARTCHAR U_51FC
ENCODING 20988
SWIDTH 1000 0
DWIDTH 13 0
BBX 13 12 0 -1
BITMAP
0600
C630
C630
FEF0
DFB0
DF30
F7B0
E6F0
DE30
CC30
FFF0
C030
ENDCHAR
STARTCHAR U_51FD
ENCODING 20989
SWIDTH 1000 0
DWIDTH 13 0
BBX 13 12 0 -1
BITMAP
3FE0
00C0
0180
1B60
6FF0
6FB0
63B0
7BF0
7370
6630
7FF0
6030
ENDCHAR
STARTCHAR U_51FE
ENCODING 20990
SWIDTH 1000 0
DWIDTH 13 0
BBX 13 12 0 -1
BITMAP
1FE0
00C0
0180
FF18
FFF8
FF78
FFF8
FFD8
C3F8
CF78
C618
FFF8
ENDCHAR
STARTCHAR U_51FF
ENCODING 20991
SWIDTH 1000 0
DWIDTH 13 0
BBX 13 12 0 -1
BITMAP
0D80
6DB0
3DE0
FFF8
0CC0
67B0
7FF0
6330
7FF0
6330
7FF0
6030
ENDCHAR
STARTCHAR U_5200
ENCODING 20992
SWIDTH 1000 0
DWIDTH 13 0
BBX 13 12 0 -1
BITMAP
0000
3FF0
0630
0630
0630
0630
0630
0C30
0C30
1830
31E0
60C0
ENDCHAR
STARTCHAR U_5201
ENCODING 20993
SWIDTH 1000 0
DWIDTH 13 0
BBX 13 12 0 -1
BITMAP
0060
7FF0
0060
0060
0360
0660
0C60
3860
E060
0060
03C0
0180
ENDCHAR
STARTCHAR U_5202
ENCODING 20994
SWIDTH 1000 0
DWIDTH 13 0
BBX 13 12 0 -1
BITMAP
0030
0030
01B0
01B0
01B0
01B0
01B0
01B0
0030
0030
00F0
0060
ENDCHAR
STARTCHAR U_5203
ENCODING 20995
SWIDTH 1000 0
DWIDTH 13 0
BBX 13 12 0 -1
BITMAP
0060
7FF0
0660
0660
3660
3660
6C60
0C60
1860
1860
33C0
E180
ENDCHAR
STARTCHAR U_5204
ENCODING 20996
SWIDTH 1000 0
DWIDTH 13 0
BBX 13 12 0 -1
BITMAP
7FF0
0C30
6C30
3C30
1C30
0C30
0E30
0F30
19F0
1878
30F0
6060
ENDCHAR
STARTCHAR U_5205
ENCODING 20997
SWIDTH 1000 0
DWIDTH 13 0
BBX 13 12 0 -1
BITMAP
00C0
7FE0
0CC0
0CC0
0CC0
6CF0
6CD8
D8D8
18C0
30C0
6780
C300
ENDCHAR
STARTCHAR U_5206
ENCODING 20998
SWIDTH 1000 0
DWIDTH 13 0
BBX 13 12 0 -1
BITMAP
0300
1B00
1980
30C0
6060
FFF8
0CC0
0CC0
0CC0
18C0
3780
6300
ENDCHAR
STARTCHAR U_5207
ENCODING 20999
SWIDTH 1000 0
DWIDTH 13 0
BBX 13 12 0 -1
BITMAP
3000
3FF8
3198
3198
3D98
F198
3198
3F18
3B18
3318
06F0
0C60
ENDCHAR
STARTCHAR U_5208
ENCODING 21000
SWIDTH 1000 0
DWIDTH 13 0
BBX 13 12 0 -1
BITMAP
0030
0C30
CDB0
6DB0
3DB0
19B0
19B0
3DB0
37B0
6630
C0F0
0060
ENDCHAR
STARTCHAR U_5209
ENCODING 21001
SWIDTH 1000 0
DWIDTH 13 0
BBX 13 12 0 -1
BITMAP
3018
3F98
6078
C078
7F78
0678
0C78
1878
3078
6198
61F8
3FB0
ENDCHAR
STARTCHAR U_520A
ENCODING 21002
SWIDTH 1000 0
DWIDTH 13 0
BBX 13 12 0 -1
BITMAP
0030
7E30
18F0
18F0
18F0
FFF0
18F0
18F0
18F0
1830
18F0
1860
ENDCHAR
STARTCHAR U_520B
ENCODING 21003
SWIDTH 1000 0
DWIDTH 13 0
BBX 13 12 0 -1
BITMAP
0618
0F18
7818
18D8
18D8
FFD8
18D8
18D8
18D8
3018
6078
C030
ENDCHAR
STARTCHAR U_520C
ENCODING 21004
SWIDTH 1000 0
DWIDTH 13 0
BBX 13 12 0 -1
BITMAP
0618
0618
0678
7FF8
0678
6678
3678
3678
0678
0618
1E78
0C30
ENDCHAR
STARTCHAR U_520D
ENCODING 21005
SWIDTH 1000 0
DWIDTH 13 0
BBX 13 12 0 -1
BITMAP
0C00
1800
1FC0
3300
6660
FFF0
0060
0060
3FE0
0060
0060
7FE0
ENDCHAR
STARTCHAR U_520E
ENCODING 21006
SWIDTH 1000 0
DWIDTH 13 0
BBX 13 12 0 -1
BITMAP
3018
3018
7F78
FF78
3F78
6F78
DB78
1B78
3378
6318
CF78
0630
ENDCHAR
STARTCHAR U_520F
ENCODING 21007
SWIDTH 1000 0
DWIDTH 13 0
BBX 13 12 0 -1
BITMAP
6030
7E30
C030
3DB0
01B0
FDB0
0DB0
0DB0
0C30
0F30
0FF0
0760
ENDCHAR
STARTCHAR U_5210
ENCODING 21008
SWIDTH 1000 0
DWIDTH 13 0
BBX 13 12 0 -1
BITMAP
0018
3F18
3378
3F78
3F78
7FF8
3378
3378
3378
6318
6F78
C630
ENDCHAR
STARTCHAR U_5211
ENCODING 21009
SWIDTH 1000 0
DWIDTH 13 0
BBX 13 12 0 -1
BITMAP
0318
7F98
3678
3678
3678
FFF8
3678
3678
3678
6618
6678
C630
ENDCHAR
STARTCHAR U_5212
ENCODING 21010
SWIDTH 1000 0
DWIDTH 13 0
BBX 13 12 0 -1
BITMAP
1818
1E18
1B78
1BF8
7E78
1878
1E78
1E78
0C18
0D98
1FF8
7330
ENDCHAR
STARTCHAR U_5213
ENCODING 21011
SWIDTH 1000 0
DWIDTH 13 0
BBX 13 12 0 -1
BITMAP
0018
7F18
0078
0078
FFF8
3678
3678
3678
3678
6798
6778
C630
ENDCHAR
STARTCHAR U_5214
ENCODING 21012
SWIDTH 1000 0
DWIDTH 13 0
BBX 13 12 0 -1
BITMAP
1830
7E30
1EF0
1EF0
1EF0
FFF0
18F0
18F0
3C30
3630
66F0
C360
ENDCHAR
STARTCHAR U_5215
ENCODING 21013
SWIDTH 1000 0
DWIDTH 13 0
BBX 13 12 0 -1
BITMAP
3FE0
0660
0C60
1860
71C0
0000
FFF8
36D8
36D8
36D8
6798
DF70
ENDCHAR
STARTCHAR U_5216
ENCODING 21014
SWIDTH 1000 0
DWIDTH 13 0
BBX 13 12 0 -1
BITMAP
3F18
3318
33D8
3FD8
33D8
33D8
3FD8
33D8
33D8
6318
6F18
C678
ENDCHAR
STARTCHAR U_5217
ENCODING 21015
SWIDTH 1000 0
DWIDTH 13 0
BBX 13 12 0 -1
BITMAP
FF18
1818
18D8
3ED8
36D8
66D8
F6D8
1CD8
0CD8
1818
3018
6078
ENDCHAR
STARTCHAR U_5218
ENCODING 21016
SWIDTH 1000 0
DWIDTH 13 0
BBX 13 12 0 -1
BITMAP
3030
1830
FFB0
01B0
0DB0
6DB0
39B0
19B0
3DB0
6630
C6F0
0060
ENDCHAR
STARTCHAR U_5219
ENCODING 21017
SWIDTH 1000 0
DWIDTH 13 0
BBX 13 12 0 -1
BITMAP
FC30
CC30
FDB0
FDB0
FDB0
FDB0
FDB0
FDB0
31B0
7830
6CF0
CC60
ENDCHAR
STARTCHAR U_521A
ENCODING 21018
SWIDTH 1000 0
DWIDTH 13 0
BBX 13 12 0 -1
BITMAP
7F98
6198
67F8
7DF8
7DF8
6DF8
7FF8
7FF8
77F8
6198
6798
6378
ENDCHAR
STARTCHAR U_521B
ENCODING 21019
SWIDTH 1000 0
DWIDTH 13 0
BBX 13 12 0 -1
BITMAP
0C18
0E18
1B78
31F8
7F78
F378
3378
3F78
3678
3198
3198
1FB8
ENDCHAR
STARTCHAR U_521C
ENCODING 21020
SWIDTH 1000 0
DWIDTH 13 0
BBX 13 12 0 -1
BITMAP
1E18
1E18
7FF8
1FF8
3FF8
7E78
7FF8
1FF8
1FF8
3798
3618
6678
ENDCHAR
STARTCHAR U_521D
ENCODING 21021
SWIDTH 1000 0
DWIDTH 13 0
BBX 13 12 0 -1
BITMAP
6030
37F8
FDB0
19B0
37B0
7DB0
F9B0
3DB0
3330
3330
37E0
3CC0
ENDCHAR
STARTCHAR U_521E
ENCODING 21022
SWIDTH 1000 0
DWIDTH 13 0
BBX 13 12 0 -1
BITMAP
7E18
6618
66D8
7ED8
66D8
66D8
7ED8
66D8
66D8
6618
FF18
0078
ENDCHAR
STARTCHAR U_521F
ENCODING 21023
SWIDTH 1000 0
DWIDTH 13 0
BBX 13 12 0 -1
BITMAP
7F30
1B30
1BF0
1BF0
33F0
6FF0
C6F0
7FF0
63F0
6330
63F0
7F60
ENDCHAR
STARTCHAR U_5220
ENCODING 21024
SWIDTH 1000 0
DWIDTH 13 0
BBX 13 12 0 -1
BITMAP
7F98
7FF8
7FF8
7FF8
7FF8
FFF8
7FF8
7FF8
7FF8
7F98
DF98
FFF8
ENDCHAR
STARTCHAR U_5221
ENCODING 21025
SWIDTH 1000 0
DWIDTH 13 0
BBX 13 12 0 -1
BITMAP
7F18
6318
6378
7F78
6C78
6C78
7FF8
6C78
6C18
6798
7398
E1F8
ENDCHAR
STARTCHAR U_5222
ENCODING 21026
SWIDTH 1000 0
DWIDTH 13 0
BBX 13 12 0 -1
BITMAP
1830
1C30
36F0
63F0
D8F0
0CF0
3EF0
06F0
3CF0
1830
0CF0
0060
ENDCHAR
STARTCHAR U_5223
ENCODING 21027
SWIDTH 1000 0
DWIDTH 13 0
BBX 13 12 0 -1
BITMAP
1818
1818
3078
3678
6378
FFF8
01F8
7F78
6378
6318
6378
7F30
ENDCHAR
STARTCHAR U_5224
ENCODING 21028
SWIDTH 1000 0
DWIDTH 13 0
BBX 13 12 0 -1
BITMAP
1830
DB30
7EF0
1CF0
FFF0
18F0
18F0
FFF0
30F0
3030
60F0
C060
ENDCHAR
STARTCHAR U_5225
ENCODING 21029
SWIDTH 1000 0
DWIDTH 13 0
BBX 13 12 0 -1
BITMAP
7F18
6318
63D8
63D8
7FD8
30D8
3FD8
33D8
33D8
6318
6318
CE78
ENDCHAR
STARTCHAR U_5226
ENCODING 21030
SWIDTH 1000 0
DWIDTH 13 0
BBX 13 12 0 -1
BITMAP
1818
1818
7ED8
18D8
18D8
FED8
18D8
30D8
6CD8
C618
FF78
0330
ENDCHAR
STARTCHAR U_5227
ENCODING 21031
SWIDTH 1000 0
DWIDTH 13 0
BBX 13 12 0 -1
BITMAP
1BF8
18D8
7CD8
18D8
18D8
FED8
18D8
18D8
36D8
6798
FF78
0330
ENDCHAR
STARTCHAR U_5228
ENCODING 21032
SWIDTH 1000 0
DWIDTH 13 0
BBX 13 12 0 -1
BITMAP
3018
3018
3FD8
63D8
FFD8
6FD8
7FD8
63D8
67D8
6018
6318
3F78
ENDCHAR
STARTCHAR U_5229
ENCODING 21033
SWIDTH 1000 0
DWIDTH 13 0
BBX 13 12 0 -1
BITMAP
0E18
78D8
18D8
18D8
FFD8
18D8
3CD8
3ED8
7BD8
D818
1818
1878
ENDCHAR
STARTCHAR U_522A
ENCODING 21034
SWIDTH 1000 0
DWIDTH 13 0
BBX 13 12 0 -1
BITMAP
7F98
7F98
7FF8
7FF8
7FF8
FFF8
7FF8
7FF8
7FF8
7F98
7998
67F8
ENDCHAR
STARTCHAR U_522B
ENCODING 21035
SWIDTH 1000 0
DWIDTH 13 0
BBX 13 12 0 -1
BITMAP
7E18
6618
66D8
7ED8
18D8
18D8
FED8
36D8
36D8
6618
7E18
CC78
ENDCHAR
STARTCHAR U_522C
ENCODING 21036
SWIDTH 1000 0
DWIDTH 13 0
BBX 13 12 0 -1
BITMAP
3030
3C30
FE30
31B0
31B0
3FB0
F1B0
19B0
1E30
3830
EFF0
0660
ENDCHAR
STARTCHAR U_522D
ENCODING 21037
SWIDTH 1000 0
DWIDTH 13 0
BBX 13 12 0 -1
BITMAP
FE18
0CD8
18D8
3CD8
66D8
C0D8
FED8
30D8
30D8
3018
3E18
E078
ENDCHAR
STARTCHAR U_522E
ENCODING 21038
SWIDTH 1000 0
DWIDTH 13 0
BBX 13 12 0 -1
BITMAP
0618
FC18
18D8
18D8
FFD8
18D8
7ED8
66D8
66D8
6618
7E18
6678
ENDCHAR
STARTCHAR U_522F
ENCODING 21039
SWIDTH 1000 0
DWIDTH 13 0
BBX 13 12 0 -1
BITMAP
FF18
0018
7ED8
66D8
66D8
7ED8
66D8
66D8
7ED8
0018
1F78
F030
ENDCHAR
STARTCHAR U_5230
ENCODING 21040
SWIDTH 1000 0
DWIDTH 13 0
BBX 13 12 0 -1
BITMAP
0018
FF18
18D8
36D8
7FD8
18D8
18D8
7FD8
18D8
1818
1F18
F078
ENDCHAR
STARTCHAR U_5231
ENCODING 21041
SWIDTH 1000 0
DWIDTH 13 0
BBX 13 12 0 -1
BITMAP
7860
7FF0
79E0
FFE0
7BF0
7FF8
FFE0
79E0
7B60
DB60
DE60
1DC0
ENDCHAR
STARTCHAR U_5232
ENCODING 21042
SWIDTH 1000 0
DWIDTH 13 0
BBX 13 12 0 -1
BITMAP
3018
3018
FED8
30D8
30D8
FED8
30D8
FCD8
30D8
3018
3E18
E078
ENDCHAR
STARTCHAR U_5233
ENCODING 21043
SWIDTH 1000 0
DWIDTH 13 0
BBX 13 12 0 -1
BITMAP
1818
FFD8
36D8
63D8
FFD8
00D8
FFD8
30D8
7ED8
0618
0618
1C78
ENDCHAR
STARTCHAR U_5234
ENCODING 21044
SWIDTH 1000 0
DWIDTH 13 0
BBX 13 12 0 -1
BITMAP
FE18
3618
3F18
63D8
CFD8
06D8
18D8
FFD8
1818
3C18
7E78
DB30
ENDCHAR
STARTCHAR U_5235
ENCODING 21045
SWIDTH 1000 0
DWIDTH 13 0
BBX 13 12 0 -1
BITMAP
FF98
3618
36D8
3ED8
36D8
3ED8
36D8
36D8
3ED8
E618
0618
0678
ENDCHAR
STARTCHAR U_5236
ENCODING 21046
SWIDTH 1000 0
DWIDTH 13 0
BBX 13 12 0 -1
BITMAP
1818
7818
7FD8
D8D8
FFD8
18D8
7FD8
7BD8
7BD8
7B18
7F18
1878
ENDCHAR
STARTCHAR U_5237
ENCODING 21047
SWIDTH 1000 0
DWIDTH 13 0
BBX 13 12 0 -1
BITMAP
3F98
3198
31F8
3FF8
3678
3FF8
7FF8
7FF8
7FF8
7F98
DF98
0678
ENDCHAR
STARTCHAR U_5238
ENCODING 21048
SWIDTH 1000 0
DWIDTH 13 0
BBX 13 12 0 -1
BITMAP
66C0
3D80
0C00
7FE0
1800
FFF0
30C0
FFE0
19B0
1980
3780
6300
ENDCHAR
STARTCHAR U_5239
ENCODING 21049
SWIDTH 1000 0
DWIDTH 13 0
BBX 13 12 0 -1
BITMAP
6618
3C18
3CD8
7ED8
18D8
FFD8
18D8
7ED8
7BD8
DB18
1818
3878
ENDCHAR
STARTCHAR U_523A
ENCODING 21050
SWIDTH 1000 0
DWIDTH 13 0
BBX 13 12 0 -1
BITMAP
1818
FFD8
18D8
7FD8
7BD8
7BD8
7FD8
38D8
7ED8
DB18
1998
1878
ENDCHAR
STARTCHAR U_523B
ENCODING 21051
SWIDTH 1000 0
DWIDTH 13 0
BBX 13 12 0 -1
BITMAP
3018
1818
FFD8
30D8
6CD8
7CD8
1BD8
36D8
6CD8
DC18
3618
6378
ENDCHAR
STARTCHAR U_523C
ENCODING 21052
SWIDTH 1000 0
DWIDTH 13 0
BBX 13 12 0 -1
BITMAP
37F8
30D8
7CD8
33D8
33D8
FFD8
33D8
30D8
6D98
6D98
FFF8
6330
ENDCHAR
STARTCHAR U_523D
ENCODING 21053
SWIDTH 1000 0
DWIDTH 13 0
BBX 13 12 0 -1
BITMAP
1818
3C18
66D8
C3D8
3CD8
00D8
FED8
30D8
30D8
6C18
6E18
FE78
ENDCHAR
STARTCHAR U_523E
ENCODING 21054
SWIDTH 1000 0
DWIDTH 13 0
BBX 13 12 0 -1
BITMAP
1830
1830
7E30
19B0
7FB0
3DB0
19B0
FFB0
19B0
3C30
36F0
E660
ENDCHAR
STARTCHAR U_523F
ENCODING 21055
SWIDTH 1000 0
DWIDTH 13 0
BBX 13 12 0 -1
BITMAP
1830
DB30
DBF0
FFF0
30F0
3FF0
66F0
FCF0
3CF0
1830
30F0
E060
ENDCHAR
STARTCHAR U_5240
ENCODING 21056
SWIDTH 1000 0
DWIDTH 13 0
BBX 13 12 0 -1
BITMAP
1818
DBD8
FFD8
03D8
7ED8
06D8
06D8
7ED8
60D8
6018
7E18
F078
ENDCHAR
STARTCHAR U_5241
ENCODING 21057
SWIDTH 1000 0
DWIDTH 13 0
BBX 13 12 0 -1
BITMAP
3E18
3618
3678
3678
67F8
CC78
7FF8
1C78
3E78
6F18
CD98
0C78
ENDCHAR
STARTCHAR U_5242
ENCODING 21058
SWIDTH 1000 0
DWIDTH 13 0
BBX 13 12 0 -1
BITMAP
1818
0C18
FFF8
3378
1E78
3378
F7F8
3678
3678
3618
6618
C678
ENDCHAR
STARTCHAR U_5243
ENCODING 21059
SWIDTH 1000 0
DWIDTH 13 0
BBX 13 12 0 -1
BITMAP
3318
1E18
7FF8
0DF8
3FF8
6C78
7FF8
1DF8
3DF8
6D98
CF98
0C78
ENDCHAR
STARTCHAR U_5244
ENCODING 21060
SWIDTH 1000 0
DWIDTH 13 0
BBX 13 12 0 -1
BITMAP
0618
FF18
7ED8
FCD8
FCD8
7ED8
00D8
FFD8
18D8
1818
1F18
F078
ENDCHAR
STARTCHAR U_5245
ENCODING 21061
SWIDTH 1000 0
DWIDTH 13 0
BBX 13 12 0 -1
BITMAP
FF18
0018
7E18
66D8
66D8
7ED8
00D8
66D8
36D8
3C18
FF78
6030
ENDCHAR
STARTCHAR U_5246
ENCODING 21062
SWIDTH 1000 0
DWIDTH 13 0
BBX 13 12 0 -1
BITMAP
1818
0C18
7FD8
63D8
7FD8
63D8
7FD8
63D8
6CD8
6618
7F18
F078
ENDCHAR
STARTCHAR U_5247
ENCODING 21063
SWIDTH 1000 0
DWIDTH 13 0
BBX 13 12 0 -1
BITMAP
7E18
66D8
66D8
7ED8
66D8
7ED8
66D8
66D8
7ED8
3C18
6618
C378
ENDCHAR
STARTCHAR U_5248
ENCODING 21064
SWIDTH 1000 0
DWIDTH 13 0
BBX 13 12 0 -1
BITMAP
7E18
6618
7ED8
66D8
00D8
7ED8
66D8
7ED8
66D8
7E18
6678
6C30
ENDCHAR
STARTCHAR U_5249
ENCODING 21065
SWIDTH 1000 0
DWIDTH 13 0
BBX 13 12 0 -1
BITMAP
0C18
6F78
6F78
6F78
FFF8
DDF8
0C78
7FF8
0C78
0C18
0C18
FFF8
ENDCHAR
STARTCHAR U_524A
ENCODING 21066
SWIDTH 1000 0
DWIDTH 13 0
BBX 13 12 0 -1
BITMAP
3030
F630
7DB0
31B0
FFB0
C7B0
FFB0
C7B0
FFB0
C630
DE30
CCF0
ENDCHAR
STARTCHAR U_524B
ENCODING 21067
SWIDTH 1000 0
DWIDTH 13 0
BBX 13 12 0 -1
BITMAP
1830
FFF0
18F0
7FF0
63F0
63F0
7FF0
3CF0
3C30
3C70
6C18
C7F8
ENDCHAR
STARTCHAR U_524C
ENCODING 21068
SWIDTH 1000 0
DWIDTH 13 0
BBX 13 12 0 -1
BITMAP
1818
FF18
18D8
FFD8
DBD8
DBD8
FFD8
38D8
7CD8
DE18
DB18
1878
ENDCHAR
STARTCHAR U_524D
ENCODING 21069
SWIDTH 1000 0
DWIDTH 13 0
BBX 13 12 0 -1
BITMAP
3180
1B00
FFF0
0000
7C60
6F60
7F60
6F60
7F60
6F60
6C60
7CE0
ENDCHAR
STARTCHAR U_524E
ENCODING 21070
SWIDTH 1000 0
DWIDTH 13 0
BBX 13 12 0 -1
BITMAP
7E18
1818
3CD8
7ED8
1ED8
FFD8
18D8
3CD8
7ED8
DB18
1818
1878
ENDCHAR
STARTCHAR U_524F
ENCODING 21071
SWIDTH 1000 0
DWIDTH 13 0
BBX 13 12 0 -1
BITMAP
6600
3FF8
0CD8
FED8
3FD8
3FD8
FFD8
3FD8
3CD8
3D98
6D98
CF30
ENDCHAR
STARTCHAR U_5250
ENCODING 21072
SWIDTH 1000 0
DWIDTH 13 0
BBX 13 12 0 -1
BITMAP
7F18
6318
6378
7F78
1878
FFF8
D9F8
DDF8
F798
E398
C198
C3F8
ENDCHAR
STARTCHAR U_5251
ENCODING 21073
SWIDTH 1000 0
DWIDTH 13 0
BBX 13 12 0 -1
BITMAP
0C18
0C18
1FD8
33D8
7ED8
C0D8
1BD8
6FD8
3618
0C18
1F18
F078
ENDCHAR
STARTCHAR U_5252
ENCODING 21074
SWIDTH 1000 0
DWIDTH 13 0
BBX 13 12 0 -1
BITMAP
3C18
3C18
FFD8
3CD8
FFD8
00D8
7FD8
63D8
7FD8
6318
7F18
6378
ENDCHAR
STARTCHAR U_5253
ENCODING 21075
SWIDTH 1000 0
DWIDTH 13 0
BBX 13 12 0 -1
BITMAP
FF00
33F8
FF78
3878
7CD8
F1B8
0000
7FF0
0630
0630
1CF0
F060
ENDCHAR
STARTCHAR U_5254
ENCODING 21076
SWIDTH 1000 0
DWIDTH 13 0
BBX 13 12 0 -1
BITMAP
7F18
6318
7FD8
63D8
7FD8
30D8
7FD8
FFD8
6FD8
DB18
3318
EE78
ENDCHAR
STARTCHAR U_5255
ENCODING 21077
SWIDTH 1000 0
DWIDTH 13 0
BBX 13 12 0 -1
BITMAP
3C18
3CD8
FFD8
3CD8
3CD8
FFD8
3CD8
3CD8
FFD8
3C18
3C18
3C78
ENDCHAR
STARTCHAR U_5256
ENCODING 21078
SWIDTH 1000 0
DWIDTH 13 0
BBX 13 12 0 -1
BITMAP
3018
1818
FFD8
66D8
3CD8
FFD8
00D8
7ED8
66D8
6618
7E18
6678
ENDCHAR
STARTCHAR U_5257
ENCODING 21079
SWIDTH 1000 0
DWIDTH 13 0
BBX 13 12 0 -1
BITMAP
3018
3C18
3ED8
FED8
3FD8
FFD8
30D8
36D8
FE18
3C18
1B18
FF78
ENDCHAR
STARTCHAR U_5258
ENCODING 21080
SWIDTH 1000 0
DWIDTH 13 0
BBX 13 12 0 -1
BITMAP
6618
FFD8
66D8
7ED8
66D8
66D8
7ED8
66D8
FFD8
3C18
6678
C330
ENDCHAR
STARTCHAR U_5259
ENCODING 21081
SWIDTH 1000 0
DWIDTH 13 0
BBX 13 12 0 -1
BITMAP
CC00
6FE0
FFE0
6DE0
6DE0
6FF0
FFF8
6DF8
6DE0
6F60
6F60
CEE0
ENDCHAR
STARTCHAR U_525A
ENCODING 21082
SWIDTH 1000 0
DWIDTH 13 0
BBX 13 12 0 -1
BITMAP
0C18
7F98
0C78
3F78
3F78
7FF8
0DF8
FFF8
0DF8
7FF8
0C18
3C78
ENDCHAR
STARTCHAR U_525B
ENCODING 21083
SWIDTH 1000 0
DWIDTH 13 0
BBX 13 12 0 -1
BITMAP
FF98
C198
E7F8
FDF8
D9F8
FFF8
D9F8
D9F8
FFF8
FF98
FF98
C3F8
ENDCHAR
STARTCHAR U_525C
ENCODING 21084
SWIDTH 1000 0
DWIDTH 13 0
BBX 13 12 0 -1
BITMAP
1818
0C18
FFD8
F3D8
7FD8
FFD8
FFD8
FFD8
3FD8
3C18
6F78
CE30
ENDCHAR
STARTCHAR U_525D
ENCODING 21085
SWIDTH 1000 0
DWIDTH 13 0
BBX 13 12 0 -1
BITMAP
3018
3E18
66D8
7CD8
0CD8
FFD8
DBD8
7ED8
3CD8
7E18
DB18
39F8
ENDCHAR
STARTCHAR U_525E
ENCODING 21086
SWIDTH 1000 0
DWIDTH 13 0
BBX 13 12 0 -1
BITMAP
1818
FF18
1878
3C78
6678
FFF8
0378
3F78
3F78
3F18
0378
0730
ENDCHAR
STARTCHAR U_525F
ENCODING 21087
SWIDTH 1000 0
DWIDTH 13 0
BBX 13 12 0 -1
BITMAP
FF18
FF18
6018
FF78
D9F8
0078
FF78
FF78
6678
FF18
D998
0078
ENDCHAR
STARTCHAR U_5260
ENCODING 21088
SWIDTH 1000 0
DWIDTH 13 0
BBX 13 12 0 -1
BITMAP
3018
1818
FF18
00D8
7ED8
66D8
7ED8
18D8
7ED8
DB18
7B78
3030
ENDCHAR
STARTCHAR U_5261
ENCODING 21089
SWIDTH 1000 0
DWIDTH 13 0
BBX 13 12 0 -1
BITMAP
1818
7E18
7CD8
DCD8
36D8
FBD8
7ED8
7CD8
D8D8
3C18
6678
C330
ENDCHAR
STARTCHAR U_5262
ENCODING 21090
SWIDTH 1000 0
DWIDTH 13 0
BBX 13 12 0 -1
BITMAP
0018
7F98
1878
3DF8
6F78
FE78
3E78
7F78
1FF8
7618
0678
1C30
ENDCHAR
STARTCHAR U_5263
ENCODING 21091
SWIDTH 1000 0
DWIDTH 13 0
BBX 13 12 0 -1
BITMAP
1818
3C18
66D8
C3D8
3ED8
0CD8
7FD8
6FD8
7F18
0C18
1E78
7330
ENDCHAR
STARTCHAR U_5264
ENCODING 21092
SWIDTH 1000 0
DWIDTH 13 0
BBX 13 12 0 -1
BITMAP
0C18
7F98
3318
1E78
0C78
1E78
F3F8
3F78
3378
3F18
6378
C330
ENDCHAR
STARTCHAR U_5265
ENCODING 21093
SWIDTH 1000 0
DWIDTH 13 0
BBX 13 12 0 -1
BITMAP
7F18
0318
3F78
0378
7FF8
0DF8
6F78
3E78
3F18
6D98
CC78
1C30
ENDCHAR
STARTCHAR U_5266
ENCODING 21094
SWIDTH 1000 0
DWIDTH 13 0
BBX 13 12 0 -1
BITMAP
1830
1830
FF30
3CF0
7EF0
FFF0
7EF0
7EF0
7EF0
7E30
18F0
0F60
ENDCHAR
STARTCHAR U_5267
ENCODING 21095
SWIDTH 1000 0
DWIDTH 13 0
BBX 13 12 0 -1
BITMAP
3F98
3198
3FF8
37F8
3678
3FF8
3678
3FF8
3998
7998
7FF8
D9B0
ENDCHAR
STARTCHAR U_5268
ENCODING 21096
SWIDTH 1000 0
DWIDTH 13 0
BBX 13 12 0 -1
BITMAP
0C18
7F98
0C78
3F78
0C78
3F78
0C78
FFF8
3078
7F18
DB78
1F38
ENDCHAR
STARTCHAR U_5269
ENCODING 21097
SWIDTH 1000 0
DWIDTH 13 0
BBX 13 12 0 -1
BITMAP
0318
7E18
1878
FFF8
7E78
FF78
7E78
FFF8
3C78
7E18
DB18
1878
ENDCHAR
STARTCHAR U_526A
ENCODING 21098
SWIDTH 1000 0
DWIDTH 13 0
BBX 13 12 0 -1
BITMAP
1980
0F00
FFF0
6C60
7F60
6F60
7F60
6CE0
0000
FFE0
1860
73C0
ENDCHAR
STARTCHAR U_526B
ENCODING 21099
SWIDTH 1000 0
DWIDTH 13 0
BBX 13 12 0 -1
BITMAP
0C18
7F98
7B78
7FF8
7B78
7F78
6078
7F78
6F18
6618
CFF8
F9B0
ENDCHAR
STARTCHAR U_526C
ENCODING 21100
SWIDTH 1000 0
DWIDTH 13 0
BBX 13 12 0 -1
BITMAP
0C18
6F18
6F78
7F78
0078
FFF8
0C78
7FF8
7FF8
7F98
7FF8
63B0
ENDCHAR
STARTCHAR U_526D
ENCODING 21101
SWIDTH 1000 0
DWIDTH 13 0
BBX 13 12 0 -1
BITMAP
7F98
6198
7FF8
6078
7FF8
6F78
79F8
7FF8
6678
7F98
C678
FFB0
ENDCHAR
STARTCHAR U_526E
ENCODING 21102
SWIDTH 1000 0
DWIDTH 13 0
BBX 13 12 0 -1
BITMAP
7E18
66D8
7ED8
7ED8
7ED8
FFD8
C3D8
FFD8
FFD8
FF18
FF78
C730
ENDCHAR
STARTCHAR U_526F
ENCODING 21103
SWIDTH 1000 0
DWIDTH 13 0
BBX 13 12 0 -1
BITMAP
FF18
0018
7ED8
66D8
7ED8
00D8
FFD8
DBD8
FFD8
DB18
FF78
C330
ENDCHAR
STARTCHAR U_5270
ENCODING 21104
SWIDTH 1000 0
DWIDTH 13 0
BBX 13 12 0 -1
BITMAP
0E18
7818
1878
FFF8
7E78
FFF8
7E78
FF78
3D98
7E18
DB78
1830
ENDCHAR
STARTCHAR U_5271
ENCODING 21105
SWIDTH 1000 0
DWIDTH 13 0
BBX 13 12 0 -1
BITMAP
1800
3DF8
66D8
FFD8
19D8
7FD8
7ED8
7ED8
7F98
1998
3F78
E630
ENDCHAR
STARTCHAR U_5272
ENCODING 21106
SWIDTH 1000 0
DWIDTH 13 0
BBX 13 12 0 -1
BITMAP
1818
FF98
CDF8
7F78
0C78
3F78
0C78
FFF8
0C78
7F18
6378
7F30
ENDCHAR
STARTCHAR U_5273
ENCODING 21107
SWIDTH 1000 0
DWIDTH 13 0
BBX 13 12 0 -1
BITMAP
6318
FF98
6378
7B78
3C78
6778
C378
3E78
0078
7F18
6378
7F30
ENDCHAR
STARTCHAR U_5274
ENCODING 21108
SWIDTH 1000 0
DWIDTH 13 0
BBX 13 12 0 -1
BITMAP
DB18
DB18
FFD8
00D8
FFD8
00D8
FFD8
C3D8
FFD8
6618
3C78
FF30
ENDCHAR
STARTCHAR U_5275
ENCODING 21109
SWIDTH 1000 0
DWIDTH 13 0
BBX 13 12 0 -1
BITMAP
0C18
1E18
3F78
7FF8
F378
3F78
3378
3F78
6018
7F18
F378
3F30
ENDCHAR
STARTCHAR U_5276
ENCODING 21110
SWIDTH 1000 0
DWIDTH 13 0
BBX 13 12 0 -1
BITMAP
7F18
6618
FE78
0C78
FFF8
79F8
FF78
3C78
7E78
FF18
6DF8
DC30
ENDCHAR
STARTCHAR U_5277
ENCODING 21111
SWIDTH 1000 0
DWIDTH 13 0
BBX 13 12 0 -1
BITMAP
0C18
7FF8
3378
1E78
7FF8
7E78
7FF8
6678
7FF8
6618
6678
FFB0
ENDCHAR
STARTCHAR U_5278
ENCODING 21112
SWIDTH 1000 0
DWIDTH 13 0
BBX 13 12 0 -1
BITMAP
1818
FF18
7E78
7E78
7E78
7E78
1E78
FF78
0F78
FF18
6C78
1C18
ENDCHAR
STARTCHAR U_5279
ENCODING 21113
SWIDTH 1000 0
DWIDTH 13 0
BBX 13 12 0 -1
BITMAP
FF30
3330
FFF0
3FF0
7CF0
DEF0
33F0
ECF0
3BF0
E630
1CF0
F060
ENDCHAR
STARTCHAR U_527A
ENCODING 21114
SWIDTH 1000 0
DWIDTH 13 0
BBX 13 12 0 -1
BITMAP
18C0
7FF8
19E0
FE60
7EF0
DB98
3FF8
3000
3FF0
3330
6630
DCE0
ENDCHAR
STARTCHAR U_527B
ENCODING 21115
SWIDTH 1000 0
DWIDTH 13 0
BBX 13 12 0 -1
BITMAP
6D98
6D98
7FF8
0078
7FF8
7FF8
7FF8
7FF8
7FF8
7F98
7FF8
FFB0
ENDCHAR
STARTCHAR U_527C
ENCODING 21116
SWIDTH 1000 0
DWIDTH 13 0
BBX 13 12 0 -1
BITMAP
1818
3678
3F78
7FF8
FFF8
1E78
3378
6DF8
3FF8
0F18
0678
7C30
ENDCHAR
STARTCHAR U_527D
ENCODING 21117
SWIDTH 1000 0
DWIDTH 13 0
BBX 13 12 0 -1
BITMAP
FF18
3C18
FFD8
FFD8
FFD8
00D8
7ED8
00D8
FFD8
7E18
DB78
39B0
ENDCHAR
STARTCHAR U_527E
ENCODING 21118
SWIDTH 1000 0
DWIDTH 13 0
BBX 13 12 0 -1
BITMAP
FF98
C018
DF78
DB78
DF78
C078
FFF8
FFF8
FFF8
FF98
C078
FFB0
ENDCHAR
STARTCHAR U_527F
ENCODING 21119
SWIDTH 1000 0
DWIDTH 13 0
BBX 13 12 0 -1
BITMAP
6F30
DE30
6FF0
FFF0
DBF0
FFF0
DBF0
FFF0
18F0
FF30
7B30
D9F0
ENDCHAR
STARTCHAR U_5280
ENCODING 21120
SWIDTH 1000 0
DWIDTH 13 0
BBX 13 12 0 -1
BITMAP
FF18
3618
1C78
FFF8
3F78
6C78
FF78
FF78
FF78
FF18
FF78
C730
ENDCHAR
STARTCHAR U_5281
ENCODING 21121
SWIDTH 1000 0
DWIDTH 13 0
BBX 13 12 0 -1
BITMAP
1818
3678
3FF8
7678
FFF8
3678
3FF8
3678
3FF8
0018
3DF8
7EF0
ENDCHAR
STARTCHAR U_5282
ENCODING 21122
SWIDTH 1000 0
DWIDTH 13 0
BBX 13 12 0 -1
BITMAP
FFD8
E618
FF78
FFF8
DB78
FFF8
FFF8
FFF8
FFF8
DBD8
F3D8
E678
ENDCHAR
STARTCHAR U_5283
ENCODING 21123
SWIDTH 1000 0
DWIDTH 13 0
BBX 13 12 0 -1
BITMAP
1830
7EF0
1EF0
7FF0
1EF0
FFF0
7EF0
7EF0
7EF0
7E30
00F0
FF60
ENDCHAR
STARTCHAR U_5284
ENCODING 21124
SWIDTH 1000 0
DWIDTH 13 0
BBX 13 12 0 -1
BITMAP
18C0
1FF8
3DE0
6730
1C30
36F0
7FF0
00F0
3FF0
3330
33F0
3F60
ENDCHAR
STARTCHAR U_5285
ENCODING 21125
SWIDTH 1000 0
DWIDTH 13 0
BBX 13 12 0 -1
BITMAP
7F98
7F98
7FF8
3078
7FF8
D9F8
7FF8
7FF8
7FF8
1998
1F98
7B30
ENDCHAR
STARTCHAR U_5286
ENCODING 21126
SWIDTH 1000 0
DWIDTH 13 0
BBX 13 12 0 -1
BITMAP
0C18
7F98
7B78
7FF8
7FF8
7FF8
7FF8
7FF8
7E78
7F18
FFF8
7EF0
ENDCHAR
STARTCHAR U_5287
ENCODING 21127
SWIDTH 1000 0
DWIDTH 13 0
BBX 13 12 0 -1
BITMAP
0F98
0C18
7FD8
6F18
7FF8
6078
7FF8
6FF8
7F78
7F18
DF98
CEF8
ENDCHAR
STARTCHAR U_5288
ENCODING 21128
SWIDTH 1000 0
DWIDTH 13 0
BBX 13 12 0 -1
BITMAP
7EC0
67F8
7FB0
67F8
7EC0
F7F8
FEC0
00C0
7FF0
0C30
1830
71E0
ENDCHAR
STARTCHAR U_5289
ENCODING 21129
SWIDTH 1000 0
DWIDTH 13 0
BBX 13 12 0 -1
BITMAP
3F18
EF18
FFD8
FBD8
DED8
3CD8
FFD8
18D8
FFD8
7E18
7C18
FF78
ENDCHAR
STARTCHAR U_528A
ENCODING 21130
SWIDTH 1000 0
DWIDTH 13 0
BBX 13 12 0 -1
BITMAP
1C18
3618
7F78
C1F8
FFF8
F7F8
F7F8
FFF8
6378
7F18
6378
7F30
ENDCHAR
STARTCHAR U_528B
ENCODING 21131
SWIDTH 1000 0
DWIDTH 13 0
BBX 13 12 0 -1
BITMAP
7E18
6618
7ED8
00D8
FFD8
FFD8
FFD8
18D8
FFD8
3C18
7E18
DB78
ENDCHAR
STARTCHAR U_528C
ENCODING 21132
SWIDTH 1000 0
DWIDTH 13 0
BBX 13 12 0 -1
BITMAP
3F18
3C18
7FF8
07F8
7FF8
6678
7FF8
7FF8
7F78
7BD8
F7D8
CCF8
ENDCHAR
STARTCHAR U_528D
ENCODING 21133
SWIDTH 1000 0
DWIDTH 13 0
BBX 13 12 0 -1
BITMAP
0C18
1E78
3378
7FF8
0078
7FF8
7FF8
7FF8
3378
3318
7F98
CCF8
ENDCHAR
STARTCHAR U_528E
ENCODING 21134
SWIDTH 1000 0
DWIDTH 13 0
BBX 13 12 0 -1
BITMAP
1800
3DF8
6678
FF78
0078
FF78
FF78
FF78
6678
66D8
FFD8
D9B0
ENDCHAR
STARTCHAR U_528F
ENCODING 21135
SWIDTH 1000 0
DWIDTH 13 0
BBX 13 12 0 -1
BITMAP
6D98
3F78
7FF8
61F8
FF78
3378
3F78
7FF8
6DF8
7F98
6DF8
7FB0
ENDCHAR
STARTCHAR U_5290
ENCODING 21136
SWIDTH 1000 0
DWIDTH 13 0
BBX 13 12 0 -1
BITMAP
3318
FFD8
3378
7FF8
EC78
7FF8
6C78
7FF8
3378
1E18
0C78
7FB0
ENDCHAR
STARTCHAR U_5291
ENCODING 21137
SWIDTH 1000 0
DWIDTH 13 0
BBX 13 12 0 -1
BITMAP
0C18
FFD8
3FF8
7F78
FFF8
FFF8
31F8
3FF8
31F8
3F98
3198
E1F8
ENDCHAR
STARTCHAR U_5292
ENCODING 21138
SWIDTH 1000 0
DWIDTH 13 0
BBX 13 12 0 -1
BITMAP
1800
3CF8
6778
FC78
01F8
FFF8
FF78
FF78
0078
66D8
6FD8
F9B0
ENDCHAR
STARTCHAR U_5293
ENCODING 21139
SWIDTH 1000 0
DWIDTH 13 0
BBX 13 12 0 -1
BITMAP
0C18
3F18
3378
3F78
3378
7FF8
6DF8
7FF8
6D98
FFD8
3618
6678
ENDCHAR
STARTCHAR U_5294
ENCODING 21140
SWIDTH 1000 0
DWIDTH 13 0
BBX 13 12 0 -1
BITMAP
1800
3DF0
67F0
FCF0
01F0
FFF0
FFF8
FFF0
66F0
67B0
FFB0
1B60
ENDCHAR
STARTCHAR U_5295
ENCODING 21141
SWIDTH 1000 0
DWIDTH 13 0
BBX 13 12 0 -1
BITMAP
3B98
6678
7FF8
7FF8
FFF8
37F8
3BF8
3DF8
3FF8
1B18
1B78
71B0
ENDCHAR
STARTCHAR U_5296
ENCODING 21142
SWIDTH 1000 0
DWIDTH 13 0
BBX 13 12 0 -1
BITMAP
1F18
7618
3FF8
31F8
7FF8
7FF8
7FF8
3FF8
3DF8
3FD8
1FD8
F7B8
ENDCHAR
STARTCHAR U_5297
ENCODING 21143
SWIDTH 1000 0
DWIDTH 13 0
BBX 13 12 0 -1
BITMAP
FF18
FFD8
3378
7FF8
7FF8
FFF8
31F8
3FF8
31F8
3F98
1E18
73B8
ENDCHAR
STARTCHAR U_5298
ENCODING 21144
SWIDTH 1000 0
DWIDTH 13 0
BBX 13 12 0 -1
BITMAP
0618
7FD8
7B78
7FF8
7FF8
7FF8
7E78
7FF8
7E78
7F98
DE18
FFF8
ENDCHAR
STARTCHAR U_5299
ENCODING 21145
SWIDTH 1000 0
DWIDTH 13 0
BBX 13 12 0 -1
BITMAP
3018
7F18
3678
FFF8
7678
FF78
7FF8
FF78
FF78
FF18
6678
FF30
ENDCHAR
STARTCHAR U_529A
ENCODING 21146
SWIDTH 1000 0
DWIDTH 13 0
BBX 13 12 0 -1
BITMAP
7F18
6378
7F78
7E78
6C78
7FF8
7FF8
7FF8
7DF8
7F98
CDF8
FF30
ENDCHAR
STARTCHAR U_529B
ENCODING 21147
SWIDTH 1000 0
DWIDTH 13 0
BBX 13 12 0 -1
BITMAP
0C00
0C00
0C00
FFE0
0C60
0C60
1860
1860
3060
3060
63C0
C180
ENDCHAR
STARTCHAR U_529C
ENCODING 21148
SWIDTH 1000 0
DWIDTH 13 0
BBX 13 12 0 -1
BITMAP
3180
3180
3180
7F80
3780
3780
3780
3780
3798
3798
7F98
CCF8
ENDCHAR
STARTCHAR U_529D
ENCODING 21149
SWIDTH 1000 0
DWIDTH 13 0
BBX 13 12 0 -1
BITMAP
0180
F980
1980
DFF0
79B0
31B0
31B0
31B0
7B30
C630
0CF0
1860
ENDCHAR
STARTCHAR U_529E
ENCODING 21150
SWIDTH 1000 0
DWIDTH 13 0
BBX 13 12 0 -1
BITMAP
0600
0600
0600
7FE0
0660
3670
3678
6C78
0C60
1860
33C0
6180
ENDCHAR
STARTCHAR U_529F
ENCODING 21151
SWIDTH 1000 0
DWIDTH 13 0
BBX 13 12 0 -1
BITMAP
0180
0180
FD80
37F0
31B0
31B0
31B0
3F30
FB30
0630
0C30
38E0
ENDCHAR
STARTCHAR U_52A0
ENCODING 21152
SWIDTH 1000 0
DWIDTH 13 0
BBX 13 12 0 -1
BITMAP
1800
1800
FFF8
1BD8
1BD8
1BD8
1BD8
33D8
33D8
33D8
63F8
CED8
ENDCHAR
STARTCHAR U_52A1
ENCODING 21153
SWIDTH 1000 0
DWIDTH 13 0
BBX 13 12 0 -1
BITMAP
0C00
1FC0
3980
6F00
0700
FDF0
0600
7FE0
0660
0C60
1860
71C0
ENDCHAR
STARTCHAR U_52A2
ENCODING 21154
SWIDTH 1000 0
DWIDTH 13 0
BBX 13 12 0 -1
BITMAP
00C0
FFC0
30C0
31F8
3ED8
36D8
36D8
36D8
36D8
6798
67F8
DF30
ENDCHAR
STARTCHAR U_52A3
ENCODING 21155
SWIDTH 1000 0
DWIDTH 13 0
BBX 13 12 0 -1
BITMAP
0600
36C0
6670
C7C0
0700
FC00
0600
7FE0
0C60
0C60
1860
71C0
ENDCHAR
STARTCHAR U_52A4
ENCODING 21156
SWIDTH 1000 0
DWIDTH 13 0
BBX 13 12 0 -1
BITMAP
0EC0
78C0
60C0
63F8
7ED8
6CD8
6CD8
6CD8
6D98
6D98
CFF0
CE60
ENDCHAR
STARTCHAR U_52A5
ENCODING 21157
SWIDTH 1000 0
DWIDTH 13 0
BBX 13 12 0 -1
BITMAP
0000
60C0
30C0
FCC0
03F8
78D8
78D8
78D8
7ED8
7D98
7B78
C630
ENDCHAR
STARTCHAR U_52A6
ENCODING 21158
SWIDTH 1000 0
DWIDTH 13 0
BBX 13 12 0 -1
BITMAP
0300
3FF0
0330
0630
1CE0
3060
FFF8
36D8
36D8
36D8
6798
DF70
ENDCHAR
STARTCHAR U_52A7
ENCODING 21159
SWIDTH 1000 0
DWIDTH 13 0
BBX 13 12 0 -1
BITMAP
0060
0F60
7860
19F8
7E78
1878
1878
FF78
18D8
18D8
79F8
3330
ENDCHAR
STARTCHAR U_52A8
ENCODING 21160
SWIDTH 1000 0
DWIDTH 13 0
BBX 13 12 0 -1
BITMAP
00C0
7CC0
00C0
03F8
FCD8
30D8
30D8
6CD8
6F98
FF98
6378
0630
ENDCHAR
STARTCHAR U_52A9
ENCODING 21161
SWIDTH 1000 0
DWIDTH 13 0
BBX 13 12 0 -1
BITMAP
0180
7D80
6D80
6FF0
7DB0
6DB0
7DB0
6DB0
6DB0
7F30
F6F0
0C60
ENDCHAR
STARTCHAR U_52AA
ENCODING 21162
SWIDTH 1000 0
DWIDTH 13 0
BBX 13 12 0 -1
BITMAP
3000
3FF0
FF30
6DE0
39C0
3FC0
6670
C600
7FE0
0C60
1860
71C0
ENDCHAR
STARTCHAR U_52AB
ENCODING 21163
SWIDTH 1000 0
DWIDTH 13 0
BBX 13 12 0 -1
BITMAP
18C0
18C0
7EC0
1BF8
18D8
FFD8
18D8
3CD8
3798
7F98
3318
0670
ENDCHAR
STARTCHAR U_52AC
ENCODING 21164
SWIDTH 1000 0
DWIDTH 13 0
BBX 13 12 0 -1
BITMAP
60C0
60C0
7EC0
C7F0
FEF0
7EF0
7EF0
7FB0
7FB0
7FB0
0F30
1E60
ENDCHAR
STARTCHAR U_52AD
ENCODING 21165
SWIDTH 1000 0
DWIDTH 13 0
BBX 13 12 0 -1
BITMAP
0180
FF80
6D80
6FF0
CDB0
19B0
FDB0
CDB0
CF30
CF30
FEF0
CC60
ENDCHAR
STARTCHAR U_52AE
ENCODING 21166
SWIDTH 1000 0
DWIDTH 13 0
BBX 13 12 0 -1
BITMAP
18C0
78C0
7FC0
D9F8
18D8
FFD8
18D8
1CD8
1ED8
33D8
6198
0F70
ENDCHAR
STARTCHAR U_52AF
ENCODING 21167
SWIDTH 1000 0
DWIDTH 13 0
BBX 13 12 0 -1
BITMAP
00C0
00C0
FFC0
1BF8
30D8
3ED8
76D8
F6D8
36D8
3F98
31F8
0330
ENDCHAR
STARTCHAR U_52B0
ENCODING 21168
SWIDTH 1000 0
DWIDTH 13 0
BBX 13 12 0 -1
BITMAP
30C0
30C0
60C0
FFF8
CCD8
CCD8
FCD8
CCD8
CD98
CD98
FF78
0630
ENDCHAR
STARTCHAR U_52B1
ENCODING 21169
SWIDTH 1000 0
DWIDTH 13 0
BBX 13 12 0 -1
BITMAP
0060
7FE0
6060
7FF8
7878
7F78
7B78
7BD8
7BD8
7BD8
F798
F370
ENDCHAR
STARTCHAR U_52B2
ENCODING 21170
SWIDTH 1000 0
DWIDTH 13 0
BBX 13 12 0 -1
BITMAP
0180
FD80
1980
3BF0
6DB0
C7B0
FDB0
31B0
31B0
3330
3FF0
E660
ENDCHAR
STARTCHAR U_52B3
ENCODING 21171
SWIDTH 1000 0
DWIDTH 13 0
BBX 13 12 0 -1
BITMAP
1980
FFF0
1980
0000
FFF0
CC30
0C00
7FE0
0C60
0C60
1860
71C0
ENDCHAR
STARTCHAR U_52B4
ENCODING 21172
SWIDTH 1000 0
DWIDTH 13 0
BBX 13 12 0 -1
BITMAP
6C60
3670
1BC0
7FF8
6618
C630
7FE0
0660
0C60
0C60
19E0
70C0
ENDCHAR
STARTCHAR U_52B5
ENCODING 21173
SWIDTH 1000 0
DWIDTH 13 0
BBX 13 12 0 -1
BITMAP
3660
1EC0
7FF0
0600
FFF8
0D80
3EE0
E638
1FF0
06C0
0FC0
3980
ENDCHAR
STARTCHAR U_52B6
ENCODING 21174
SWIDTH 1000 0
DWIDTH 13 0
BBX 13 12 0 -1
BITMAP
0F60
7860
6060
7FF8
6078
6078
7F78
7B78
7BD8
7FD8
C1F8
0330
ENDCHAR
STARTCHAR U_52B7
ENCODING 21175
SWIDTH 1000 0
DWIDTH 13 0
BBX 13 12 0 -1
BITMAP
66C0
3CC0
FFC0
19F8
18D8
7FD8
18D8
18D8
FFD8
1998
31F8
E330
ENDCHAR
STARTCHAR U_52B8
ENCODING 21176
SWIDTH 1000 0
DWIDTH 13 0
BBX 13 12 0 -1
BITMAP
1860
1860
7F60
19F8
FF78
1878
1878
7F78
18D8
18D8
1FF8
F330
ENDCHAR
STARTCHAR U_52B9
ENCODING 21177
SWIDTH 1000 0
DWIDTH 13 0
BBX 13 12 0 -1
BITMAP
1860
0C60
FF60
37F8
3678
6378
F678
1ED8
0CD8
1ED8
31F8
E330
ENDCHAR
STARTCHAR U_52BA
ENCODING 21178
SWIDTH 1000 0
DWIDTH 13 0
BBX 13 12 0 -1
BITMAP
18C0
36C0
7EC0
1FF8
78D8
7ED8
D8D8
18D8
FFD8
1998
19F8
1B30
ENDCHAR
STARTCHAR U_52BB
ENCODING 21179
SWIDTH 1000 0
DWIDTH 13 0
BBX 13 12 0 -1
BITMAP
00C0
7FC0
60C0
7FF8
6CD8
7FD8
6CD8
6CD8
7FD8
6198
7FF8
0330
ENDCHAR
STARTCHAR U_52BC
ENCODING 21180
SWIDTH 1000 0
DWIDTH 13 0
BBX 13 12 0 -1
BITMAP
18C0
18C0
FFC0
19F8
7ED8
00D8
7ED8
66D8
66D8
6798
7FF8
6730
ENDCHAR
STARTCHAR U_52BD
ENCODING 21181
SWIDTH 1000 0
DWIDTH 13 0
BBX 13 12 0 -1
BITMAP
7F98
18D8
1FD8
33D8
76D8
1E18
1B78
7300
1FF0
0330
06F0
1C60
ENDCHAR
STARTCHAR U_52BE
ENCODING 21182
SWIDTH 1000 0
DWIDTH 13 0
BBX 13 12 0 -1
BITMAP
30C0
18C0
FFC0
33F0
6CF0
F8F0
18F0
36F0
ECF0
1FB0
3330
E6E0
ENDCHAR
STARTCHAR U_52BF
ENCODING 21183
SWIDTH 1000 0
DWIDTH 13 0
BBX 13 12 0 -1
BITMAP
3180
FFE0
31E0
3FE0
F3E0
37F0
7E30
0600
7FE0
0C60
1860
71C0
ENDCHAR
STARTCHAR U_52C0
ENCODING 21184
SWIDTH 1000 0
DWIDTH 13 0
BBX 13 12 0 -1
BITMAP
18C0
FFC0
18C0
7FF8
66D8
66D8
7ED8
3CD8
3CD8
3D98
6F98
CF70
ENDCHAR
STARTCHAR U_52C1
ENCODING 21185
SWIDTH 1000 0
DWIDTH 13 0
BBX 13 12 0 -1
BITMAP
00C0
FEC0
7EC0
FDF8
FCD8
7ED8
FED8
30D8
30D8
3198
FF98
0370
ENDCHAR
STARTCHAR U_52C2
ENCODING 21186
SWIDTH 1000 0
DWIDTH 13 0
BBX 13 12 0 -1
BITMAP
78C0
78C0
7FC0
D9F8
18D8
FFD8
00D8
7ED8
6798
6798
7F18
6670
ENDCHAR
STARTCHAR U_52C3
ENCODING 21187
SWIDTH 1000 0
DWIDTH 13 0
BBX 13 12 0 -1
BITMAP
3180
FF80
33F0
FFB0
C7B0
7DB0
0DB0
19B0
FDB0
1B30
7BF0
3660
ENDCHAR
STARTCHAR U_52C4
ENCODING 21188
SWIDTH 1000 0
DWIDTH 13 0
BBX 13 12 0 -1
BITMAP
30C0
3FC0
60C0
FFF8
7ED8
66D8
FFD8
66D8
7ED8
7F98
07F8
1F30
ENDCHAR
STARTCHAR U_52C5
ENCODING 21189
SWIDTH 1000 0
DWIDTH 13 0
BBX 13 12 0 -1
BITMAP
18C0
18C0
FFC0
19F8
7ED8
7ED8
7ED8
18D8
3CD8
7F98
DB18
1E30
ENDCHAR
STARTCHAR U_52C6
ENCODING 21190
SWIDTH 1000 0
DWIDTH 13 0
BBX 13 12 0 -1
BITMAP
60C0
30C0
FCC0
CFF8
FCD8
CCD8
FCD8
F198
D998
FD98
EF78
C630
ENDCHAR
STARTCHAR U_52C7
ENCODING 21191
SWIDTH 1000 0
DWIDTH 13 0
BBX 13 12 0 -1
BITMAP
7FC0
0D80
7FE0
6660
7FE0
6660
7FE0
6660
FFF0
0C30
1830
F0E0
ENDCHAR
STARTCHAR U_52C8
ENCODING 21192
SWIDTH 1000 0
DWIDTH 13 0
BBX 13 12 0 -1
BITMAP
FEC0
3CC0
18C0
FFF8
F6D8
F6D8
FED8
F6D8
FED8
F798
FFF8
0330
ENDCHAR
STARTCHAR U_52C9
ENCODING 21193
SWIDTH 1000 0
DWIDTH 13 0
BBX 13 12 0 -1
BITMAP
3180
3D80
6D80
7FF0
FFB0
7FB0
7FB0
3DB0
3F30
3EF8
6C18
C7F8
ENDCHAR
STARTCHAR U_52CA
ENCODING 21194
SWIDTH 1000 0
DWIDTH 13 0
BBX 13 12 0 -1
BITMAP
3180
FD80
37F0
FDB0
CDB0
CDB0
FDB0
7B30
7E60
7818
CFF0
0000
ENDCHAR
STARTCHAR U_52CB
ENCODING 21195
SWIDTH 1000 0
DWIDTH 13 0
BBX 13 12 0 -1
BITMAP
FCC0
CCC0
FCC0
03F8
FCD8
CCD8
FCD8
FCD8
FCD8
F8D8
6D98
C770
ENDCHAR
STARTCHAR U_52CC
ENCODING 21196
SWIDTH 1000 0
DWIDTH 13 0
BBX 13 12 0 -1
BITMAP
7EC0
18C0
FFC0
19F8
FFD8
36D8
63D8
FED8
3798
3198
3FF8
3B30
ENDCHAR
STARTCHAR U_52CD
ENCODING 21197
SWIDTH 1000 0
DWIDTH 13 0
BBX 13 12 0 -1
BITMAP
30C0
18C0
FFC0
01F8
7ED8
66D8
7ED8
18D8
7ED8
DB98
1998
3F70
ENDCHAR
STARTCHAR U_52CE
ENCODING 21198
SWIDTH 1000 0
DWIDTH 13 0
BBX 13 12 0 -1
BITMAP
30C0
FCC0
33F8
FED8
00D8
7CD8
F6D8
3198
FF98
3198
3F78
E630
ENDCHAR
STARTCHAR U_52CF
ENCODING 21199
SWIDTH 1000 0
DWIDTH 13 0
BBX 13 12 0 -1
BITMAP
3060
1860
FF60
67F8
3C78
FF78
0078
7E78
66D8
66D8
7FF8
6730
ENDCHAR
STARTCHAR U_52D0
ENCODING 21200
SWIDTH 1000 0
DWIDTH 13 0
BBX 13 12 0 -1
BITMAP
FFC0
0CC0
18C0
FFF8
18D8
18D8
78D8
30D8
FFD8
FF98
FF18
FFF0
ENDCHAR
STARTCHAR U_52D1
ENCODING 21201
SWIDTH 1000 0
DWIDTH 13 0
BBX 13 12 0 -1
BITMAP
18C0
18C0
FFC0
19F8
7ED8
FFD8
DBD8
1CD8
3ED8
7B98
D9F8
1B30
ENDCHAR
STARTCHAR U_52D2
ENCODING 21202
SWIDTH 1000 0
DWIDTH 13 0
BBX 13 12 0 -1
BITMAP
36C0
FFC0
36C0
3FF8
18D8
7FD8
7BD8
7FD8
18D8
7F98
1998
1B70
ENDCHAR
STARTCHAR U_52D3
ENCODING 21203
SWIDTH 1000 0
DWIDTH 13 0
BBX 13 12 0 -1
BITMAP
D8C0
DEC0
FDF8
DED8
FED8
30D8
FED8
C6D8
FED8
C798
FF98
C770
ENDCHAR
STARTCHAR U_52D4
ENCODING 21204
SWIDTH 1000 0
DWIDTH 13 0
BBX 13 12 0 -1
BITMAP
00C0
FFC0
30C0
FFF8
FFD8
FFD8
FFD8
FFD8
FFD8
FFD8
FF98
0330
ENDCHAR
STARTCHAR U_52D5
ENCODING 21205
SWIDTH 1000 0
DWIDTH 13 0
BBX 13 12 0 -1
BITMAP
1CC0
F0C0
30C0
FFF8
F6D8
FED8
F6D8
FED8
30D8
FED8
3198
FF70
ENDCHAR
STARTCHAR U_52D6
ENCODING 21206
SWIDTH 1000 0
DWIDTH 13 0
BBX 13 12 0 -1
BITMAP
FFC0
C3C0
FFC0
C3F8
FFD8
66D8
66D8
7ED8
66D8
7ED8
6798
7F70
ENDCHAR
STARTCHAR U_52D7
ENCODING 21207
SWIDTH 1000 0
DWIDTH 13 0
BBX 13 12 0 -1
BITMAP
1FF0
1830
1FF0
1830
1FF0
3EC0
37F8
3ED8
36D8
3ED8
3798
7F70
ENDCHAR
STARTCHAR U_52D8
ENCODING 21208
SWIDTH 1000 0
DWIDTH 13 0
BBX 13 12 0 -1
BITMAP
36C0
FFC0
36C0
3FF8
36D8
3ED8
36D8
FFD8
7ED8
7FD8
6198
7F70
ENDCHAR
STARTCHAR U_52D9
ENCODING 21209
SWIDTH 1000 0
DWIDTH 13 0
BBX 13 12 0 -1
BITMAP
00C0
FFF8
3FB0
18E0
FE60
1FF8
3FC0
7FF0
D9B0
19B0
1B30
3EE0
ENDCHAR
STARTCHAR U_52DA
ENCODING 21210
SWIDTH 1000 0
DWIDTH 13 0
BBX 13 12 0 -1
BITMAP
7EC0
FFC0
7EC0
61F8
7ED8
00D8
7ED8
7ED8
7ED8
7ED8
3DF8
6730
ENDCHAR
STARTCHAR U_52DB
ENCODING 21211
SWIDTH 1000 0
DWIDTH 13 0
BBX 13 12 0 -1
BITMAP
7CC0
6CC0
6CC0
FFF8
C6D8
FED8
C6D8
FED8
C6D8
FF98
6D98
C770
ENDCHAR
STARTCHAR U_52DC
ENCODING 21212
SWIDTH 1000 0
DWIDTH 13 0
BBX 13 12 0 -1
BITMAP
3CC0
66C0
DBC0
3DF8
7ED8
00D8
FFD8
33D8
FFD8
77D8
FFD8
67B0
ENDCHAR
STARTCHAR U_52DD
ENCODING 21213
SWIDTH 1000 0
DWIDTH 13 0
BBX 13 12 0 -1
BITMAP
7FF0
6FF0
6FF8
7D80
6FF8
6F60
7FB8
6FF0
6DB0
6DB0
CF30
DEE0
ENDCHAR
STARTCHAR U_52DE
ENCODING 21214
SWIDTH 1000 0
DWIDTH 13 0
BBX 13 12 0 -1
BITMAP
0C60
3FF0
3DE0
1EF0
3398
7FF8
6618
7FF8
0660
0C60
0C60
39C0
ENDCHAR
STARTCHAR U_52DF
ENCODING 21215
SWIDTH 1000 0
DWIDTH 13 0
BBX 13 12 0 -1
BITMAP
0CC0
7FF8
0CC0
1FE0
1860
1FE0
1860
FFF8
3630
7FF8
0C60
39C0
ENDCHAR
STARTCHAR U_52E0
ENCODING 21216
SWIDTH 1000 0
DWIDTH 13 0
BBX 13 12 0 -1
BITMAP
FFE0
7FE0
FFE0
7FF8
DDF8
1E78
7778
FDF8
0778
3C78
07D8
7DB0
ENDCHAR
STARTCHAR U_52E1
ENCODING 21217
SWIDTH 1000 0
DWIDTH 13 0
BBX 13 12 0 -1
BITMAP
FFC0
3CC0
FFC0
FFF8
FFD8
00D8
7ED8
00D8
FFD8
78D8
7FF8
FB30
ENDCHAR
STARTCHAR U_52E2
ENCODING 21218
SWIDTH 1000 0
DWIDTH 13 0
BBX 13 12 0 -1
BITMAP
18C0
FEC0
19F0
FEF0
7FF0
FFF0
18F8
7F00
1FF0
0630
0C30
78E0
ENDCHAR
STARTCHAR U_52E3
ENCODING 21219
SWIDTH 1000 0
DWIDTH 13 0
BBX 13 12 0 -1
BITMAP
1860
7FE0
1860
7FF8
1878
FFF8
6378
7B78
6F78
63D8
7FD8
C1B0
ENDCHAR
STARTCHAR U_52E4
ENCODING 21220
SWIDTH 1000 0
DWIDTH 13 0
BBX 13 12 0 -1
BITMAP
6CC0
FEC0
6CC0
FFF0
F6F0
FEF0
30F0
FEF0
30F0
FFB0
3330
FEE0
ENDCHAR
STARTCHAR U_52E5
ENCODING 21221
SWIDTH 1000 0
DWIDTH 13 0
BBX 13 12 0 -1
BITMAP
3FE0
0F60
7FE0
67F0
7EF0
0FF0
3CD8
1FF8
0300
3FF0
0630
7CF0
ENDCHAR
STARTCHAR U_52E6
ENCODING 21222
SWIDTH 1000 0
DWIDTH 13 0
BBX 13 12 0 -1
BITMAP
7EC0
FCC0
7EC0
7FF8
7ED8
7ED8
7ED8
7ED8
18D8
FFD8
7ED8
DBB0
ENDCHAR
STARTCHAR U_52E7
ENCODING 21223
SWIDTH 1000 0
DWIDTH 13 0
BBX 13 12 0 -1
BITMAP
3060
3F60
79F8
FF78
6C78
FF78
6C78
7FD8
6CD8
7FD8
6D98
7FB0
ENDCHAR
STARTCHAR U_52E8
ENCODING 21224
SWIDTH 1000 0
DWIDTH 13 0
BBX 13 12 0 -1
BITMAP
3060
3F60
6660
FFE0
6DF8
7FF8
3878
7B78
FE78
7ED8
FFF8
7D98
ENDCHAR
STARTCHAR U_52E9
ENCODING 21225
SWIDTH 1000 0
DWIDTH 13 0
BBX 13 12 0 -1
BITMAP
7E60
FFE0
7FF8
7E78
6078
7F78
6378
7F78
6378
7F78
3CD8
67B0
ENDCHAR
STARTCHAR U_52EA
ENCODING 21226
SWIDTH 1000 0
DWIDTH 13 0
BBX 13 12 0 -1
BITMAP
FE60
3060
FF60
67F8
FF78
3C78
FF78
C378
FF78
FFD8
FFF8
C7B0
ENDCHAR
STARTCHAR U_52EB
ENCODING 21227
SWIDTH 1000 0
DWIDTH 13 0
BBX 13 12 0 -1
BITMAP
0660
7C60
7E60
FFF8
3C78
7F78
FF78
7B78
7F78
7B78
7FD8
63B0
ENDCHAR
STARTCHAR U_52EC
ENCODING 21228
SWIDTH 1000 0
DWIDTH 13 0
BBX 13 12 0 -1
BITMAP
DBC0
7EC0
FFC0
19F8
FFD8
3CD8
7ED8
FFD8
7D98
1998
7FF8
FB30
ENDCHAR
STARTCHAR U_52ED
ENCODING 21229
SWIDTH 1000 0
DWIDTH 13 0
BBX 13 12 0 -1
BITMAP
18C0
7EC0
3DF8
FFD8
7ED8
7ED8
7ED8
7ED8
18D8
7F98
19F8
FFB0
ENDCHAR
STARTCHAR U_52EE
ENCODING 21230
SWIDTH 1000 0
DWIDTH 13 0
BBX 13 12 0 -1
BITMAP
1E60
1860
7FF8
7B78
7E78
7878
7F78
6C78
7F78
7ED8
FFD8
D9B0
ENDCHAR
STARTCHAR U_52EF
ENCODING 21231
SWIDTH 1000 0
DWIDTH 13 0
BBX 13 12 0 -1
BITMAP
1860
FFE0
6360
7FF8
6378
7F78
3678
3E78
36D8
3ED8
0198
7F70
ENDCHAR
STARTCHAR U_52F0
ENCODING 21232
SWIDTH 1000 0
DWIDTH 13 0
BBX 13 12 0 -1
BITMAP
3000
FFF0
3FF0
6FF0
7FF0
7BF0
FE00
7EE0
7FF0
7FD8
DEF0
FCF0
ENDCHAR
STARTCHAR U_52F1
ENCODING 21233
SWIDTH 1000 0
DWIDTH 13 0
BBX 13 12 0 -1
BITMAP
3660
FFE0
3660
7FF8
7B78
7F78
7B78
FFF8
DFF8
FFF8
C1D8
C1B0
ENDCHAR
STARTCHAR U_52F2
ENCODING 21234
SWIDTH 1000 0
DWIDTH 13 0
BBX 13 12 0 -1
BITMAP
7E60
1860
FFF8
7E78
7E78
7E78
7ED8
18D8
7FF0
1800
FFF0
66D8
ENDCHAR
STARTCHAR U_52F3
ENCODING 21235
SWIDTH 1000 0
DWIDTH 13 0
BBX 13 12 0 -1
BITMAP
7F60
0C60
7FE0
7FF8
7FF8
7FF8
0C78
7F78
0C78
7FD8
7F98
FF70
ENDCHAR
STARTCHAR U_52F4
ENCODING 21236
SWIDTH 1000 0
DWIDTH 13 0
BBX 13 12 0 -1
BITMAP
1E60
1860
FFE0
FEF8
DF78
FF78
FF78
FF78
FFD8
DED8
FB98
FFF0
ENDCHAR
STARTCHAR U_52F5
ENCODING 21237
SWIDTH 1000 0
DWIDTH 13 0
BBX 13 12 0 -1
BITMAP
FFE0
DE60
FFE0
DEF8
FF78
FF78
FF78
FF78
FFF8
FDD8
FFD8
F1B0
ENDCHAR
STARTCHAR U_52F6
ENCODING 21238
SWIDTH 1000 0
DWIDTH 13 0
BBX 13 12 0 -1
BITMAP
1EC0
3FC0
7FF8
FFF0
7FF0
FF60
3FF0
3F98
7FF0
0C30
19B0
70E0
ENDCHAR
STARTCHAR U_52F7
ENCODING 21239
SWIDTH 1000 0
DWIDTH 13 0
BBX 13 12 0 -1
BITMAP
1860
FFE0
FF60
FFF8
1E78
FFF8
1E78
7FF8
1E78
FFF8
7BD8
F1B0
ENDCHAR
STARTCHAR U_52F8
ENCODING 21240
SWIDTH 1000 0
DWIDTH 13 0
BBX 13 12 0 -1
BITMAP
1E60
FFE0
1E60
7FF8
7FF8
7FF8
6C78
FFF8
6C78
7FD8
6CD8
7FB0
ENDCHAR
STARTCHAR U_52F9
ENCODING 21241
SWIDTH 1000 0
DWIDTH 13 0
BBX 13 12 0 -1
BITMAP
3000
3000
3FF0
6030
C030
0030
0030
0030
0030
0030
00F0
0060
ENDCHAR
STARTCHAR U_52FA
ENCODING 21242
SWIDTH 1000 0
DWIDTH 13 0
BBX 13 12 0 -1
BITMAP
3000
3000
3FF0
6030
C030
0C30
0730
0330
0030
0030
01E0
00C0
ENDCHAR
STARTCHAR U_52FB
ENCODING 21243
SWIDTH 1000 0
DWIDTH 13 0
BBX 13 12 0 -1
BITMAP
3000
3000
3FF0
6030
C030
1FB0
0030
0030
3FF0
0030
00F0
0060
ENDCHAR
STARTCHAR U_52FC
ENCODING 21244
SWIDTH 1000 0
DWIDTH 13 0
BBX 13 12 0 -1
BITMAP
3000
3000
3FF0
6C30
CC30
3F30
0FF0
0FF0
0FF0
1830
30F0
6060
ENDCHAR
STARTCHAR U_52FD
ENCODING 21245
SWIDTH 1000 0
DWIDTH 13 0
BBX 13 12 0 -1
BITMAP
3000
3000
3FF0
6030
CC30
0C30
0C30
1E30
3330
6030
01E0
00C0
ENDCHAR
STARTCHAR U_52FE
ENCODING 21246
SWIDTH 1000 0
DWIDTH 13 0
BBX 13 12 0 -1
BITMAP
3000
3000
3FF0
6030
C630
0C30
0F30
19B0
3FF0
1830
00F0
0060
ENDCHAR
STARTCHAR U_52FF
ENCODING 21247
SWIDTH 1000 0
DWIDTH 13 0
BBX 13 12 0 -1
BITMAP
3000
3000
3FF0
66F0
C6F0
0DB0
0DB0
1B30
3330
6630
0CF0
3860
ENDCHAR
STARTCHAR U_5300
ENCODING 21248
SWIDTH 1000 0
DWIDTH 13 0
BBX 13 12 0 -1
BITMAP
3000
3000
3FF0
6030
DC30
0730
0030
03B0
3E30
0030
0060
03C0
ENDCHAR
STARTCHAR U_5301
ENCODING 21249
SWIDTH 1000 0
DWIDTH 13 0
BBX 13 12 0 -1
BITMAP
3000
3000
3FE0
3360
7B60
6F60
C760
07E0
0CE0
38F8
E3C0
0180
ENDCHAR
STARTCHAR U_5302
ENCODING 21250
SWIDTH 1000 0
DWIDTH 13 0
BBX 13 12 0 -1
BITMAP
0C00
0C00
1FF8
3018
78D8
DB98
1E18
18D8
18D8
0FD8
0030
00E0
ENDCHAR
STARTCHAR U_5303
ENCODING 21251
SWIDTH 1000 0
DWIDTH 13 0
BBX 13 12 0 -1
BITMAP
1800
1800
3FF0
6330
F330
3330
37B0
3CF0
3030
3FF0
0030
00E0
ENDCHAR
STARTCHAR U_5304
ENCODING 21252
SWIDTH 1000 0
DWIDTH 13 0
BBX 13 12 0 -1
BITMAP
1800
1800
3FF0
6030
CC30
7FF0
3030
3030
3030
3FB0
00F0
0060
ENDCHAR
STARTCHAR U_5305
ENCODING 21253
SWIDTH 1000 0
DWIDTH 13 0
BBX 13 12 0 -1
BITMAP
3000
3000
3FE0
6060
FF60
3360
3360
3F60
31C0
3030
3030
1FF0
ENDCHAR
STARTCHAR U_5306
ENCODING 21254
SWIDTH 1000 0
DWIDTH 13 0
BBX 13 12 0 -1
BITMAP
3000
3000
3FE0
6F60
6F60
FB60
1F60
3360
67E0
CC60
1860
71C0
ENDCHAR
STARTCHAR U_5307
ENCODING 21255
SWIDTH 1000 0
DWIDTH 13 0
BBX 13 12 0 -1
BITMAP
1800
1FF8
3018
6C18
CFD8
18D8
3D98
6798
0318
0E18
3878
0030
ENDCHAR
STARTCHAR U_5308
ENCODING 21256
SWIDTH 1000 0
DWIDTH 13 0
BBX 13 12 0 -1
BITMAP
1800
1800
3FF0
61B0
FFF0
36F0
3FF0
39F0
30F0
3FF0
00F0
0060
ENDCHAR
STARTCHAR U_5309
ENCODING 21257
SWIDTH 1000 0
DWIDTH 13 0
BBX 13 12 0 -1
BITMAP
1800
1FF8
3018
7FD8
0618
36D8
1F98
7FF8
0618
0618
0678
0630
ENDCHAR
STARTCHAR U_530A
ENCODING 21258
SWIDTH 1000 0
DWIDTH 13 0
BBX 13 12 0 -1
BITMAP
3000
3030
3FF8
6630
DEF0
0FB0
7FF0
0730
1FB0
36F0
6630
06E0
ENDCHAR
STARTCHAR U_530B
ENCODING 21259
SWIDTH 1000 0
DWIDTH 13 0
BBX 13 12 0 -1
BITMAP
1800
1FF8
3018
6C18
0FD8
1B18
7FF8
0318
1BD8
1BD8
1FD8
0070
ENDCHAR
STARTCHAR U_530C
ENCODING 21260
SWIDTH 1000 0
DWIDTH 13 0
BBX 13 12 0 -1
BITMAP
3000
3FF8
6618
6F18
D998
3FD8
6078
1F98
1998
1998
1F98
0070
ENDCHAR
ENDFONT
